<svg width="252" height="53" viewBox="0 0 252 53" fill="none" xmlns="http://www.w3.org/2000/svg">
<path d="M8.16 1.6L16.72 31.28C16.9333 31.92 17.1467 32.7467 17.36 33.76C17.6267 34.72 17.8933 35.76 18.16 36.88C18.4267 37.9467 18.6667 39.04 18.88 40.16C19.0933 41.2267 19.2533 42.24 19.36 43.2H19.52C19.68 42.24 19.8667 41.2267 20.08 40.16C20.3467 39.04 20.6133 37.9467 20.88 36.88C21.1467 35.76 21.3867 34.72 21.6 33.76C21.8667 32.8 22.1067 31.9733 22.32 31.28L31.12 1.6H37.68L46.8 31.28C47.0133 31.9733 47.2267 32.8 47.44 33.76C47.7067 34.72 47.9467 35.7333 48.16 36.8C48.4267 37.8667 48.6667 38.96 48.88 40.08C49.1467 41.2 49.36 42.24 49.52 43.2H49.68C49.84 42.1867 50.0267 41.12 50.24 40C50.5067 38.88 50.7733 37.7867 51.04 36.72C51.3067 35.6 51.5467 34.5867 51.76 33.68C52.0267 32.72 52.24 31.92 52.4 31.28L60.64 1.6H68.08L53.28 52H45.84L38.16 25.2C37.7867 23.8667 37.4133 22.6133 37.04 21.44C36.72 20.2667 36.4 19.1467 36.08 18.08C35.8133 17.0133 35.52 15.9467 35.2 14.88C34.9333 13.76 34.64 12.5867 34.32 11.36H34.16C33.6267 13.76 33.04 16.16 32.4 18.56C31.76 20.96 31.1467 23.1733 30.56 25.2L23.12 52H15.76L0.64 1.6H8.16ZM89.6363 1.6H96.1963L116.276 52H108.596L103.076 38H82.3563L76.9163 52H69.3163L89.6363 1.6ZM84.3563 32.16H100.916L97.5563 23.44C96.6496 21.1467 95.8229 18.9333 95.0763 16.8C94.3296 14.6667 93.5829 12.48 92.8363 10.24H92.6762C91.9296 12.48 91.1563 14.64 90.3563 16.72C89.5563 18.8 88.7029 21.04 87.7963 23.44L84.3563 32.16ZM140.904 0.879995C143.357 0.879995 145.73 1.09333 148.024 1.52C150.317 1.89333 152.584 2.61333 154.824 3.68L153.064 9.76C150.77 8.69333 148.69 7.94666 146.824 7.52C145.01 7.04 143.144 6.8 141.224 6.8C138.184 6.8 135.784 7.46667 134.024 8.8C132.264 10.1333 131.384 12 131.384 14.4C131.384 16.4267 132.024 18.0533 133.304 19.28C134.637 20.5067 136.797 21.5733 139.784 22.48L144.824 24.08C149.41 25.52 152.637 27.4933 154.504 30C156.424 32.4533 157.384 35.2267 157.384 38.32C157.384 40.5067 156.93 42.5067 156.024 44.32C155.17 46.08 153.944 47.6 152.344 48.88C150.797 50.1067 148.957 51.0667 146.824 51.76C144.69 52.4 142.344 52.72 139.784 52.72C137.224 52.72 134.61 52.48 131.944 52C129.33 51.5733 126.717 50.7467 124.104 49.52L125.864 43.52C128.157 44.64 130.397 45.4667 132.584 46C134.77 46.5333 137.064 46.8 139.464 46.8C142.344 46.8 144.797 46.1333 146.824 44.8C148.85 43.4667 149.864 41.4933 149.864 38.88C149.864 37.92 149.704 37.04 149.384 36.24C149.117 35.3867 148.61 34.5867 147.864 33.84C147.17 33.0933 146.21 32.4 144.984 31.76C143.757 31.12 142.21 30.5067 140.344 29.92L135.304 28.32C131.624 27.1467 128.797 25.5467 126.824 23.52C124.85 21.4933 123.864 18.7467 123.864 15.28C123.864 10.8533 125.304 7.36 128.184 4.8C131.117 2.18666 135.357 0.879995 140.904 0.879995ZM184.433 1.6H190.993L211.073 52H203.393L197.873 38H177.153L171.713 52H164.113L184.433 1.6ZM179.153 32.16H195.713L192.353 23.44C191.446 21.1467 190.62 18.9333 189.873 16.8C189.126 14.6667 188.38 12.48 187.633 10.24H187.473C186.726 12.48 185.953 14.64 185.153 16.72C184.353 18.8 183.5 21.04 182.593 23.44L179.153 32.16ZM251.141 1.6V7.68H228.901V24H249.381V30H228.901V52H221.541V1.6H251.141Z" fill="#0D7FFF"/>
</svg>
