<svg width="862" height="500" viewBox="0 0 862 500" fill="none" xmlns="http://www.w3.org/2000/svg">
<path d="M15 0.5H847C855.008 0.5 861.5 6.99187 861.5 15V499.5H0.5V15C0.5 6.99186 6.99187 0.5 15 0.5Z" fill="#171A1B"/>
<circle cx="28" cy="15" r="4" fill="#FF5F56"/>
<circle cx="44" cy="15" r="4" fill="#FFBD2E"/>
<circle cx="60" cy="15" r="4" fill="#27C93F"/>
<rect opacity="0.9" x="248" y="8" width="300" height="14" rx="5" fill="#202226"/>
<path d="M378.24 12.61C378.673 12.61 379.02 12.7567 379.28 13.05C379.54 13.3367 379.67 13.7267 379.67 14.22V18H378.75V14.35C378.75 13.67 378.503 13.33 378.01 13.33C377.75 13.33 377.53 13.4067 377.35 13.56C377.17 13.7067 376.977 13.94 376.77 14.26V18H375.85V14.35C375.85 13.67 375.603 13.33 375.11 13.33C374.843 13.33 374.62 13.4067 374.44 13.56C374.26 13.7133 374.07 13.9467 373.87 14.26V18H372.95V12.73H373.74L373.82 13.5C374.213 12.9067 374.72 12.61 375.34 12.61C375.667 12.61 375.943 12.6933 376.17 12.86C376.403 13.0267 376.57 13.26 376.67 13.56C376.877 13.2533 377.103 13.02 377.35 12.86C377.603 12.6933 377.9 12.61 378.24 12.61ZM385.294 18H384.504L384.434 17.18C384.234 17.5067 384.004 17.7467 383.744 17.9C383.484 18.0467 383.168 18.12 382.794 18.12C382.334 18.12 381.974 17.98 381.714 17.7C381.454 17.42 381.324 17.0233 381.324 16.51V12.73H382.244V16.41C382.244 16.77 382.308 17.0267 382.434 17.18C382.561 17.3267 382.768 17.4 383.054 17.4C383.568 17.4 384.008 17.0967 384.374 16.49V12.73H385.294V18ZM388.475 12.61C388.835 12.61 389.158 12.66 389.445 12.76C389.731 12.86 390.005 13.01 390.265 13.21L389.875 13.79C389.635 13.6367 389.405 13.5233 389.185 13.45C388.971 13.3767 388.745 13.34 388.505 13.34C388.205 13.34 387.968 13.4033 387.795 13.53C387.621 13.65 387.535 13.8167 387.535 14.03C387.535 14.2433 387.615 14.41 387.775 14.53C387.941 14.65 388.238 14.7667 388.665 14.88C389.251 15.0267 389.688 15.2267 389.975 15.48C390.268 15.7333 390.415 16.08 390.415 16.52C390.415 17.04 390.211 17.4367 389.805 17.71C389.405 17.9833 388.915 18.12 388.335 18.12C387.535 18.12 386.871 17.89 386.345 17.43L386.835 16.87C387.281 17.21 387.775 17.38 388.315 17.38C388.661 17.38 388.935 17.31 389.135 17.17C389.341 17.0233 389.445 16.8267 389.445 16.58C389.445 16.4 389.408 16.2567 389.335 16.15C389.261 16.0367 389.135 15.94 388.955 15.86C388.775 15.7733 388.511 15.6833 388.165 15.59C387.605 15.4433 387.198 15.2467 386.945 15C386.698 14.7533 386.575 14.44 386.575 14.06C386.575 13.7867 386.655 13.54 386.815 13.32C386.981 13.0933 387.208 12.92 387.495 12.8C387.788 12.6733 388.115 12.61 388.475 12.61ZM392.612 18.12C392.272 18.12 392.002 18.02 391.802 17.82C391.609 17.6133 391.512 17.3267 391.512 16.96V10.61L392.432 10.5V16.94C392.432 17.0867 392.456 17.1933 392.502 17.26C392.556 17.3267 392.642 17.36 392.762 17.36C392.889 17.36 393.002 17.34 393.102 17.3L393.342 17.94C393.122 18.06 392.879 18.12 392.612 18.12ZM395.262 12.73V18H394.342V12.73H395.262ZM394.792 10.2C394.986 10.2 395.142 10.26 395.262 10.38C395.382 10.5 395.442 10.65 395.442 10.83C395.442 11.01 395.382 11.16 395.262 11.28C395.142 11.3933 394.986 11.45 394.792 11.45C394.606 11.45 394.452 11.3933 394.332 11.28C394.212 11.16 394.152 11.01 394.152 10.83C394.152 10.65 394.212 10.5 394.332 10.38C394.452 10.26 394.606 10.2 394.792 10.2ZM399.494 12.61C399.974 12.61 400.348 12.7533 400.614 13.04C400.888 13.3267 401.024 13.72 401.024 14.22V18H400.104V14.35C400.104 13.9767 400.031 13.7133 399.884 13.56C399.744 13.4067 399.538 13.33 399.264 13.33C398.991 13.33 398.748 13.41 398.534 13.57C398.321 13.73 398.121 13.9567 397.934 14.25V18H397.014V10.62L397.934 10.52V13.46C398.348 12.8933 398.868 12.61 399.494 12.61ZM403.644 12.73V18H402.724V12.73H403.644ZM403.174 10.2C403.367 10.2 403.524 10.26 403.644 10.38C403.764 10.5 403.824 10.65 403.824 10.83C403.824 11.01 403.764 11.16 403.644 11.28C403.524 11.3933 403.367 11.45 403.174 11.45C402.987 11.45 402.834 11.3933 402.714 11.28C402.594 11.16 402.534 11.01 402.534 10.83C402.534 10.65 402.594 10.5 402.714 10.38C402.834 10.26 402.987 10.2 403.174 10.2ZM409.476 10.61V18H408.666L408.576 17.27C408.403 17.5367 408.186 17.7467 407.926 17.9C407.666 18.0467 407.376 18.12 407.056 18.12C406.429 18.12 405.939 17.8733 405.586 17.38C405.239 16.8867 405.066 16.2233 405.066 15.39C405.066 14.85 405.149 14.37 405.316 13.95C405.483 13.53 405.723 13.2033 406.036 12.97C406.349 12.73 406.716 12.61 407.136 12.61C407.676 12.61 408.149 12.8267 408.556 13.26V10.5L409.476 10.61ZM407.256 17.39C407.536 17.39 407.776 17.3267 407.976 17.2C408.176 17.0667 408.369 16.87 408.556 16.61V14.03C408.383 13.8033 408.196 13.6333 407.996 13.52C407.803 13.4 407.583 13.34 407.336 13.34C406.929 13.34 406.613 13.51 406.386 13.85C406.166 14.19 406.056 14.6967 406.056 15.37C406.056 16.05 406.159 16.5567 406.366 16.89C406.573 17.2233 406.869 17.39 407.256 17.39ZM415.303 10.61V18H414.493L414.403 17.27C414.229 17.5367 414.013 17.7467 413.753 17.9C413.493 18.0467 413.203 18.12 412.883 18.12C412.256 18.12 411.766 17.8733 411.413 17.38C411.066 16.8867 410.893 16.2233 410.893 15.39C410.893 14.85 410.976 14.37 411.143 13.95C411.309 13.53 411.549 13.2033 411.863 12.97C412.176 12.73 412.543 12.61 412.963 12.61C413.503 12.61 413.976 12.8267 414.383 13.26V10.5L415.303 10.61ZM413.083 17.39C413.363 17.39 413.603 17.3267 413.803 17.2C414.003 17.0667 414.196 16.87 414.383 16.61V14.03C414.209 13.8033 414.023 13.6333 413.823 13.52C413.629 13.4 413.409 13.34 413.163 13.34C412.756 13.34 412.439 13.51 412.213 13.85C411.993 14.19 411.883 14.6967 411.883 15.37C411.883 16.05 411.986 16.5567 412.193 16.89C412.399 17.2233 412.696 17.39 413.083 17.39ZM417.969 12.73V18H417.049V12.73H417.969ZM417.499 10.2C417.693 10.2 417.849 10.26 417.969 10.38C418.089 10.5 418.149 10.65 418.149 10.83C418.149 11.01 418.089 11.16 417.969 11.28C417.849 11.3933 417.693 11.45 417.499 11.45C417.313 11.45 417.159 11.3933 417.039 11.28C416.919 11.16 416.859 11.01 416.859 10.83C416.859 10.65 416.919 10.5 417.039 10.38C417.159 10.26 417.313 10.2 417.499 10.2ZM422.201 12.61C422.681 12.61 423.055 12.7533 423.321 13.04C423.595 13.3267 423.731 13.72 423.731 14.22V18H422.811V14.35C422.811 13.9767 422.741 13.7133 422.601 13.56C422.461 13.4067 422.255 13.33 421.981 13.33C421.701 13.33 421.455 13.41 421.241 13.57C421.028 13.73 420.828 13.96 420.641 14.26V18H419.721V12.73H420.511L420.591 13.51C420.778 13.23 421.008 13.01 421.281 12.85C421.561 12.69 421.868 12.61 422.201 12.61ZM425.671 16.73C425.871 16.73 426.038 16.7967 426.171 16.93C426.304 17.0633 426.371 17.2267 426.371 17.42C426.371 17.6133 426.304 17.78 426.171 17.92C426.038 18.0533 425.871 18.12 425.671 18.12C425.478 18.12 425.314 18.0533 425.181 17.92C425.048 17.78 424.981 17.6133 424.981 17.42C424.981 17.2267 425.048 17.0633 425.181 16.93C425.314 16.7967 425.478 16.73 425.671 16.73ZM429.506 12.61C429.819 12.61 430.106 12.6567 430.366 12.75C430.626 12.8367 430.876 12.98 431.116 13.18L430.676 13.76C430.489 13.6267 430.306 13.53 430.126 13.47C429.952 13.4033 429.759 13.37 429.546 13.37C429.119 13.37 428.786 13.54 428.546 13.88C428.312 14.22 428.196 14.7233 428.196 15.39C428.196 16.0567 428.312 16.55 428.546 16.87C428.779 17.1833 429.112 17.34 429.546 17.34C429.752 17.34 429.942 17.31 430.116 17.25C430.289 17.1833 430.482 17.08 430.696 16.94L431.116 17.54C430.636 17.9267 430.099 18.12 429.506 18.12C428.792 18.12 428.229 17.88 427.816 17.4C427.409 16.92 427.206 16.2567 427.206 15.41C427.206 14.85 427.299 14.36 427.486 13.94C427.672 13.52 427.936 13.1933 428.276 12.96C428.622 12.7267 429.032 12.61 429.506 12.61ZM433.996 12.61C434.736 12.61 435.309 12.8567 435.716 13.35C436.129 13.8433 436.336 14.5133 436.336 15.36C436.336 15.9067 436.242 16.39 436.056 16.81C435.869 17.2233 435.599 17.5467 435.246 17.78C434.892 18.0067 434.472 18.12 433.986 18.12C433.246 18.12 432.669 17.8733 432.256 17.38C431.842 16.8867 431.636 16.2167 431.636 15.37C431.636 14.8233 431.729 14.3433 431.916 13.93C432.102 13.51 432.372 13.1867 432.726 12.96C433.079 12.7267 433.502 12.61 433.996 12.61ZM433.996 13.35C433.082 13.35 432.626 14.0233 432.626 15.37C432.626 16.71 433.079 17.38 433.986 17.38C434.892 17.38 435.346 16.7067 435.346 15.36C435.346 14.02 434.896 13.35 433.996 13.35ZM442.995 12.61C443.429 12.61 443.775 12.7567 444.035 13.05C444.295 13.3367 444.425 13.7267 444.425 14.22V18H443.505V14.35C443.505 13.67 443.259 13.33 442.765 13.33C442.505 13.33 442.285 13.4067 442.105 13.56C441.925 13.7067 441.732 13.94 441.525 14.26V18H440.605V14.35C440.605 13.67 440.359 13.33 439.865 13.33C439.599 13.33 439.375 13.4067 439.195 13.56C439.015 13.7133 438.825 13.9467 438.625 14.26V18H437.705V12.73H438.495L438.575 13.5C438.969 12.9067 439.475 12.61 440.095 12.61C440.422 12.61 440.699 12.6933 440.925 12.86C441.159 13.0267 441.325 13.26 441.425 13.56C441.632 13.2533 441.859 13.02 442.105 12.86C442.359 12.6933 442.655 12.61 442.995 12.61Z" fill="white"/>
<path d="M107.904 141.968C108.224 141.968 108.491 142.075 108.704 142.288C108.917 142.501 109.024 142.763 109.024 143.072C109.024 143.381 108.917 143.648 108.704 143.872C108.491 144.085 108.224 144.192 107.904 144.192C107.595 144.192 107.333 144.085 107.12 143.872C106.907 143.648 106.8 143.381 106.8 143.072C106.8 142.763 106.907 142.501 107.12 142.288C107.333 142.075 107.595 141.968 107.904 141.968ZM117.138 144L116.306 141.232H112.13L111.298 144H109.762L113.298 132.976H115.218L118.738 144H117.138ZM112.498 140H115.938L114.226 134.24L112.498 140ZM123.974 135.376C124.934 135.376 125.697 135.765 126.262 136.544C126.827 137.312 127.11 138.389 127.11 139.776C127.11 140.651 126.977 141.424 126.71 142.096C126.443 142.757 126.059 143.275 125.558 143.648C125.057 144.011 124.47 144.192 123.798 144.192C122.913 144.192 122.166 143.819 121.558 143.072L121.414 144H120.118V132.176L121.59 132V136.624C122.198 135.792 122.993 135.376 123.974 135.376ZM123.446 143.024C124.097 143.024 124.603 142.763 124.966 142.24C125.339 141.707 125.526 140.885 125.526 139.776C125.526 138.635 125.355 137.813 125.014 137.312C124.673 136.8 124.187 136.544 123.558 136.544C122.811 136.544 122.155 136.981 121.59 137.856V141.888C121.814 142.24 122.086 142.517 122.406 142.72C122.737 142.923 123.083 143.024 123.446 143.024ZM132.546 135.376C133.73 135.376 134.647 135.771 135.298 136.56C135.959 137.349 136.29 138.421 136.29 139.776C136.29 140.651 136.141 141.424 135.842 142.096C135.543 142.757 135.111 143.275 134.546 143.648C133.981 144.011 133.309 144.192 132.53 144.192C131.346 144.192 130.423 143.797 129.762 143.008C129.101 142.219 128.77 141.147 128.77 139.792C128.77 138.917 128.919 138.149 129.218 137.488C129.517 136.816 129.949 136.299 130.514 135.936C131.079 135.563 131.757 135.376 132.546 135.376ZM132.546 136.56C131.085 136.56 130.354 137.637 130.354 139.792C130.354 141.936 131.079 143.008 132.53 143.008C133.981 143.008 134.706 141.931 134.706 139.776C134.706 137.632 133.986 136.56 132.546 136.56ZM144.754 144H143.49L143.378 142.688C143.058 143.211 142.69 143.595 142.274 143.84C141.858 144.075 141.351 144.192 140.754 144.192C140.018 144.192 139.442 143.968 139.026 143.52C138.61 143.072 138.402 142.437 138.402 141.616V135.568H139.874V141.456C139.874 142.032 139.975 142.443 140.178 142.688C140.381 142.923 140.711 143.04 141.17 143.04C141.991 143.04 142.695 142.555 143.282 141.584V135.568H144.754V144ZM151.81 143.616C151.256 144 150.626 144.192 149.922 144.192C149.208 144.192 148.648 143.989 148.242 143.584C147.848 143.168 147.65 142.571 147.65 141.792V136.704H146.178V135.568H147.65V133.664L149.122 133.488V135.568H151.122L150.962 136.704H149.122V141.728C149.122 142.165 149.197 142.485 149.346 142.688C149.506 142.88 149.768 142.976 150.13 142.976C150.461 142.976 150.834 142.864 151.25 142.64L151.81 143.616ZM163.032 144H161.56L161.176 139.024C161.016 137.072 160.925 135.573 160.904 134.528L158.52 142.752H157.096L154.584 134.512C154.584 135.845 154.514 137.387 154.376 139.136L154.008 144H152.568L153.48 132.976H155.528L157.848 140.992L160.056 132.976H162.12L163.032 144ZM171.677 139.536C171.677 139.781 171.666 140.032 171.645 140.288H166.269C166.333 141.216 166.567 141.899 166.973 142.336C167.378 142.773 167.901 142.992 168.541 142.992C168.946 142.992 169.319 142.933 169.661 142.816C170.002 142.699 170.359 142.512 170.733 142.256L171.373 143.136C170.477 143.84 169.495 144.192 168.429 144.192C167.255 144.192 166.338 143.808 165.677 143.04C165.026 142.272 164.701 141.216 164.701 139.872C164.701 138.997 164.839 138.224 165.117 137.552C165.405 136.869 165.81 136.336 166.333 135.952C166.866 135.568 167.49 135.376 168.205 135.376C169.325 135.376 170.183 135.744 170.781 136.48C171.378 137.216 171.677 138.235 171.677 139.536ZM170.221 139.104C170.221 138.272 170.055 137.637 169.725 137.2C169.394 136.763 168.898 136.544 168.237 136.544C167.031 136.544 166.375 137.429 166.269 139.2H170.221V139.104Z" fill="#7000FF"/>
<path d="M180.694 131.76C180.15 131.76 179.761 131.845 179.526 132.016C179.291 132.176 179.174 132.453 179.174 132.848V136.672C179.174 137.216 179.078 137.611 178.886 137.856C178.694 138.091 178.39 138.277 177.974 138.416C178.401 138.565 178.705 138.752 178.886 138.976C179.078 139.2 179.174 139.584 179.174 140.128V143.952C179.174 144.347 179.291 144.624 179.526 144.784C179.761 144.955 180.15 145.04 180.694 145.04V146.176C179.627 146.176 178.875 145.989 178.438 145.616C178.001 145.253 177.782 144.645 177.782 143.792V140.24C177.782 139.792 177.697 139.477 177.526 139.296C177.366 139.115 177.078 139.024 176.662 139.024V137.808C177.078 137.808 177.366 137.712 177.526 137.52C177.697 137.328 177.782 137.008 177.782 136.56V133.008C177.782 132.155 178.001 131.547 178.438 131.184C178.875 130.811 179.627 130.624 180.694 130.624V131.76ZM215.209 166.944V168.176H213.289V180.64H215.209V181.856H211.897V166.944H215.209ZM228.568 168.976L225.048 180H223.416L219.864 168.976H221.496L224.264 178.352L227.032 168.976H228.568ZM235.898 180H234.634L234.522 178.688C234.202 179.211 233.834 179.595 233.418 179.84C233.002 180.075 232.496 180.192 231.898 180.192C231.162 180.192 230.586 179.968 230.17 179.52C229.754 179.072 229.546 178.437 229.546 177.616V171.568H231.018V177.456C231.018 178.032 231.12 178.443 231.322 178.688C231.525 178.923 231.856 179.04 232.314 179.04C233.136 179.04 233.84 178.555 234.426 177.584V171.568H235.898V180ZM245.067 175.536C245.067 175.781 245.056 176.032 245.035 176.288H239.659C239.723 177.216 239.957 177.899 240.363 178.336C240.768 178.773 241.291 178.992 241.931 178.992C242.336 178.992 242.709 178.933 243.051 178.816C243.392 178.699 243.749 178.512 244.123 178.256L244.763 179.136C243.867 179.84 242.885 180.192 241.819 180.192C240.645 180.192 239.728 179.808 239.067 179.04C238.416 178.272 238.091 177.216 238.091 175.872C238.091 174.997 238.229 174.224 238.507 173.552C238.795 172.869 239.2 172.336 239.723 171.952C240.256 171.568 240.88 171.376 241.595 171.376C242.715 171.376 243.573 171.744 244.171 172.48C244.768 173.216 245.067 174.235 245.067 175.536ZM243.611 175.104C243.611 174.272 243.445 173.637 243.115 173.2C242.784 172.763 242.288 172.544 241.627 172.544C240.421 172.544 239.765 173.429 239.659 175.2H243.611V175.104ZM253.3 169.136C253.94 169.136 254.5 169.264 254.98 169.52C255.471 169.776 255.849 170.128 256.116 170.576C256.383 171.013 256.516 171.509 256.516 172.064C256.516 172.715 256.367 173.339 256.068 173.936C255.78 174.533 255.332 175.179 254.724 175.872C254.116 176.565 253.193 177.531 251.956 178.768H256.772L256.596 180H250.276V178.832C251.705 177.349 252.719 176.267 253.316 175.584C253.913 174.891 254.34 174.288 254.596 173.776C254.852 173.264 254.98 172.715 254.98 172.128C254.98 171.573 254.82 171.141 254.5 170.832C254.18 170.512 253.753 170.352 253.22 170.352C252.783 170.352 252.399 170.443 252.068 170.624C251.737 170.805 251.385 171.104 251.012 171.52L250.052 170.752C250.489 170.208 250.975 169.803 251.508 169.536C252.041 169.269 252.639 169.136 253.3 169.136ZM262.726 167.088L263.974 167.376L260.278 181.664L259.014 181.36L262.726 167.088ZM268.522 169.136C269.183 169.136 269.749 169.259 270.218 169.504C270.698 169.749 271.061 170.08 271.306 170.496C271.562 170.912 271.69 171.365 271.69 171.856C271.69 172.507 271.498 173.045 271.114 173.472C270.741 173.888 270.239 174.171 269.61 174.32C270.325 174.384 270.906 174.64 271.354 175.088C271.802 175.536 272.026 176.144 272.026 176.912C272.026 177.531 271.877 178.091 271.578 178.592C271.279 179.093 270.853 179.488 270.298 179.776C269.743 180.053 269.103 180.192 268.378 180.192C267.727 180.192 267.13 180.075 266.586 179.84C266.042 179.595 265.567 179.232 265.162 178.752L266.042 177.936C266.394 178.299 266.751 178.565 267.114 178.736C267.487 178.907 267.893 178.992 268.33 178.992C269.002 178.992 269.53 178.805 269.914 178.432C270.298 178.048 270.49 177.536 270.49 176.896C270.49 176.192 270.309 175.696 269.946 175.408C269.583 175.12 269.055 174.976 268.362 174.976H267.562L267.738 173.84H268.282C268.837 173.84 269.295 173.675 269.658 173.344C270.031 173.013 270.218 172.549 270.218 171.952C270.218 171.451 270.058 171.056 269.738 170.768C269.418 170.469 268.986 170.32 268.442 170.32C268.026 170.32 267.642 170.395 267.29 170.544C266.949 170.693 266.597 170.939 266.234 171.28L265.466 170.4C266.373 169.557 267.391 169.136 268.522 169.136ZM274.57 177.968C274.89 177.968 275.157 178.075 275.37 178.288C275.584 178.501 275.69 178.763 275.69 179.072C275.69 179.403 275.594 179.781 275.402 180.208L274.33 182.656H273.274L273.914 180C273.776 179.893 273.664 179.76 273.578 179.6C273.504 179.44 273.466 179.264 273.466 179.072C273.466 178.763 273.573 178.501 273.786 178.288C274 178.075 274.261 177.968 274.57 177.968ZM289.592 180H287.56L283.08 170.64C283.144 171.376 283.192 172.059 283.224 172.688C283.267 173.307 283.288 174.059 283.288 174.944V180H281.864V168.976H283.848L288.376 178.352C288.344 178.075 288.302 177.589 288.248 176.896C288.195 176.203 288.168 175.568 288.168 174.992V168.976H289.592V180ZM298.738 180H297.474L297.362 178.688C297.042 179.211 296.674 179.595 296.258 179.84C295.842 180.075 295.336 180.192 294.738 180.192C294.002 180.192 293.426 179.968 293.01 179.52C292.594 179.072 292.386 178.437 292.386 177.616V171.568H293.858V177.456C293.858 178.032 293.96 178.443 294.162 178.688C294.365 178.923 294.696 179.04 295.154 179.04C295.976 179.04 296.68 178.555 297.266 177.584V171.568H298.738V180ZM304.771 175.488L307.699 180H305.923L303.859 176.432L301.763 180H300.099L303.043 175.552L300.435 171.568H302.163L303.923 174.656L305.699 171.568H307.363L304.771 175.488ZM313.32 179.616C312.766 180 312.136 180.192 311.432 180.192C310.718 180.192 310.158 179.989 309.752 179.584C309.358 179.168 309.16 178.571 309.16 177.792V172.704H307.688V171.568H309.16V169.664L310.632 169.488V171.568H312.632L312.472 172.704H310.632V177.728C310.632 178.165 310.707 178.485 310.856 178.688C311.016 178.88 311.278 178.976 311.64 178.976C311.971 178.976 312.344 178.864 312.76 178.64L313.32 179.616ZM315.052 177.968C315.372 177.968 315.639 178.075 315.852 178.288C316.065 178.501 316.172 178.763 316.172 179.072C316.172 179.403 316.076 179.781 315.884 180.208L314.812 182.656H313.756L314.396 180C314.257 179.893 314.145 179.76 314.06 179.6C313.985 179.44 313.948 179.264 313.948 179.072C313.948 178.763 314.055 178.501 314.268 178.288C314.481 178.075 314.743 177.968 315.052 177.968ZM328.858 168.976L328.698 170.272H325.642V180H324.122V170.272H320.986V168.976H328.858ZM332.779 168.784C333.515 168.784 334.145 168.891 334.667 169.104C335.19 169.307 335.697 169.627 336.187 170.064L335.355 170.992C334.939 170.661 334.529 170.421 334.123 170.272C333.729 170.112 333.302 170.032 332.843 170.032C332.267 170.032 331.793 170.165 331.419 170.432C331.046 170.699 330.859 171.088 330.859 171.6C330.859 171.92 330.923 172.192 331.051 172.416C331.179 172.629 331.414 172.827 331.755 173.008C332.107 173.189 332.614 173.381 333.275 173.584C333.969 173.797 334.545 174.027 335.003 174.272C335.462 174.517 335.83 174.859 336.107 175.296C336.395 175.723 336.539 176.267 336.539 176.928C336.539 177.568 336.379 178.133 336.059 178.624C335.75 179.115 335.297 179.499 334.699 179.776C334.113 180.053 333.414 180.192 332.603 180.192C331.078 180.192 329.83 179.717 328.859 178.768L329.691 177.84C330.139 178.203 330.593 178.48 331.051 178.672C331.51 178.853 332.022 178.944 332.587 178.944C333.27 178.944 333.835 178.779 334.283 178.448C334.731 178.107 334.955 177.616 334.955 176.976C334.955 176.613 334.886 176.315 334.747 176.08C334.609 175.835 334.369 175.616 334.027 175.424C333.697 175.232 333.211 175.04 332.571 174.848C331.441 174.507 330.614 174.096 330.091 173.616C329.569 173.136 329.307 172.485 329.307 171.664C329.307 171.109 329.451 170.613 329.739 170.176C330.038 169.739 330.449 169.397 330.971 169.152C331.505 168.907 332.107 168.784 332.779 168.784ZM342.33 167.088L343.578 167.376L339.882 181.664L338.618 181.36L342.33 167.088ZM348.371 178.464C348.371 179.552 348.131 180.368 347.651 180.912C347.181 181.456 346.461 181.883 345.491 182.192L345.091 181.088C345.581 180.896 345.949 180.688 346.195 180.464C346.44 180.24 346.611 179.968 346.707 179.648C346.803 179.328 346.851 178.912 346.851 178.4V168.976H348.371V178.464ZM353.966 168.784C354.702 168.784 355.331 168.891 355.854 169.104C356.376 169.307 356.883 169.627 357.374 170.064L356.542 170.992C356.126 170.661 355.715 170.421 355.31 170.272C354.915 170.112 354.488 170.032 354.03 170.032C353.454 170.032 352.979 170.165 352.606 170.432C352.232 170.699 352.046 171.088 352.046 171.6C352.046 171.92 352.11 172.192 352.238 172.416C352.366 172.629 352.6 172.827 352.942 173.008C353.294 173.189 353.8 173.381 354.462 173.584C355.155 173.797 355.731 174.027 356.19 174.272C356.648 174.517 357.016 174.859 357.294 175.296C357.582 175.723 357.726 176.267 357.726 176.928C357.726 177.568 357.566 178.133 357.246 178.624C356.936 179.115 356.483 179.499 355.886 179.776C355.299 180.053 354.6 180.192 353.79 180.192C352.264 180.192 351.016 179.717 350.046 178.768L350.878 177.84C351.326 178.203 351.779 178.48 352.238 178.672C352.696 178.853 353.208 178.944 353.774 178.944C354.456 178.944 355.022 178.779 355.47 178.448C355.918 178.107 356.142 177.616 356.142 176.976C356.142 176.613 356.072 176.315 355.934 176.08C355.795 175.835 355.555 175.616 355.214 175.424C354.883 175.232 354.398 175.04 353.758 174.848C352.627 174.507 351.8 174.096 351.278 173.616C350.755 173.136 350.494 172.485 350.494 171.664C350.494 171.109 350.638 170.613 350.926 170.176C351.224 169.739 351.635 169.397 352.158 169.152C352.691 168.907 353.294 168.784 353.966 168.784ZM366.231 166.944V181.856H362.919V180.64H364.839V168.176H362.919V166.944H366.231ZM368.939 177.968C369.259 177.968 369.526 178.075 369.739 178.288C369.952 178.501 370.059 178.763 370.059 179.072C370.059 179.403 369.963 179.781 369.771 180.208L368.699 182.656H367.643L368.283 180C368.144 179.893 368.032 179.76 367.947 179.6C367.872 179.44 367.835 179.264 367.835 179.072C367.835 178.763 367.942 178.501 368.155 178.288C368.368 178.075 368.63 177.968 368.939 177.968ZM368.939 172.08C369.259 172.08 369.526 172.187 369.739 172.4C369.952 172.613 370.059 172.875 370.059 173.184C370.059 173.493 369.952 173.76 369.739 173.984C369.526 174.197 369.259 174.304 368.939 174.304C368.63 174.304 368.368 174.197 368.155 173.984C367.942 173.76 367.835 173.493 367.835 173.184C367.835 172.875 367.942 172.613 368.155 172.4C368.368 172.187 368.63 172.08 368.939 172.08ZM191.804 184.944V186.176H189.884V198.64H191.804V199.856H188.492V184.944H191.804ZM200.859 186.976C202.224 186.976 203.28 187.264 204.027 187.84C204.774 188.405 205.147 189.253 205.147 190.384C205.147 191.589 204.758 192.485 203.979 193.072C203.2 193.659 202.166 193.952 200.875 193.952H199.483V198H197.963V186.976H200.859ZM200.811 192.752C201.696 192.752 202.368 192.581 202.827 192.24C203.296 191.899 203.531 191.285 203.531 190.4C203.531 189.611 203.296 189.04 202.827 188.688C202.368 188.336 201.707 188.16 200.843 188.16H199.483V192.752H200.811ZM208.412 189.568V198H206.94V189.568H208.412ZM207.66 185.52C207.969 185.52 208.22 185.616 208.412 185.808C208.604 186 208.7 186.24 208.7 186.528C208.7 186.816 208.604 187.056 208.412 187.248C208.22 187.429 207.969 187.52 207.66 187.52C207.361 187.52 207.116 187.429 206.924 187.248C206.732 187.056 206.636 186.816 206.636 186.528C206.636 186.24 206.732 186 206.924 185.808C207.116 185.616 207.361 185.52 207.66 185.52ZM215.184 189.376C215.952 189.376 216.549 189.605 216.976 190.064C217.413 190.523 217.632 191.152 217.632 191.952V198H216.16V192.16C216.16 191.563 216.048 191.141 215.824 190.896C215.6 190.651 215.269 190.528 214.832 190.528C214.384 190.528 213.989 190.656 213.648 190.912C213.306 191.168 212.986 191.536 212.688 192.016V198H211.216V189.568H212.48L212.608 190.816C212.906 190.368 213.274 190.016 213.712 189.76C214.16 189.504 214.65 189.376 215.184 189.376ZM221.823 189.568V198H220.351V189.568H221.823ZM221.071 185.52C221.38 185.52 221.631 185.616 221.823 185.808C222.015 186 222.111 186.24 222.111 186.528C222.111 186.816 222.015 187.056 221.823 187.248C221.631 187.429 221.38 187.52 221.071 187.52C220.772 187.52 220.527 187.429 220.335 187.248C220.143 187.056 220.047 186.816 220.047 186.528C220.047 186.24 220.143 186 220.335 185.808C220.527 185.616 220.772 185.52 221.071 185.52ZM230.306 196.032C230.306 196.373 230.365 196.629 230.482 196.8C230.6 196.96 230.776 197.083 231.01 197.168L230.674 198.192C230.237 198.139 229.885 198.016 229.618 197.824C229.352 197.632 229.154 197.333 229.026 196.928C228.461 197.771 227.624 198.192 226.514 198.192C225.682 198.192 225.026 197.957 224.546 197.488C224.066 197.019 223.826 196.405 223.826 195.648C223.826 194.752 224.146 194.064 224.786 193.584C225.437 193.104 226.354 192.864 227.538 192.864H228.834V192.24C228.834 191.643 228.69 191.216 228.402 190.96C228.114 190.704 227.672 190.576 227.074 190.576C226.456 190.576 225.698 190.725 224.802 191.024L224.434 189.952C225.48 189.568 226.45 189.376 227.346 189.376C228.338 189.376 229.08 189.621 229.57 190.112C230.061 190.592 230.306 191.28 230.306 192.176V196.032ZM226.85 197.088C227.693 197.088 228.354 196.651 228.834 195.776V193.84H227.73C226.173 193.84 225.394 194.416 225.394 195.568C225.394 196.069 225.517 196.448 225.762 196.704C226.008 196.96 226.37 197.088 226.85 197.088ZM233.473 195.968C233.793 195.968 234.06 196.075 234.273 196.288C234.487 196.501 234.593 196.763 234.593 197.072C234.593 197.403 234.497 197.781 234.305 198.208L233.233 200.656H232.177L232.817 198C232.679 197.893 232.567 197.76 232.481 197.6C232.407 197.44 232.369 197.264 232.369 197.072C232.369 196.763 232.476 196.501 232.689 196.288C232.903 196.075 233.164 195.968 233.473 195.968ZM247.279 186.976L247.119 188.272H244.063V198H242.543V188.272H239.407V186.976H247.279ZM253.596 196.032C253.596 196.373 253.655 196.629 253.772 196.8C253.89 196.96 254.066 197.083 254.3 197.168L253.964 198.192C253.527 198.139 253.175 198.016 252.908 197.824C252.642 197.632 252.444 197.333 252.316 196.928C251.751 197.771 250.914 198.192 249.804 198.192C248.972 198.192 248.316 197.957 247.836 197.488C247.356 197.019 247.116 196.405 247.116 195.648C247.116 194.752 247.436 194.064 248.076 193.584C248.727 193.104 249.644 192.864 250.828 192.864H252.124V192.24C252.124 191.643 251.98 191.216 251.692 190.96C251.404 190.704 250.962 190.576 250.364 190.576C249.746 190.576 248.988 190.725 248.092 191.024L247.724 189.952C248.77 189.568 249.74 189.376 250.636 189.376C251.628 189.376 252.37 189.621 252.86 190.112C253.351 190.592 253.596 191.28 253.596 192.176V196.032ZM250.14 197.088C250.983 197.088 251.644 196.651 252.124 195.776V193.84H251.02C249.463 193.84 248.684 194.416 248.684 195.568C248.684 196.069 248.807 196.448 249.052 196.704C249.298 196.96 249.66 197.088 250.14 197.088ZM257.851 189.568V198H256.379V189.568H257.851ZM257.099 185.52C257.409 185.52 257.659 185.616 257.851 185.808C258.043 186 258.139 186.24 258.139 186.528C258.139 186.816 258.043 187.056 257.851 187.248C257.659 187.429 257.409 187.52 257.099 187.52C256.801 187.52 256.555 187.429 256.363 187.248C256.171 187.056 256.075 186.816 256.075 186.528C256.075 186.24 256.171 186 256.363 185.808C256.555 185.616 256.801 185.52 257.099 185.52ZM262.335 198.192C261.791 198.192 261.359 198.032 261.039 197.712C260.73 197.381 260.575 196.923 260.575 196.336V186.176L262.047 186V196.304C262.047 196.539 262.084 196.709 262.159 196.816C262.244 196.923 262.383 196.976 262.575 196.976C262.778 196.976 262.959 196.944 263.119 196.88L263.503 197.904C263.151 198.096 262.762 198.192 262.335 198.192ZM274.735 189.568L272.815 198H270.815L269.343 190.896L267.823 198H265.871L263.903 189.568H265.375L266.895 196.976L268.559 189.568H270.207L271.791 196.976L273.327 189.568H274.735ZM277.803 189.568V198H276.331V189.568H277.803ZM277.051 185.52C277.361 185.52 277.611 185.616 277.803 185.808C277.995 186 278.091 186.24 278.091 186.528C278.091 186.816 277.995 187.056 277.803 187.248C277.611 187.429 277.361 187.52 277.051 187.52C276.753 187.52 276.507 187.429 276.315 187.248C276.123 187.056 276.027 186.816 276.027 186.528C276.027 186.24 276.123 186 276.315 185.808C276.507 185.616 276.753 185.52 277.051 185.52ZM284.575 189.376C285.343 189.376 285.94 189.605 286.367 190.064C286.804 190.523 287.023 191.152 287.023 191.952V198H285.551V192.16C285.551 191.563 285.439 191.141 285.215 190.896C284.991 190.651 284.66 190.528 284.223 190.528C283.775 190.528 283.38 190.656 283.039 190.912C282.698 191.168 282.378 191.536 282.079 192.016V198H280.607V189.568H281.871L281.999 190.816C282.298 190.368 282.666 190.016 283.103 189.76C283.551 189.504 284.042 189.376 284.575 189.376ZM296.27 186.176V198H294.974L294.83 196.832C294.553 197.259 294.206 197.595 293.79 197.84C293.374 198.075 292.91 198.192 292.398 198.192C291.395 198.192 290.611 197.797 290.046 197.008C289.491 196.219 289.214 195.157 289.214 193.824C289.214 192.96 289.347 192.192 289.614 191.52C289.881 190.848 290.265 190.325 290.766 189.952C291.267 189.568 291.854 189.376 292.526 189.376C293.39 189.376 294.147 189.723 294.798 190.416V186L296.27 186.176ZM292.718 197.024C293.166 197.024 293.55 196.923 293.87 196.72C294.19 196.507 294.499 196.192 294.798 195.776V191.648C294.521 191.285 294.222 191.013 293.902 190.832C293.593 190.64 293.241 190.544 292.846 190.544C292.195 190.544 291.689 190.816 291.326 191.36C290.974 191.904 290.798 192.715 290.798 193.792C290.798 194.88 290.963 195.691 291.294 196.224C291.625 196.757 292.099 197.024 292.718 197.024ZM302.136 189.376C302.638 189.376 303.096 189.451 303.512 189.6C303.928 189.739 304.328 189.968 304.712 190.288L304.008 191.216C303.71 191.003 303.416 190.848 303.128 190.752C302.851 190.645 302.542 190.592 302.2 190.592C301.518 190.592 300.984 190.864 300.6 191.408C300.227 191.952 300.04 192.757 300.04 193.824C300.04 194.891 300.227 195.68 300.6 196.192C300.974 196.693 301.507 196.944 302.2 196.944C302.531 196.944 302.835 196.896 303.112 196.8C303.39 196.693 303.699 196.528 304.04 196.304L304.712 197.264C303.944 197.883 303.086 198.192 302.136 198.192C300.995 198.192 300.094 197.808 299.432 197.04C298.782 196.272 298.456 195.211 298.456 193.856C298.456 192.96 298.606 192.176 298.904 191.504C299.203 190.832 299.624 190.309 300.168 189.936C300.723 189.563 301.379 189.376 302.136 189.376ZM308.753 189.376C309.329 189.376 309.846 189.456 310.305 189.616C310.764 189.776 311.201 190.016 311.617 190.336L310.993 191.264C310.609 191.019 310.241 190.837 309.889 190.72C309.548 190.603 309.185 190.544 308.801 190.544C308.321 190.544 307.942 190.645 307.665 190.848C307.388 191.04 307.249 191.307 307.249 191.648C307.249 191.989 307.377 192.256 307.633 192.448C307.9 192.64 308.374 192.827 309.057 193.008C309.996 193.243 310.694 193.563 311.153 193.968C311.622 194.373 311.857 194.928 311.857 195.632C311.857 196.464 311.532 197.099 310.881 197.536C310.241 197.973 309.457 198.192 308.529 198.192C307.249 198.192 306.188 197.824 305.345 197.088L306.129 196.192C306.844 196.736 307.633 197.008 308.497 197.008C309.052 197.008 309.489 196.896 309.809 196.672C310.14 196.437 310.305 196.123 310.305 195.728C310.305 195.44 310.246 195.211 310.129 195.04C310.012 194.859 309.809 194.704 309.521 194.576C309.233 194.437 308.812 194.293 308.257 194.144C307.361 193.909 306.71 193.595 306.305 193.2C305.91 192.805 305.713 192.304 305.713 191.696C305.713 191.259 305.841 190.864 306.097 190.512C306.364 190.149 306.726 189.872 307.185 189.68C307.654 189.477 308.177 189.376 308.753 189.376ZM315.826 189.376C316.402 189.376 316.919 189.456 317.378 189.616C317.836 189.776 318.274 190.016 318.69 190.336L318.066 191.264C317.682 191.019 317.314 190.837 316.962 190.72C316.62 190.603 316.258 190.544 315.874 190.544C315.394 190.544 315.015 190.645 314.738 190.848C314.46 191.04 314.322 191.307 314.322 191.648C314.322 191.989 314.45 192.256 314.706 192.448C314.972 192.64 315.447 192.827 316.13 193.008C317.068 193.243 317.767 193.563 318.226 193.968C318.695 194.373 318.93 194.928 318.93 195.632C318.93 196.464 318.604 197.099 317.954 197.536C317.314 197.973 316.53 198.192 315.602 198.192C314.322 198.192 313.26 197.824 312.418 197.088L313.202 196.192C313.916 196.736 314.706 197.008 315.57 197.008C316.124 197.008 316.562 196.896 316.882 196.672C317.212 196.437 317.378 196.123 317.378 195.728C317.378 195.44 317.319 195.211 317.202 195.04C317.084 194.859 316.882 194.704 316.594 194.576C316.306 194.437 315.884 194.293 315.33 194.144C314.434 193.909 313.783 193.595 313.378 193.2C312.983 192.805 312.786 192.304 312.786 191.696C312.786 191.259 312.914 190.864 313.17 190.512C313.436 190.149 313.799 189.872 314.258 189.68C314.727 189.477 315.25 189.376 315.826 189.376ZM321.15 195.968C321.47 195.968 321.737 196.075 321.95 196.288C322.164 196.501 322.27 196.763 322.27 197.072C322.27 197.403 322.174 197.781 321.982 198.208L320.91 200.656H319.854L320.494 198C320.356 197.893 320.244 197.76 320.158 197.6C320.084 197.44 320.046 197.264 320.046 197.072C320.046 196.763 320.153 196.501 320.366 196.288C320.58 196.075 320.841 195.968 321.15 195.968ZM331.164 186.784C331.9 186.784 332.53 186.891 333.052 187.104C333.575 187.307 334.082 187.627 334.572 188.064L333.74 188.992C333.324 188.661 332.914 188.421 332.508 188.272C332.114 188.112 331.687 188.032 331.228 188.032C330.652 188.032 330.178 188.165 329.804 188.432C329.431 188.699 329.244 189.088 329.244 189.6C329.244 189.92 329.308 190.192 329.436 190.416C329.564 190.629 329.799 190.827 330.14 191.008C330.492 191.189 330.999 191.381 331.66 191.584C332.354 191.797 332.93 192.027 333.388 192.272C333.847 192.517 334.215 192.859 334.492 193.296C334.78 193.723 334.924 194.267 334.924 194.928C334.924 195.568 334.764 196.133 334.444 196.624C334.135 197.115 333.682 197.499 333.084 197.776C332.498 198.053 331.799 198.192 330.988 198.192C329.463 198.192 328.215 197.717 327.244 196.768L328.076 195.84C328.524 196.203 328.978 196.48 329.436 196.672C329.895 196.853 330.407 196.944 330.972 196.944C331.655 196.944 332.22 196.779 332.668 196.448C333.116 196.107 333.34 195.616 333.34 194.976C333.34 194.613 333.271 194.315 333.132 194.08C332.994 193.835 332.754 193.616 332.412 193.424C332.082 193.232 331.596 193.04 330.956 192.848C329.826 192.507 328.999 192.096 328.476 191.616C327.954 191.136 327.692 190.485 327.692 189.664C327.692 189.109 327.836 188.613 328.124 188.176C328.423 187.739 328.834 187.397 329.356 187.152C329.89 186.907 330.492 186.784 331.164 186.784ZM340.779 186.784C341.44 186.784 341.995 186.869 342.443 187.04C342.902 187.211 343.366 187.488 343.835 187.872L343.003 188.848C342.331 188.304 341.622 188.032 340.875 188.032C339.958 188.032 339.216 188.384 338.651 189.088C338.096 189.792 337.819 190.923 337.819 192.48C337.819 193.995 338.096 195.115 338.651 195.84C339.206 196.555 339.942 196.912 340.859 196.912C341.328 196.912 341.739 196.832 342.091 196.672C342.443 196.512 342.816 196.288 343.211 196L343.963 196.96C343.622 197.312 343.184 197.605 342.651 197.84C342.118 198.075 341.504 198.192 340.811 198.192C339.915 198.192 339.115 197.973 338.411 197.536C337.718 197.088 337.174 196.437 336.779 195.584C336.395 194.72 336.203 193.685 336.203 192.48C336.203 191.275 336.406 190.245 336.811 189.392C337.216 188.528 337.766 187.877 338.459 187.44C339.152 187.003 339.926 186.784 340.779 186.784ZM348.2 186.784C348.936 186.784 349.565 186.891 350.088 187.104C350.611 187.307 351.117 187.627 351.608 188.064L350.776 188.992C350.36 188.661 349.949 188.421 349.544 188.272C349.149 188.112 348.723 188.032 348.264 188.032C347.688 188.032 347.213 188.165 346.84 188.432C346.467 188.699 346.28 189.088 346.28 189.6C346.28 189.92 346.344 190.192 346.472 190.416C346.6 190.629 346.835 190.827 347.176 191.008C347.528 191.189 348.035 191.381 348.696 191.584C349.389 191.797 349.965 192.027 350.424 192.272C350.883 192.517 351.251 192.859 351.528 193.296C351.816 193.723 351.96 194.267 351.96 194.928C351.96 195.568 351.8 196.133 351.48 196.624C351.171 197.115 350.717 197.499 350.12 197.776C349.533 198.053 348.835 198.192 348.024 198.192C346.499 198.192 345.251 197.717 344.28 196.768L345.112 195.84C345.56 196.203 346.013 196.48 346.472 196.672C346.931 196.853 347.443 196.944 348.008 196.944C348.691 196.944 349.256 196.779 349.704 196.448C350.152 196.107 350.376 195.616 350.376 194.976C350.376 194.613 350.307 194.315 350.168 194.08C350.029 193.835 349.789 193.616 349.448 193.424C349.117 193.232 348.632 193.04 347.992 192.848C346.861 192.507 346.035 192.096 345.512 191.616C344.989 191.136 344.728 190.485 344.728 189.664C344.728 189.109 344.872 188.613 345.16 188.176C345.459 187.739 345.869 187.397 346.392 187.152C346.925 186.907 347.528 186.784 348.2 186.784ZM356.491 186.784C357.227 186.784 357.857 186.891 358.379 187.104C358.902 187.307 359.409 187.627 359.899 188.064L359.067 188.992C358.651 188.661 358.241 188.421 357.835 188.272C357.441 188.112 357.014 188.032 356.555 188.032C355.979 188.032 355.505 188.165 355.131 188.432C354.758 188.699 354.571 189.088 354.571 189.6C354.571 189.92 354.635 190.192 354.763 190.416C354.891 190.629 355.126 190.827 355.467 191.008C355.819 191.189 356.326 191.381 356.987 191.584C357.681 191.797 358.257 192.027 358.715 192.272C359.174 192.517 359.542 192.859 359.819 193.296C360.107 193.723 360.251 194.267 360.251 194.928C360.251 195.568 360.091 196.133 359.771 196.624C359.462 197.115 359.009 197.499 358.411 197.776C357.825 198.053 357.126 198.192 356.315 198.192C354.79 198.192 353.542 197.717 352.571 196.768L353.403 195.84C353.851 196.203 354.305 196.48 354.763 196.672C355.222 196.853 355.734 196.944 356.299 196.944C356.982 196.944 357.547 196.779 357.995 196.448C358.443 196.107 358.667 195.616 358.667 194.976C358.667 194.613 358.598 194.315 358.459 194.08C358.321 193.835 358.081 193.616 357.739 193.424C357.409 193.232 356.923 193.04 356.283 192.848C355.153 192.507 354.326 192.096 353.803 191.616C353.281 191.136 353.019 190.485 353.019 189.664C353.019 189.109 353.163 188.613 353.451 188.176C353.75 187.739 354.161 187.397 354.683 187.152C355.217 186.907 355.819 186.784 356.491 186.784ZM362.554 195.968C362.874 195.968 363.141 196.075 363.354 196.288C363.567 196.501 363.674 196.763 363.674 197.072C363.674 197.403 363.578 197.781 363.386 198.208L362.314 200.656H361.258L361.898 198C361.759 197.893 361.647 197.76 361.562 197.6C361.487 197.44 361.45 197.264 361.45 197.072C361.45 196.763 361.557 196.501 361.77 196.288C361.983 196.075 362.245 195.968 362.554 195.968ZM373.08 193.328H371.368V198H369.848V186.976H372.744C374.12 186.976 375.16 187.237 375.864 187.76C376.579 188.283 376.936 189.061 376.936 190.096C376.936 190.864 376.739 191.488 376.344 191.968C375.949 192.448 375.352 192.811 374.552 193.056L377.528 198H375.72L373.08 193.328ZM372.904 192.16C373.704 192.16 374.307 192 374.712 191.68C375.117 191.349 375.32 190.821 375.32 190.096C375.32 189.413 375.112 188.923 374.696 188.624C374.291 188.315 373.635 188.16 372.728 188.16H371.368V192.16H372.904ZM385.264 186.976L385.088 188.192H380.816V191.792H384.528V193.008H380.816V196.784H385.392V198H379.296V186.976H385.264ZM390.182 186.784C390.918 186.784 391.547 186.891 392.07 187.104C392.593 187.307 393.099 187.627 393.59 188.064L392.758 188.992C392.342 188.661 391.931 188.421 391.526 188.272C391.131 188.112 390.705 188.032 390.246 188.032C389.67 188.032 389.195 188.165 388.822 188.432C388.449 188.699 388.262 189.088 388.262 189.6C388.262 189.92 388.326 190.192 388.454 190.416C388.582 190.629 388.817 190.827 389.158 191.008C389.51 191.189 390.017 191.381 390.678 191.584C391.371 191.797 391.947 192.027 392.406 192.272C392.865 192.517 393.233 192.859 393.51 193.296C393.798 193.723 393.942 194.267 393.942 194.928C393.942 195.568 393.782 196.133 393.462 196.624C393.153 197.115 392.699 197.499 392.102 197.776C391.515 198.053 390.817 198.192 390.006 198.192C388.481 198.192 387.233 197.717 386.262 196.768L387.094 195.84C387.542 196.203 387.995 196.48 388.454 196.672C388.913 196.853 389.425 196.944 389.99 196.944C390.673 196.944 391.238 196.779 391.686 196.448C392.134 196.107 392.358 195.616 392.358 194.976C392.358 194.613 392.289 194.315 392.15 194.08C392.011 193.835 391.771 193.616 391.43 193.424C391.099 193.232 390.614 193.04 389.974 192.848C388.843 192.507 388.017 192.096 387.494 191.616C386.971 191.136 386.71 190.485 386.71 189.664C386.71 189.109 386.854 188.613 387.142 188.176C387.441 187.739 387.851 187.397 388.374 187.152C388.907 186.907 389.51 186.784 390.182 186.784ZM402.093 186.976L401.933 188.272H398.877V198H397.357V188.272H394.221V186.976H402.093ZM413.473 198L412.641 195.232H408.465L407.633 198H406.097L409.633 186.976H411.553L415.073 198H413.473ZM408.833 194H412.273L410.561 188.24L408.833 194ZM419.429 186.976C420.794 186.976 421.85 187.264 422.597 187.84C423.344 188.405 423.717 189.253 423.717 190.384C423.717 191.589 423.328 192.485 422.549 193.072C421.77 193.659 420.736 193.952 419.445 193.952H418.053V198H416.533V186.976H419.429ZM419.381 192.752C420.266 192.752 420.938 192.581 421.397 192.24C421.866 191.899 422.101 191.285 422.101 190.4C422.101 189.611 421.866 189.04 421.397 188.688C420.938 188.336 420.277 188.16 419.413 188.16H418.053V192.752H419.381ZM427.11 186.976V198H425.59V186.976H427.11ZM436.575 184.944V199.856H433.263V198.64H435.183V186.176H433.263V184.944H436.575ZM439.283 195.968C439.603 195.968 439.87 196.075 440.083 196.288C440.297 196.501 440.403 196.763 440.403 197.072C440.403 197.403 440.307 197.781 440.115 198.208L439.043 200.656H437.987L438.627 198C438.489 197.893 438.377 197.76 438.291 197.6C438.217 197.44 438.179 197.264 438.179 197.072C438.179 196.763 438.286 196.501 438.499 196.288C438.713 196.075 438.974 195.968 439.283 195.968ZM439.283 190.08C439.603 190.08 439.87 190.187 440.083 190.4C440.297 190.613 440.403 190.875 440.403 191.184C440.403 191.493 440.297 191.76 440.083 191.984C439.87 192.197 439.603 192.304 439.283 192.304C438.974 192.304 438.713 192.197 438.499 191.984C438.286 191.76 438.179 191.493 438.179 191.184C438.179 190.875 438.286 190.613 438.499 190.4C438.713 190.187 438.974 190.08 439.283 190.08ZM106.72 220.624C107.787 220.624 108.539 220.811 108.976 221.184C109.413 221.547 109.632 222.155 109.632 223.008V226.56C109.632 227.008 109.712 227.328 109.872 227.52C110.043 227.712 110.336 227.808 110.752 227.808V229.024C110.336 229.024 110.043 229.115 109.872 229.296C109.712 229.477 109.632 229.792 109.632 230.24V233.792C109.632 234.645 109.413 235.253 108.976 235.616C108.539 235.989 107.787 236.176 106.72 236.176V235.04C107.264 235.04 107.653 234.955 107.888 234.784C108.123 234.624 108.24 234.347 108.24 233.952V230.128C108.24 229.584 108.331 229.2 108.512 228.976C108.704 228.752 109.013 228.565 109.44 228.416C109.024 228.277 108.72 228.091 108.528 227.856C108.336 227.611 108.24 227.216 108.24 226.672V222.848C108.24 222.453 108.123 222.176 107.888 222.016C107.653 221.845 107.264 221.76 106.72 221.76V220.624Z" fill="white"/>
<path d="M141.118 171.568L139.198 180H137.198L135.726 172.896L134.206 180H132.254L130.286 171.568H131.758L133.278 178.976L134.942 171.568H136.59L138.174 178.976L139.71 171.568H141.118ZM145.883 171.376C147.067 171.376 147.984 171.771 148.635 172.56C149.296 173.349 149.627 174.421 149.627 175.776C149.627 176.651 149.478 177.424 149.179 178.096C148.88 178.757 148.448 179.275 147.883 179.648C147.318 180.011 146.646 180.192 145.867 180.192C144.683 180.192 143.76 179.797 143.099 179.008C142.438 178.219 142.107 177.147 142.107 175.792C142.107 174.917 142.256 174.149 142.555 173.488C142.854 172.816 143.286 172.299 143.851 171.936C144.416 171.563 145.094 171.376 145.883 171.376ZM145.883 172.56C144.422 172.56 143.691 173.637 143.691 175.792C143.691 177.936 144.416 179.008 145.867 179.008C147.318 179.008 148.043 177.931 148.043 175.776C148.043 173.632 147.323 172.56 145.883 172.56ZM155.483 171.376C155.781 171.376 156.059 171.408 156.315 171.472L156.043 172.912C155.787 172.848 155.541 172.816 155.307 172.816C154.784 172.816 154.363 173.008 154.043 173.392C153.723 173.776 153.472 174.373 153.291 175.184V180H151.819V171.568H153.083L153.227 173.28C153.451 172.651 153.755 172.176 154.139 171.856C154.523 171.536 154.971 171.376 155.483 171.376ZM159.223 168V180H157.751V168.176L159.223 168ZM164.071 171.568L160.967 175.296L164.423 180H162.663L159.319 175.392L162.423 171.568H164.071ZM167.908 171.376C168.484 171.376 169.001 171.456 169.46 171.616C169.919 171.776 170.356 172.016 170.772 172.336L170.148 173.264C169.764 173.019 169.396 172.837 169.044 172.72C168.703 172.603 168.34 172.544 167.956 172.544C167.476 172.544 167.097 172.645 166.82 172.848C166.543 173.04 166.404 173.307 166.404 173.648C166.404 173.989 166.532 174.256 166.788 174.448C167.055 174.64 167.529 174.827 168.212 175.008C169.151 175.243 169.849 175.563 170.308 175.968C170.777 176.373 171.012 176.928 171.012 177.632C171.012 178.464 170.687 179.099 170.036 179.536C169.396 179.973 168.612 180.192 167.684 180.192C166.404 180.192 165.343 179.824 164.5 179.088L165.284 178.192C165.999 178.736 166.788 179.008 167.652 179.008C168.207 179.008 168.644 178.896 168.964 178.672C169.295 178.437 169.46 178.123 169.46 177.728C169.46 177.44 169.401 177.211 169.284 177.04C169.167 176.859 168.964 176.704 168.676 176.576C168.388 176.437 167.967 176.293 167.412 176.144C166.516 175.909 165.865 175.595 165.46 175.2C165.065 174.805 164.868 174.304 164.868 173.696C164.868 173.259 164.996 172.864 165.252 172.512C165.519 172.149 165.881 171.872 166.34 171.68C166.809 171.477 167.332 171.376 167.908 171.376ZM184.145 168.976L181.905 180H179.953L177.921 170.768L175.873 180H173.969L171.729 168.976H173.217L174.993 178.672L177.121 168.976H178.737L180.913 178.672L182.753 168.976H184.145ZM187.3 171.568V180H185.828V171.568H187.3ZM186.548 167.52C186.857 167.52 187.108 167.616 187.3 167.808C187.492 168 187.588 168.24 187.588 168.528C187.588 168.816 187.492 169.056 187.3 169.248C187.108 169.429 186.857 169.52 186.548 169.52C186.249 169.52 186.004 169.429 185.812 169.248C185.62 169.056 185.524 168.816 185.524 168.528C185.524 168.24 185.62 168 185.812 167.808C186.004 167.616 186.249 167.52 186.548 167.52ZM194.359 179.616C193.804 180 193.175 180.192 192.471 180.192C191.756 180.192 191.196 179.989 190.791 179.584C190.396 179.168 190.199 178.571 190.199 177.792V172.704H188.727V171.568H190.199V169.664L191.671 169.488V171.568H193.671L193.511 172.704H191.671V177.728C191.671 178.165 191.746 178.485 191.895 178.688C192.055 178.88 192.316 178.976 192.679 178.976C193.01 178.976 193.383 178.864 193.799 178.64L194.359 179.616ZM199.612 171.376C200.38 171.376 200.978 171.605 201.404 172.064C201.842 172.523 202.06 173.152 202.06 173.952V180H200.588V174.16C200.588 173.563 200.471 173.141 200.236 172.896C200.012 172.651 199.682 172.528 199.244 172.528C198.807 172.528 198.418 172.656 198.076 172.912C197.735 173.168 197.415 173.531 197.116 174V180H195.644V168.192L197.116 168.032V172.736C197.778 171.829 198.61 171.376 199.612 171.376ZM205.163 177.968C205.483 177.968 205.75 178.075 205.963 178.288C206.177 178.501 206.283 178.763 206.283 179.072C206.283 179.381 206.177 179.648 205.963 179.872C205.75 180.085 205.483 180.192 205.163 180.192C204.854 180.192 204.593 180.085 204.379 179.872C204.166 179.648 204.059 179.381 204.059 179.072C204.059 178.763 204.166 178.501 204.379 178.288C204.593 178.075 204.854 177.968 205.163 177.968ZM205.163 172.08C205.483 172.08 205.75 172.187 205.963 172.4C206.177 172.613 206.283 172.875 206.283 173.184C206.283 173.493 206.177 173.76 205.963 173.984C205.75 174.197 205.483 174.304 205.163 174.304C204.854 174.304 204.593 174.197 204.379 173.984C204.166 173.76 204.059 173.493 204.059 173.184C204.059 172.875 204.166 172.613 204.379 172.4C204.593 172.187 204.854 172.08 205.163 172.08ZM138.286 189.952C137.966 190.059 137.614 190.128 137.23 190.16C136.846 190.192 136.377 190.208 135.822 190.208C136.814 190.656 137.31 191.365 137.31 192.336C137.31 193.179 137.022 193.867 136.446 194.4C135.87 194.933 135.086 195.2 134.094 195.2C133.71 195.2 133.353 195.147 133.022 195.04C132.894 195.125 132.793 195.243 132.718 195.392C132.644 195.531 132.606 195.675 132.606 195.824C132.606 196.283 132.974 196.512 133.71 196.512H135.054C135.62 196.512 136.121 196.613 136.558 196.816C136.996 197.019 137.332 197.296 137.566 197.648C137.812 198 137.934 198.4 137.934 198.848C137.934 199.669 137.598 200.299 136.926 200.736C136.254 201.184 135.273 201.408 133.982 201.408C133.076 201.408 132.356 201.312 131.822 201.12C131.3 200.939 130.926 200.661 130.702 200.288C130.478 199.915 130.366 199.435 130.366 198.848H131.694C131.694 199.189 131.758 199.456 131.886 199.648C132.014 199.851 132.244 200 132.574 200.096C132.905 200.203 133.374 200.256 133.982 200.256C134.868 200.256 135.497 200.144 135.87 199.92C136.254 199.707 136.446 199.381 136.446 198.944C136.446 198.549 136.297 198.251 135.998 198.048C135.7 197.845 135.284 197.744 134.75 197.744H133.422C132.708 197.744 132.164 197.595 131.79 197.296C131.428 196.987 131.246 196.603 131.246 196.144C131.246 195.867 131.326 195.6 131.486 195.344C131.646 195.088 131.876 194.859 132.174 194.656C131.684 194.4 131.321 194.085 131.086 193.712C130.862 193.328 130.75 192.864 130.75 192.32C130.75 191.755 130.889 191.248 131.166 190.8C131.454 190.352 131.844 190.005 132.334 189.76C132.836 189.504 133.39 189.376 133.998 189.376C134.66 189.387 135.214 189.365 135.662 189.312C136.11 189.248 136.478 189.168 136.766 189.072C137.065 188.965 137.428 188.816 137.854 188.624L138.286 189.952ZM133.998 190.432C133.444 190.432 133.012 190.608 132.702 190.96C132.404 191.301 132.254 191.755 132.254 192.32C132.254 192.896 132.409 193.36 132.718 193.712C133.028 194.053 133.465 194.224 134.03 194.224C134.606 194.224 135.044 194.059 135.342 193.728C135.652 193.387 135.806 192.912 135.806 192.304C135.806 191.056 135.204 190.432 133.998 190.432ZM142.477 189.376C143.661 189.376 144.578 189.771 145.229 190.56C145.89 191.349 146.221 192.421 146.221 193.776C146.221 194.651 146.071 195.424 145.773 196.096C145.474 196.757 145.042 197.275 144.477 197.648C143.911 198.011 143.239 198.192 142.461 198.192C141.277 198.192 140.354 197.797 139.693 197.008C139.031 196.219 138.701 195.147 138.701 193.792C138.701 192.917 138.85 192.149 139.149 191.488C139.447 190.816 139.879 190.299 140.445 189.936C141.01 189.563 141.687 189.376 142.477 189.376ZM142.477 190.56C141.015 190.56 140.285 191.637 140.285 193.792C140.285 195.936 141.01 197.008 142.461 197.008C143.911 197.008 144.637 195.931 144.637 193.776C144.637 191.632 143.917 190.56 142.477 190.56ZM151.581 189.376C152.765 189.376 153.682 189.771 154.333 190.56C154.994 191.349 155.325 192.421 155.325 193.776C155.325 194.651 155.175 195.424 154.877 196.096C154.578 196.757 154.146 197.275 153.581 197.648C153.015 198.011 152.343 198.192 151.565 198.192C150.381 198.192 149.458 197.797 148.797 197.008C148.135 196.219 147.805 195.147 147.805 193.792C147.805 192.917 147.954 192.149 148.253 191.488C148.551 190.816 148.983 190.299 149.549 189.936C150.114 189.563 150.791 189.376 151.581 189.376ZM151.581 190.56C150.119 190.56 149.389 191.637 149.389 193.792C149.389 195.936 150.114 197.008 151.565 197.008C153.015 197.008 153.741 195.931 153.741 193.776C153.741 191.632 153.021 190.56 151.581 190.56ZM164.044 186.176V198H162.748L162.604 196.832C162.327 197.259 161.98 197.595 161.564 197.84C161.148 198.075 160.684 198.192 160.172 198.192C159.17 198.192 158.386 197.797 157.82 197.008C157.266 196.219 156.988 195.157 156.988 193.824C156.988 192.96 157.122 192.192 157.388 191.52C157.655 190.848 158.039 190.325 158.54 189.952C159.042 189.568 159.628 189.376 160.3 189.376C161.164 189.376 161.922 189.723 162.572 190.416V186L164.044 186.176ZM160.492 197.024C160.94 197.024 161.324 196.923 161.644 196.72C161.964 196.507 162.274 196.192 162.572 195.776V191.648C162.295 191.285 161.996 191.013 161.676 190.832C161.367 190.64 161.015 190.544 160.62 190.544C159.97 190.544 159.463 190.816 159.1 191.36C158.748 191.904 158.572 192.715 158.572 193.792C158.572 194.88 158.738 195.691 159.068 196.224C159.399 196.757 159.874 197.024 160.492 197.024ZM172.791 198L171.959 195.232H167.783L166.951 198H165.415L168.951 186.976H170.871L174.391 198H172.791ZM168.151 194H171.591L169.879 188.24L168.151 194ZM180.027 197.616C179.472 198 178.843 198.192 178.139 198.192C177.424 198.192 176.864 197.989 176.459 197.584C176.064 197.168 175.867 196.571 175.867 195.792V190.704H174.395V189.568H175.867V187.664L177.339 187.488V189.568H179.339L179.179 190.704H177.339V195.728C177.339 196.165 177.413 196.485 177.563 196.688C177.723 196.88 177.984 196.976 178.347 196.976C178.677 196.976 179.051 196.864 179.467 196.64L180.027 197.616ZM181.758 195.968C182.078 195.968 182.345 196.075 182.558 196.288C182.772 196.501 182.878 196.763 182.878 197.072C182.878 197.381 182.772 197.648 182.558 197.872C182.345 198.085 182.078 198.192 181.758 198.192C181.449 198.192 181.188 198.085 180.974 197.872C180.761 197.648 180.654 197.381 180.654 197.072C180.654 196.763 180.761 196.501 180.974 196.288C181.188 196.075 181.449 195.968 181.758 195.968ZM181.758 190.08C182.078 190.08 182.345 190.187 182.558 190.4C182.772 190.613 182.878 190.875 182.878 191.184C182.878 191.493 182.772 191.76 182.558 191.984C182.345 192.197 182.078 192.304 181.758 192.304C181.449 192.304 181.188 192.197 180.974 191.984C180.761 191.76 180.654 191.493 180.654 191.184C180.654 190.875 180.761 190.613 180.974 190.4C181.188 190.187 181.449 190.08 181.758 190.08Z" fill="#0EE6B7"/>
<path d="M107.904 271.968C108.224 271.968 108.491 272.075 108.704 272.288C108.917 272.501 109.024 272.763 109.024 273.072C109.024 273.381 108.917 273.648 108.704 273.872C108.491 274.085 108.224 274.192 107.904 274.192C107.595 274.192 107.333 274.085 107.12 273.872C106.907 273.648 106.8 273.381 106.8 273.072C106.8 272.763 106.907 272.501 107.12 272.288C107.333 272.075 107.595 271.968 107.904 271.968ZM117.172 262.976L116.996 264.192H112.724V267.792H116.436V269.008H112.724V272.784H117.3V274H111.204V262.976H117.172ZM125.662 262.176V274H124.366L124.222 272.832C123.944 273.259 123.598 273.595 123.182 273.84C122.766 274.075 122.302 274.192 121.79 274.192C120.787 274.192 120.003 273.797 119.438 273.008C118.883 272.219 118.606 271.157 118.606 269.824C118.606 268.96 118.739 268.192 119.006 267.52C119.272 266.848 119.656 266.325 120.158 265.952C120.659 265.568 121.246 265.376 121.918 265.376C122.782 265.376 123.539 265.723 124.19 266.416V262L125.662 262.176ZM122.11 273.024C122.558 273.024 122.942 272.923 123.262 272.72C123.582 272.507 123.891 272.192 124.19 271.776V267.648C123.912 267.285 123.614 267.013 123.294 266.832C122.984 266.64 122.632 266.544 122.238 266.544C121.587 266.544 121.08 266.816 120.718 267.36C120.366 267.904 120.19 268.715 120.19 269.792C120.19 270.88 120.355 271.691 120.686 272.224C121.016 272.757 121.491 273.024 122.11 273.024ZM134.728 274H133.464L133.352 272.688C133.032 273.211 132.664 273.595 132.248 273.84C131.832 274.075 131.326 274.192 130.728 274.192C129.992 274.192 129.416 273.968 129 273.52C128.584 273.072 128.376 272.437 128.376 271.616V265.568H129.848V271.456C129.848 272.032 129.95 272.443 130.152 272.688C130.355 272.923 130.686 273.04 131.144 273.04C131.966 273.04 132.67 272.555 133.256 271.584V265.568H134.728V274ZM140.601 265.376C141.102 265.376 141.561 265.451 141.977 265.6C142.393 265.739 142.793 265.968 143.177 266.288L142.473 267.216C142.174 267.003 141.881 266.848 141.593 266.752C141.315 266.645 141.006 266.592 140.665 266.592C139.982 266.592 139.449 266.864 139.065 267.408C138.691 267.952 138.505 268.757 138.505 269.824C138.505 270.891 138.691 271.68 139.065 272.192C139.438 272.693 139.971 272.944 140.665 272.944C140.995 272.944 141.299 272.896 141.577 272.8C141.854 272.693 142.163 272.528 142.505 272.304L143.177 273.264C142.409 273.883 141.55 274.192 140.601 274.192C139.459 274.192 138.558 273.808 137.897 273.04C137.246 272.272 136.921 271.211 136.921 269.856C136.921 268.96 137.07 268.176 137.369 267.504C137.667 266.832 138.089 266.309 138.633 265.936C139.187 265.563 139.843 265.376 140.601 265.376ZM150.453 272.032C150.453 272.373 150.512 272.629 150.629 272.8C150.746 272.96 150.922 273.083 151.157 273.168L150.821 274.192C150.384 274.139 150.032 274.016 149.765 273.824C149.498 273.632 149.301 273.333 149.173 272.928C148.608 273.771 147.77 274.192 146.661 274.192C145.829 274.192 145.173 273.957 144.693 273.488C144.213 273.019 143.973 272.405 143.973 271.648C143.973 270.752 144.293 270.064 144.933 269.584C145.584 269.104 146.501 268.864 147.685 268.864H148.981V268.24C148.981 267.643 148.837 267.216 148.549 266.96C148.261 266.704 147.818 266.576 147.221 266.576C146.602 266.576 145.845 266.725 144.949 267.024L144.581 265.952C145.626 265.568 146.597 265.376 147.493 265.376C148.485 265.376 149.226 265.621 149.717 266.112C150.208 266.592 150.453 267.28 150.453 268.176V272.032ZM146.997 273.088C147.84 273.088 148.501 272.651 148.981 271.776V269.84H147.877C146.32 269.84 145.541 270.416 145.541 271.568C145.541 272.069 145.664 272.448 145.909 272.704C146.154 272.96 146.517 273.088 146.997 273.088ZM157.492 273.616C156.938 274 156.308 274.192 155.604 274.192C154.89 274.192 154.33 273.989 153.924 273.584C153.53 273.168 153.332 272.571 153.332 271.792V266.704H151.86V265.568H153.332V263.664L154.804 263.488V265.568H156.804L156.644 266.704H154.804V271.728C154.804 272.165 154.879 272.485 155.028 272.688C155.188 272.88 155.45 272.976 155.812 272.976C156.143 272.976 156.516 272.864 156.932 272.64L157.492 273.616ZM160.249 265.568V274H158.777V265.568H160.249ZM159.497 261.52C159.807 261.52 160.057 261.616 160.249 261.808C160.441 262 160.537 262.24 160.537 262.528C160.537 262.816 160.441 263.056 160.249 263.248C160.057 263.429 159.807 263.52 159.497 263.52C159.199 263.52 158.953 263.429 158.761 263.248C158.569 263.056 158.473 262.816 158.473 262.528C158.473 262.24 158.569 262 158.761 261.808C158.953 261.616 159.199 261.52 159.497 261.52ZM166.221 265.376C167.405 265.376 168.322 265.771 168.973 266.56C169.634 267.349 169.965 268.421 169.965 269.776C169.965 270.651 169.816 271.424 169.517 272.096C169.218 272.757 168.786 273.275 168.221 273.648C167.656 274.011 166.984 274.192 166.205 274.192C165.021 274.192 164.098 273.797 163.437 273.008C162.776 272.219 162.445 271.147 162.445 269.792C162.445 268.917 162.594 268.149 162.893 267.488C163.192 266.816 163.624 266.299 164.189 265.936C164.754 265.563 165.432 265.376 166.221 265.376ZM166.221 266.56C164.76 266.56 164.029 267.637 164.029 269.792C164.029 271.936 164.754 273.008 166.205 273.008C167.656 273.008 168.381 271.931 168.381 269.776C168.381 267.632 167.661 266.56 166.221 266.56ZM176.125 265.376C176.893 265.376 177.49 265.605 177.917 266.064C178.354 266.523 178.573 267.152 178.573 267.952V274H177.101V268.16C177.101 267.563 176.989 267.141 176.765 266.896C176.541 266.651 176.21 266.528 175.773 266.528C175.325 266.528 174.93 266.656 174.589 266.912C174.248 267.168 173.928 267.536 173.629 268.016V274H172.157V265.568H173.421L173.549 266.816C173.848 266.368 174.216 266.016 174.653 265.76C175.101 265.504 175.592 265.376 176.125 265.376Z" fill="#7000FF"/>
<path d="M188.198 261.76C187.654 261.76 187.265 261.845 187.03 262.016C186.796 262.176 186.678 262.453 186.678 262.848V266.672C186.678 267.216 186.582 267.611 186.39 267.856C186.198 268.091 185.894 268.277 185.478 268.416C185.905 268.565 186.209 268.752 186.39 268.976C186.582 269.2 186.678 269.584 186.678 270.128V273.952C186.678 274.347 186.796 274.624 187.03 274.784C187.265 274.955 187.654 275.04 188.198 275.04V276.176C187.132 276.176 186.38 275.989 185.942 275.616C185.505 275.253 185.286 274.645 185.286 273.792V270.24C185.286 269.792 185.201 269.477 185.03 269.296C184.87 269.115 184.582 269.024 184.166 269.024V267.808C184.582 267.808 184.87 267.712 185.03 267.52C185.201 267.328 185.286 267.008 185.286 266.56V263.008C185.286 262.155 185.505 261.547 185.942 261.184C186.38 260.811 187.132 260.624 188.198 260.624V261.76ZM237.386 296.944V298.176H235.466V310.64H237.386V311.856H234.074V296.944H237.386ZM245.304 308.464C245.304 309.552 245.064 310.368 244.584 310.912C244.115 311.456 243.395 311.883 242.424 312.192L242.024 311.088C242.515 310.896 242.883 310.688 243.128 310.464C243.374 310.24 243.544 309.968 243.64 309.648C243.736 309.328 243.784 308.912 243.784 308.4V298.976H245.304V308.464ZM250.899 298.784C251.635 298.784 252.265 298.891 252.787 299.104C253.31 299.307 253.817 299.627 254.307 300.064L253.475 300.992C253.059 300.661 252.649 300.421 252.243 300.272C251.849 300.112 251.422 300.032 250.963 300.032C250.387 300.032 249.913 300.165 249.539 300.432C249.166 300.699 248.979 301.088 248.979 301.6C248.979 301.92 249.043 302.192 249.171 302.416C249.299 302.629 249.534 302.827 249.875 303.008C250.227 303.189 250.734 303.381 251.395 303.584C252.089 303.797 252.665 304.027 253.123 304.272C253.582 304.517 253.95 304.859 254.227 305.296C254.515 305.723 254.659 306.267 254.659 306.928C254.659 307.568 254.499 308.133 254.179 308.624C253.87 309.115 253.417 309.499 252.819 309.776C252.233 310.053 251.534 310.192 250.723 310.192C249.198 310.192 247.95 309.717 246.979 308.768L247.811 307.84C248.259 308.203 248.713 308.48 249.171 308.672C249.63 308.853 250.142 308.944 250.707 308.944C251.39 308.944 251.955 308.779 252.403 308.448C252.851 308.107 253.075 307.616 253.075 306.976C253.075 306.613 253.006 306.315 252.867 306.08C252.729 305.835 252.489 305.616 252.147 305.424C251.817 305.232 251.331 305.04 250.691 304.848C249.561 304.507 248.734 304.096 248.211 303.616C247.689 303.136 247.427 302.485 247.427 301.664C247.427 301.109 247.571 300.613 247.859 300.176C248.158 299.739 248.569 299.397 249.091 299.152C249.625 298.907 250.227 298.784 250.899 298.784ZM264.509 298.784C265.17 298.784 265.725 298.869 266.173 299.04C266.631 299.211 267.095 299.488 267.565 299.872L266.733 300.848C266.061 300.304 265.351 300.032 264.605 300.032C263.687 300.032 262.946 300.384 262.381 301.088C261.826 301.792 261.549 302.923 261.549 304.48C261.549 305.995 261.826 307.115 262.381 307.84C262.935 308.555 263.671 308.912 264.589 308.912C265.058 308.912 265.469 308.832 265.821 308.672C266.173 308.512 266.546 308.288 266.941 308L267.693 308.96C267.351 309.312 266.914 309.605 266.381 309.84C265.847 310.075 265.234 310.192 264.541 310.192C263.645 310.192 262.845 309.973 262.141 309.536C261.447 309.088 260.903 308.437 260.509 307.584C260.125 306.72 259.933 305.685 259.933 304.48C259.933 303.275 260.135 302.245 260.541 301.392C260.946 300.528 261.495 299.877 262.189 299.44C262.882 299.003 263.655 298.784 264.509 298.784ZM272.141 301.376C273.325 301.376 274.242 301.771 274.893 302.56C275.554 303.349 275.885 304.421 275.885 305.776C275.885 306.651 275.736 307.424 275.437 308.096C275.138 308.757 274.706 309.275 274.141 309.648C273.576 310.011 272.904 310.192 272.125 310.192C270.941 310.192 270.018 309.797 269.357 309.008C268.696 308.219 268.365 307.147 268.365 305.792C268.365 304.917 268.514 304.149 268.813 303.488C269.112 302.816 269.544 302.299 270.109 301.936C270.674 301.563 271.352 301.376 272.141 301.376ZM272.141 302.56C270.68 302.56 269.949 303.637 269.949 305.792C269.949 307.936 270.674 309.008 272.125 309.008C273.576 309.008 274.301 307.931 274.301 305.776C274.301 303.632 273.581 302.56 272.141 302.56ZM284.349 310H283.085L282.973 308.688C282.653 309.211 282.285 309.595 281.869 309.84C281.453 310.075 280.946 310.192 280.349 310.192C279.613 310.192 279.037 309.968 278.621 309.52C278.205 309.072 277.997 308.437 277.997 307.616V301.568H279.469V307.456C279.469 308.032 279.57 308.443 279.773 308.688C279.976 308.923 280.306 309.04 280.765 309.04C281.586 309.04 282.29 308.555 282.877 307.584V301.568H284.349V310ZM290.813 301.376C291.112 301.376 291.389 301.408 291.645 301.472L291.373 302.912C291.117 302.848 290.872 302.816 290.637 302.816C290.115 302.816 289.693 303.008 289.373 303.392C289.053 303.776 288.803 304.373 288.621 305.184V310H287.149V301.568H288.413L288.557 303.28C288.781 302.651 289.085 302.176 289.469 301.856C289.853 301.536 290.301 301.376 290.813 301.376ZM295.135 301.376C295.711 301.376 296.228 301.456 296.687 301.616C297.146 301.776 297.583 302.016 297.999 302.336L297.375 303.264C296.991 303.019 296.623 302.837 296.271 302.72C295.93 302.603 295.567 302.544 295.183 302.544C294.703 302.544 294.324 302.645 294.047 302.848C293.77 303.04 293.631 303.307 293.631 303.648C293.631 303.989 293.759 304.256 294.015 304.448C294.282 304.64 294.756 304.827 295.439 305.008C296.378 305.243 297.076 305.563 297.535 305.968C298.004 306.373 298.239 306.928 298.239 307.632C298.239 308.464 297.914 309.099 297.263 309.536C296.623 309.973 295.839 310.192 294.911 310.192C293.631 310.192 292.57 309.824 291.727 309.088L292.511 308.192C293.226 308.736 294.015 309.008 294.879 309.008C295.434 309.008 295.871 308.896 296.191 308.672C296.522 308.437 296.687 308.123 296.687 307.728C296.687 307.44 296.628 307.211 296.511 307.04C296.394 306.859 296.191 306.704 295.903 306.576C295.615 306.437 295.194 306.293 294.639 306.144C293.743 305.909 293.092 305.595 292.687 305.2C292.292 304.805 292.095 304.304 292.095 303.696C292.095 303.259 292.223 302.864 292.479 302.512C292.746 302.149 293.108 301.872 293.567 301.68C294.036 301.477 294.559 301.376 295.135 301.376ZM306.444 305.536C306.444 305.781 306.433 306.032 306.412 306.288H301.036C301.1 307.216 301.334 307.899 301.74 308.336C302.145 308.773 302.668 308.992 303.308 308.992C303.713 308.992 304.086 308.933 304.428 308.816C304.769 308.699 305.126 308.512 305.5 308.256L306.14 309.136C305.244 309.84 304.262 310.192 303.196 310.192C302.022 310.192 301.105 309.808 300.444 309.04C299.793 308.272 299.468 307.216 299.468 305.872C299.468 304.997 299.606 304.224 299.884 303.552C300.172 302.869 300.577 302.336 301.1 301.952C301.633 301.568 302.257 301.376 302.972 301.376C304.092 301.376 304.95 301.744 305.548 302.48C306.145 303.216 306.444 304.235 306.444 305.536ZM304.988 305.104C304.988 304.272 304.822 303.637 304.492 303.2C304.161 302.763 303.665 302.544 303.004 302.544C301.798 302.544 301.142 303.429 301.036 305.2H304.988V305.104ZM308.782 307.968C309.102 307.968 309.369 308.075 309.582 308.288C309.795 308.501 309.902 308.763 309.902 309.072C309.902 309.403 309.806 309.781 309.614 310.208L308.542 312.656H307.486L308.126 310C307.987 309.893 307.875 309.76 307.79 309.6C307.715 309.44 307.678 309.264 307.678 309.072C307.678 308.763 307.785 308.501 307.998 308.288C308.211 308.075 308.473 307.968 308.782 307.968ZM323.276 298.976L319.756 310H318.124L314.572 298.976H316.204L318.972 308.352L321.74 298.976H323.276ZM330.606 310H329.342L329.23 308.688C328.91 309.211 328.542 309.595 328.126 309.84C327.71 310.075 327.204 310.192 326.606 310.192C325.87 310.192 325.294 309.968 324.878 309.52C324.462 309.072 324.254 308.437 324.254 307.616V301.568H325.726V307.456C325.726 308.032 325.828 308.443 326.03 308.688C326.233 308.923 326.564 309.04 327.022 309.04C327.844 309.04 328.548 308.555 329.134 307.584V301.568H330.606V310ZM339.775 305.536C339.775 305.781 339.764 306.032 339.743 306.288H334.367C334.431 307.216 334.666 307.899 335.071 308.336C335.476 308.773 335.999 308.992 336.639 308.992C337.044 308.992 337.418 308.933 337.759 308.816C338.1 308.699 338.458 308.512 338.831 308.256L339.471 309.136C338.575 309.84 337.594 310.192 336.527 310.192C335.354 310.192 334.436 309.808 333.775 309.04C333.124 308.272 332.799 307.216 332.799 305.872C332.799 304.997 332.938 304.224 333.215 303.552C333.503 302.869 333.908 302.336 334.431 301.952C334.964 301.568 335.588 301.376 336.303 301.376C337.423 301.376 338.282 301.744 338.879 302.48C339.476 303.216 339.775 304.235 339.775 305.536ZM338.319 305.104C338.319 304.272 338.154 303.637 337.823 303.2C337.492 302.763 336.996 302.544 336.335 302.544C335.13 302.544 334.474 303.429 334.367 305.2H338.319V305.104ZM348.472 296.944V311.856H345.16V310.64H347.08V298.176H345.16V296.944H348.472ZM351.18 307.968C351.5 307.968 351.767 308.075 351.98 308.288C352.194 308.501 352.3 308.763 352.3 309.072C352.3 309.403 352.204 309.781 352.012 310.208L350.94 312.656H349.884L350.524 310C350.386 309.893 350.274 309.76 350.188 309.6C350.114 309.44 350.076 309.264 350.076 309.072C350.076 308.763 350.183 308.501 350.396 308.288C350.61 308.075 350.871 307.968 351.18 307.968ZM351.18 302.08C351.5 302.08 351.767 302.187 351.98 302.4C352.194 302.613 352.3 302.875 352.3 303.184C352.3 303.493 352.194 303.76 351.98 303.984C351.767 304.197 351.5 304.304 351.18 304.304C350.871 304.304 350.61 304.197 350.396 303.984C350.183 303.76 350.076 303.493 350.076 303.184C350.076 302.875 350.183 302.613 350.396 302.4C350.61 302.187 350.871 302.08 351.18 302.08ZM213.204 314.944V316.176H211.284V328.64H213.204V329.856H209.892V314.944H213.204ZM225.522 328V322.832H220.882V328H219.362V316.976H220.882V321.584H225.522V316.976H227.042V328H225.522ZM236.509 316.976L236.349 318.272H233.293V328H231.773V318.272H228.637V316.976H236.509ZM247.567 328H246.095L245.711 323.024C245.551 321.072 245.46 319.573 245.439 318.528L243.055 326.752H241.631L239.119 318.512C239.119 319.845 239.049 321.387 238.911 323.136L238.543 328H237.103L238.015 316.976H240.063L242.383 324.992L244.591 316.976H246.655L247.567 328ZM251.444 316.976V326.672H255.972L255.796 328H249.924V316.976H251.444ZM261.132 315.088L262.38 315.376L258.684 329.664L257.42 329.36L261.132 315.088ZM268.956 316.784C269.617 316.784 270.172 316.869 270.62 317.04C271.079 317.211 271.543 317.488 272.012 317.872L271.18 318.848C270.508 318.304 269.799 318.032 269.052 318.032C268.135 318.032 267.393 318.384 266.828 319.088C266.273 319.792 265.996 320.923 265.996 322.48C265.996 323.995 266.273 325.115 266.828 325.84C267.383 326.555 268.119 326.912 269.036 326.912C269.505 326.912 269.916 326.832 270.268 326.672C270.62 326.512 270.993 326.288 271.388 326L272.14 326.96C271.799 327.312 271.361 327.605 270.828 327.84C270.295 328.075 269.681 328.192 268.988 328.192C268.092 328.192 267.292 327.973 266.588 327.536C265.895 327.088 265.351 326.437 264.956 325.584C264.572 324.72 264.38 323.685 264.38 322.48C264.38 321.275 264.583 320.245 264.988 319.392C265.393 318.528 265.943 317.877 266.636 317.44C267.329 317.003 268.103 316.784 268.956 316.784ZM276.377 316.784C277.113 316.784 277.742 316.891 278.265 317.104C278.788 317.307 279.294 317.627 279.785 318.064L278.953 318.992C278.537 318.661 278.126 318.421 277.721 318.272C277.326 318.112 276.9 318.032 276.441 318.032C275.865 318.032 275.39 318.165 275.017 318.432C274.644 318.699 274.457 319.088 274.457 319.6C274.457 319.92 274.521 320.192 274.649 320.416C274.777 320.629 275.012 320.827 275.353 321.008C275.705 321.189 276.212 321.381 276.873 321.584C277.566 321.797 278.142 322.027 278.601 322.272C279.06 322.517 279.428 322.859 279.705 323.296C279.993 323.723 280.137 324.267 280.137 324.928C280.137 325.568 279.977 326.133 279.657 326.624C279.348 327.115 278.894 327.499 278.297 327.776C277.71 328.053 277.012 328.192 276.201 328.192C274.676 328.192 273.428 327.717 272.457 326.768L273.289 325.84C273.737 326.203 274.19 326.48 274.649 326.672C275.108 326.853 275.62 326.944 276.185 326.944C276.868 326.944 277.433 326.779 277.881 326.448C278.329 326.107 278.553 325.616 278.553 324.976C278.553 324.613 278.484 324.315 278.345 324.08C278.206 323.835 277.966 323.616 277.625 323.424C277.294 323.232 276.809 323.04 276.169 322.848C275.038 322.507 274.212 322.096 273.689 321.616C273.166 321.136 272.905 320.485 272.905 319.664C272.905 319.109 273.049 318.613 273.337 318.176C273.636 317.739 274.046 317.397 274.569 317.152C275.102 316.907 275.705 316.784 276.377 316.784ZM284.668 316.784C285.404 316.784 286.033 316.891 286.556 317.104C287.079 317.307 287.585 317.627 288.076 318.064L287.244 318.992C286.828 318.661 286.417 318.421 286.012 318.272C285.617 318.112 285.191 318.032 284.732 318.032C284.156 318.032 283.681 318.165 283.308 318.432C282.935 318.699 282.748 319.088 282.748 319.6C282.748 319.92 282.812 320.192 282.94 320.416C283.068 320.629 283.303 320.827 283.644 321.008C283.996 321.189 284.503 321.381 285.164 321.584C285.857 321.797 286.433 322.027 286.892 322.272C287.351 322.517 287.719 322.859 287.996 323.296C288.284 323.723 288.428 324.267 288.428 324.928C288.428 325.568 288.268 326.133 287.948 326.624C287.639 327.115 287.185 327.499 286.588 327.776C286.001 328.053 285.303 328.192 284.492 328.192C282.967 328.192 281.719 327.717 280.748 326.768L281.58 325.84C282.028 326.203 282.481 326.48 282.94 326.672C283.399 326.853 283.911 326.944 284.476 326.944C285.159 326.944 285.724 326.779 286.172 326.448C286.62 326.107 286.844 325.616 286.844 324.976C286.844 324.613 286.775 324.315 286.636 324.08C286.497 323.835 286.257 323.616 285.916 323.424C285.585 323.232 285.1 323.04 284.46 322.848C283.329 322.507 282.503 322.096 281.98 321.616C281.457 321.136 281.196 320.485 281.196 319.664C281.196 319.109 281.34 318.613 281.628 318.176C281.927 317.739 282.337 317.397 282.86 317.152C283.393 316.907 283.996 316.784 284.668 316.784ZM298.277 316.784C298.939 316.784 299.493 316.869 299.941 317.04C300.4 317.211 300.864 317.488 301.333 317.872L300.501 318.848C299.829 318.304 299.12 318.032 298.373 318.032C297.456 318.032 296.715 318.384 296.149 319.088C295.595 319.792 295.317 320.923 295.317 322.48C295.317 323.995 295.595 325.115 296.149 325.84C296.704 326.555 297.44 326.912 298.357 326.912C298.827 326.912 299.237 326.832 299.589 326.672C299.941 326.512 300.315 326.288 300.709 326L301.461 326.96C301.12 327.312 300.683 327.605 300.149 327.84C299.616 328.075 299.003 328.192 298.309 328.192C297.413 328.192 296.613 327.973 295.909 327.536C295.216 327.088 294.672 326.437 294.277 325.584C293.893 324.72 293.701 323.685 293.701 322.48C293.701 321.275 293.904 320.245 294.309 319.392C294.715 318.528 295.264 317.877 295.957 317.44C296.651 317.003 297.424 316.784 298.277 316.784ZM305.91 319.376C307.094 319.376 308.011 319.771 308.662 320.56C309.323 321.349 309.654 322.421 309.654 323.776C309.654 324.651 309.505 325.424 309.206 326.096C308.907 326.757 308.475 327.275 307.91 327.648C307.345 328.011 306.673 328.192 305.894 328.192C304.71 328.192 303.787 327.797 303.126 327.008C302.465 326.219 302.134 325.147 302.134 323.792C302.134 322.917 302.283 322.149 302.582 321.488C302.881 320.816 303.313 320.299 303.878 319.936C304.443 319.563 305.121 319.376 305.91 319.376ZM305.91 320.56C304.449 320.56 303.718 321.637 303.718 323.792C303.718 325.936 304.443 327.008 305.894 327.008C307.345 327.008 308.07 325.931 308.07 323.776C308.07 321.632 307.35 320.56 305.91 320.56ZM318.118 328H316.854L316.742 326.688C316.422 327.211 316.054 327.595 315.638 327.84C315.222 328.075 314.715 328.192 314.118 328.192C313.382 328.192 312.806 327.968 312.39 327.52C311.974 327.072 311.766 326.437 311.766 325.616V319.568H313.238V325.456C313.238 326.032 313.339 326.443 313.542 326.688C313.744 326.923 314.075 327.04 314.534 327.04C315.355 327.04 316.059 326.555 316.646 325.584V319.568H318.118V328ZM324.582 319.376C324.881 319.376 325.158 319.408 325.414 319.472L325.142 320.912C324.886 320.848 324.641 320.816 324.406 320.816C323.883 320.816 323.462 321.008 323.142 321.392C322.822 321.776 322.571 322.373 322.39 323.184V328H320.918V319.568H322.182L322.326 321.28C322.55 320.651 322.854 320.176 323.238 319.856C323.622 319.536 324.07 319.376 324.582 319.376ZM328.904 319.376C329.48 319.376 329.997 319.456 330.456 319.616C330.914 319.776 331.352 320.016 331.768 320.336L331.144 321.264C330.76 321.019 330.392 320.837 330.04 320.72C329.698 320.603 329.336 320.544 328.952 320.544C328.472 320.544 328.093 320.645 327.816 320.848C327.538 321.04 327.4 321.307 327.4 321.648C327.4 321.989 327.528 322.256 327.784 322.448C328.05 322.64 328.525 322.827 329.208 323.008C330.146 323.243 330.845 323.563 331.304 323.968C331.773 324.373 332.008 324.928 332.008 325.632C332.008 326.464 331.682 327.099 331.032 327.536C330.392 327.973 329.608 328.192 328.68 328.192C327.4 328.192 326.338 327.824 325.496 327.088L326.28 326.192C326.994 326.736 327.784 327.008 328.648 327.008C329.202 327.008 329.64 326.896 329.96 326.672C330.29 326.437 330.456 326.123 330.456 325.728C330.456 325.44 330.397 325.211 330.28 325.04C330.162 324.859 329.96 324.704 329.672 324.576C329.384 324.437 328.962 324.293 328.408 324.144C327.512 323.909 326.861 323.595 326.456 323.2C326.061 322.805 325.864 322.304 325.864 321.696C325.864 321.259 325.992 320.864 326.248 320.512C326.514 320.149 326.877 319.872 327.336 319.68C327.805 319.477 328.328 319.376 328.904 319.376ZM340.212 323.536C340.212 323.781 340.202 324.032 340.18 324.288H334.804C334.868 325.216 335.103 325.899 335.508 326.336C335.914 326.773 336.436 326.992 337.076 326.992C337.482 326.992 337.855 326.933 338.196 326.816C338.538 326.699 338.895 326.512 339.268 326.256L339.908 327.136C339.012 327.84 338.031 328.192 336.964 328.192C335.791 328.192 334.874 327.808 334.212 327.04C333.562 326.272 333.236 325.216 333.236 323.872C333.236 322.997 333.375 322.224 333.652 321.552C333.94 320.869 334.346 320.336 334.868 319.952C335.402 319.568 336.026 319.376 336.74 319.376C337.86 319.376 338.719 319.744 339.316 320.48C339.914 321.216 340.212 322.235 340.212 323.536ZM338.756 323.104C338.756 322.272 338.591 321.637 338.26 321.2C337.93 320.763 337.434 320.544 336.772 320.544C335.567 320.544 334.911 321.429 334.804 323.2H338.756V323.104ZM344.611 319.376C345.187 319.376 345.704 319.456 346.163 319.616C346.622 319.776 347.059 320.016 347.475 320.336L346.851 321.264C346.467 321.019 346.099 320.837 345.747 320.72C345.406 320.603 345.043 320.544 344.659 320.544C344.179 320.544 343.8 320.645 343.523 320.848C343.246 321.04 343.107 321.307 343.107 321.648C343.107 321.989 343.235 322.256 343.491 322.448C343.758 322.64 344.232 322.827 344.915 323.008C345.854 323.243 346.552 323.563 347.011 323.968C347.48 324.373 347.715 324.928 347.715 325.632C347.715 326.464 347.39 327.099 346.739 327.536C346.099 327.973 345.315 328.192 344.387 328.192C343.107 328.192 342.046 327.824 341.203 327.088L341.987 326.192C342.702 326.736 343.491 327.008 344.355 327.008C344.91 327.008 345.347 326.896 345.667 326.672C345.998 326.437 346.163 326.123 346.163 325.728C346.163 325.44 346.104 325.211 345.987 325.04C345.87 324.859 345.667 324.704 345.379 324.576C345.091 324.437 344.67 324.293 344.115 324.144C343.219 323.909 342.568 323.595 342.163 323.2C341.768 322.805 341.571 322.304 341.571 321.696C341.571 321.259 341.699 320.864 341.955 320.512C342.222 320.149 342.584 319.872 343.043 319.68C343.512 319.477 344.035 319.376 344.611 319.376ZM356.138 314.944V329.856H352.826V328.64H354.746V316.176H352.826V314.944H356.138ZM358.847 325.968C359.167 325.968 359.433 326.075 359.647 326.288C359.86 326.501 359.967 326.763 359.967 327.072C359.967 327.403 359.871 327.781 359.679 328.208L358.607 330.656H357.551L358.191 328C358.052 327.893 357.94 327.76 357.855 327.6C357.78 327.44 357.743 327.264 357.743 327.072C357.743 326.763 357.849 326.501 358.063 326.288C358.276 326.075 358.537 325.968 358.847 325.968ZM358.847 320.08C359.167 320.08 359.433 320.187 359.647 320.4C359.86 320.613 359.967 320.875 359.967 321.184C359.967 321.493 359.86 321.76 359.647 321.984C359.433 322.197 359.167 322.304 358.847 322.304C358.537 322.304 358.276 322.197 358.063 321.984C357.849 321.76 357.743 321.493 357.743 321.184C357.743 320.875 357.849 320.613 358.063 320.4C358.276 320.187 358.537 320.08 358.847 320.08ZM106.72 350.624C107.787 350.624 108.539 350.811 108.976 351.184C109.413 351.547 109.632 352.155 109.632 353.008V356.56C109.632 357.008 109.712 357.328 109.872 357.52C110.043 357.712 110.336 357.808 110.752 357.808V359.024C110.336 359.024 110.043 359.115 109.872 359.296C109.712 359.477 109.632 359.792 109.632 360.24V363.792C109.632 364.645 109.413 365.253 108.976 365.616C108.539 365.989 107.787 366.176 106.72 366.176V365.04C107.264 365.04 107.653 364.955 107.888 364.784C108.123 364.624 108.24 364.347 108.24 363.952V360.128C108.24 359.584 108.331 359.2 108.512 358.976C108.704 358.752 109.013 358.565 109.44 358.416C109.024 358.277 108.72 358.091 108.528 357.856C108.336 357.611 108.24 357.216 108.24 356.672V352.848C108.24 352.453 108.123 352.176 107.888 352.016C107.653 351.845 107.264 351.76 106.72 351.76V350.624Z" fill="white"/>
<path d="M137.598 298.976V300.208L132.142 308.704H137.598L137.422 310H130.446V308.784L135.95 300.256H131.022V298.976H137.598ZM146.12 298.976L145.959 300.272H142.904V310H141.383V300.272H138.247V298.976H146.12ZM157.177 310H155.705L155.321 305.024C155.161 303.072 155.07 301.573 155.049 300.528L152.665 308.752H151.241L148.729 300.512C148.729 301.845 148.659 303.387 148.521 305.136L148.153 310H146.713L147.625 298.976H149.673L151.993 306.992L154.201 298.976H156.265L157.177 310ZM169.4 310L168.568 307.232H164.392L163.56 310H162.024L165.56 298.976H167.48L171 310H169.4ZM164.76 306H168.2L166.488 300.24L164.76 306ZM175.452 301.376C175.953 301.376 176.412 301.451 176.828 301.6C177.244 301.739 177.644 301.968 178.028 302.288L177.324 303.216C177.025 303.003 176.732 302.848 176.444 302.752C176.167 302.645 175.857 302.592 175.516 302.592C174.833 302.592 174.3 302.864 173.916 303.408C173.543 303.952 173.356 304.757 173.356 305.824C173.356 306.891 173.543 307.68 173.916 308.192C174.289 308.693 174.823 308.944 175.516 308.944C175.847 308.944 176.151 308.896 176.428 308.8C176.705 308.693 177.015 308.528 177.356 308.304L178.028 309.264C177.26 309.883 176.401 310.192 175.452 310.192C174.311 310.192 173.409 309.808 172.748 309.04C172.097 308.272 171.772 307.211 171.772 305.856C171.772 304.96 171.921 304.176 172.22 303.504C172.519 302.832 172.94 302.309 173.484 301.936C174.039 301.563 174.695 301.376 175.452 301.376ZM185.304 308.032C185.304 308.373 185.363 308.629 185.48 308.8C185.598 308.96 185.774 309.083 186.008 309.168L185.672 310.192C185.235 310.139 184.883 310.016 184.616 309.824C184.35 309.632 184.152 309.333 184.024 308.928C183.459 309.771 182.622 310.192 181.512 310.192C180.68 310.192 180.024 309.957 179.544 309.488C179.064 309.019 178.824 308.405 178.824 307.648C178.824 306.752 179.144 306.064 179.784 305.584C180.435 305.104 181.352 304.864 182.536 304.864H183.832V304.24C183.832 303.643 183.688 303.216 183.4 302.96C183.112 302.704 182.67 302.576 182.072 302.576C181.454 302.576 180.696 302.725 179.8 303.024L179.432 301.952C180.478 301.568 181.448 301.376 182.344 301.376C183.336 301.376 184.078 301.621 184.568 302.112C185.059 302.592 185.304 303.28 185.304 304.176V308.032ZM181.848 309.088C182.691 309.088 183.352 308.651 183.832 307.776V305.84H182.728C181.171 305.84 180.392 306.416 180.392 307.568C180.392 308.069 180.515 308.448 180.76 308.704C181.006 308.96 181.368 309.088 181.848 309.088ZM194.615 298.176V310H193.319L193.175 308.832C192.898 309.259 192.551 309.595 192.135 309.84C191.719 310.075 191.255 310.192 190.743 310.192C189.741 310.192 188.957 309.797 188.391 309.008C187.837 308.219 187.559 307.157 187.559 305.824C187.559 304.96 187.693 304.192 187.959 303.52C188.226 302.848 188.61 302.325 189.111 301.952C189.613 301.568 190.199 301.376 190.871 301.376C191.735 301.376 192.493 301.723 193.143 302.416V298L194.615 298.176ZM191.063 309.024C191.511 309.024 191.895 308.923 192.215 308.72C192.535 308.507 192.845 308.192 193.143 307.776V303.648C192.866 303.285 192.567 303.013 192.247 302.832C191.938 302.64 191.586 302.544 191.191 302.544C190.541 302.544 190.034 302.816 189.671 303.36C189.319 303.904 189.143 304.715 189.143 305.792C189.143 306.88 189.309 307.691 189.639 308.224C189.97 308.757 190.445 309.024 191.063 309.024ZM203.778 305.536C203.778 305.781 203.767 306.032 203.746 306.288H198.37C198.434 307.216 198.669 307.899 199.074 308.336C199.479 308.773 200.002 308.992 200.642 308.992C201.047 308.992 201.421 308.933 201.762 308.816C202.103 308.699 202.461 308.512 202.834 308.256L203.474 309.136C202.578 309.84 201.597 310.192 200.53 310.192C199.357 310.192 198.439 309.808 197.778 309.04C197.127 308.272 196.802 307.216 196.802 305.872C196.802 304.997 196.941 304.224 197.218 303.552C197.506 302.869 197.911 302.336 198.434 301.952C198.967 301.568 199.591 301.376 200.306 301.376C201.426 301.376 202.285 301.744 202.882 302.48C203.479 303.216 203.778 304.235 203.778 305.536ZM202.322 305.104C202.322 304.272 202.157 303.637 201.826 303.2C201.495 302.763 200.999 302.544 200.338 302.544C199.133 302.544 198.477 303.429 198.37 305.2H202.322V305.104ZM214.353 301.376C215.046 301.376 215.601 301.611 216.017 302.08C216.433 302.539 216.641 303.163 216.641 303.952V310H215.169V304.16C215.169 303.072 214.774 302.528 213.985 302.528C213.569 302.528 213.217 302.651 212.929 302.896C212.641 303.131 212.331 303.504 212.001 304.016V310H210.529V304.16C210.529 303.072 210.134 302.528 209.345 302.528C208.918 302.528 208.561 302.651 208.273 302.896C207.985 303.141 207.681 303.515 207.361 304.016V310H205.889V301.568H207.153L207.281 302.8C207.91 301.851 208.721 301.376 209.713 301.376C210.235 301.376 210.678 301.509 211.041 301.776C211.414 302.043 211.681 302.416 211.841 302.896C212.171 302.405 212.534 302.032 212.929 301.776C213.334 301.509 213.809 301.376 214.353 301.376ZM222.634 310.048C222.303 311.029 221.839 311.803 221.242 312.368C220.655 312.944 219.813 313.291 218.714 313.408L218.554 312.256C219.109 312.16 219.551 312.021 219.882 311.84C220.213 311.659 220.474 311.424 220.666 311.136C220.869 310.859 221.055 310.48 221.226 310H220.73L217.898 301.568H219.466L221.722 308.928L223.93 301.568H225.45L222.634 310.048ZM227.34 307.968C227.66 307.968 227.926 308.075 228.14 308.288C228.353 308.501 228.46 308.763 228.46 309.072C228.46 309.381 228.353 309.648 228.14 309.872C227.926 310.085 227.66 310.192 227.34 310.192C227.03 310.192 226.769 310.085 226.556 309.872C226.342 309.648 226.236 309.381 226.236 309.072C226.236 308.763 226.342 308.501 226.556 308.288C226.769 308.075 227.03 307.968 227.34 307.968ZM227.34 302.08C227.66 302.08 227.926 302.187 228.14 302.4C228.353 302.613 228.46 302.875 228.46 303.184C228.46 303.493 228.353 303.76 228.14 303.984C227.926 304.197 227.66 304.304 227.34 304.304C227.03 304.304 226.769 304.197 226.556 303.984C226.342 303.76 226.236 303.493 226.236 303.184C226.236 302.875 226.342 302.613 226.556 302.4C226.769 302.187 227.03 302.08 227.34 302.08ZM134.286 316.784C135.022 316.784 135.652 316.891 136.174 317.104C136.697 317.307 137.204 317.627 137.694 318.064L136.862 318.992C136.446 318.661 136.036 318.421 135.63 318.272C135.236 318.112 134.809 318.032 134.35 318.032C133.774 318.032 133.3 318.165 132.926 318.432C132.553 318.699 132.366 319.088 132.366 319.6C132.366 319.92 132.43 320.192 132.558 320.416C132.686 320.629 132.921 320.827 133.262 321.008C133.614 321.189 134.121 321.381 134.782 321.584C135.476 321.797 136.052 322.027 136.51 322.272C136.969 322.517 137.337 322.859 137.614 323.296C137.902 323.723 138.046 324.267 138.046 324.928C138.046 325.568 137.886 326.133 137.566 326.624C137.257 327.115 136.804 327.499 136.206 327.776C135.62 328.053 134.921 328.192 134.11 328.192C132.585 328.192 131.337 327.717 130.366 326.768L131.198 325.84C131.646 326.203 132.1 326.48 132.558 326.672C133.017 326.853 133.529 326.944 134.094 326.944C134.777 326.944 135.342 326.779 135.79 326.448C136.238 326.107 136.462 325.616 136.462 324.976C136.462 324.613 136.393 324.315 136.254 324.08C136.116 323.835 135.876 323.616 135.534 323.424C135.204 323.232 134.718 323.04 134.078 322.848C132.948 322.507 132.121 322.096 131.598 321.616C131.076 321.136 130.814 320.485 130.814 319.664C130.814 319.109 130.958 318.613 131.246 318.176C131.545 317.739 131.956 317.397 132.478 317.152C133.012 316.907 133.614 316.784 134.286 316.784ZM146.333 323.536C146.333 323.781 146.322 324.032 146.301 324.288H140.925C140.989 325.216 141.224 325.899 141.629 326.336C142.034 326.773 142.557 326.992 143.197 326.992C143.602 326.992 143.976 326.933 144.317 326.816C144.658 326.699 145.016 326.512 145.389 326.256L146.029 327.136C145.133 327.84 144.152 328.192 143.085 328.192C141.912 328.192 140.994 327.808 140.333 327.04C139.682 326.272 139.357 325.216 139.357 323.872C139.357 322.997 139.496 322.224 139.773 321.552C140.061 320.869 140.466 320.336 140.989 319.952C141.522 319.568 142.146 319.376 142.861 319.376C143.981 319.376 144.84 319.744 145.437 320.48C146.034 321.216 146.333 322.235 146.333 323.536ZM144.877 323.104C144.877 322.272 144.712 321.637 144.381 321.2C144.05 320.763 143.554 320.544 142.893 320.544C141.688 320.544 141.032 321.429 140.925 323.2H144.877V323.104ZM150.124 328.192C149.58 328.192 149.148 328.032 148.828 327.712C148.518 327.381 148.364 326.923 148.364 326.336V316.176L149.836 316V326.304C149.836 326.539 149.873 326.709 149.948 326.816C150.033 326.923 150.172 326.976 150.364 326.976C150.566 326.976 150.748 326.944 150.908 326.88L151.292 327.904C150.94 328.096 150.55 328.192 150.124 328.192ZM155.755 317.184C155.307 317.184 154.987 317.285 154.795 317.488C154.603 317.68 154.507 317.984 154.507 318.4V319.568H156.555L156.395 320.704H154.507V328H153.035V320.704H151.531V319.568H153.035V318.416C153.035 317.691 153.265 317.109 153.723 316.672C154.193 316.224 154.843 316 155.675 316C156.059 316 156.401 316.037 156.699 316.112C157.009 316.176 157.339 316.283 157.691 316.432L157.227 317.504C156.747 317.291 156.257 317.184 155.755 317.184ZM157.138 323.616V322.368H161.666V323.616H157.138ZM166.199 319.376C166.775 319.376 167.293 319.456 167.751 319.616C168.21 319.776 168.647 320.016 169.063 320.336L168.439 321.264C168.055 321.019 167.687 320.837 167.335 320.72C166.994 320.603 166.631 320.544 166.247 320.544C165.767 320.544 165.389 320.645 165.111 320.848C164.834 321.04 164.695 321.307 164.695 321.648C164.695 321.989 164.823 322.256 165.079 322.448C165.346 322.64 165.821 322.827 166.503 323.008C167.442 323.243 168.141 323.563 168.599 323.968C169.069 324.373 169.303 324.928 169.303 325.632C169.303 326.464 168.978 327.099 168.327 327.536C167.687 327.973 166.903 328.192 165.975 328.192C164.695 328.192 163.634 327.824 162.791 327.088L163.575 326.192C164.29 326.736 165.079 327.008 165.943 327.008C166.498 327.008 166.935 326.896 167.255 326.672C167.586 326.437 167.751 326.123 167.751 325.728C167.751 325.44 167.693 325.211 167.575 325.04C167.458 324.859 167.255 324.704 166.967 324.576C166.679 324.437 166.258 324.293 165.703 324.144C164.807 323.909 164.157 323.595 163.751 323.2C163.357 322.805 163.159 322.304 163.159 321.696C163.159 321.259 163.287 320.864 163.543 320.512C163.81 320.149 164.173 319.872 164.631 319.68C165.101 319.477 165.623 319.376 166.199 319.376ZM175.396 327.616C174.841 328 174.212 328.192 173.508 328.192C172.793 328.192 172.233 327.989 171.828 327.584C171.433 327.168 171.236 326.571 171.236 325.792V320.704H169.764V319.568H171.236V317.664L172.708 317.488V319.568H174.708L174.548 320.704H172.708V325.728C172.708 326.165 172.783 326.485 172.932 326.688C173.092 326.88 173.353 326.976 173.716 326.976C174.047 326.976 174.42 326.864 174.836 326.64L175.396 327.616ZM182.953 328H181.689L181.577 326.688C181.257 327.211 180.889 327.595 180.473 327.84C180.057 328.075 179.551 328.192 178.953 328.192C178.217 328.192 177.641 327.968 177.225 327.52C176.809 327.072 176.601 326.437 176.601 325.616V319.568H178.073V325.456C178.073 326.032 178.175 326.443 178.377 326.688C178.58 326.923 178.911 327.04 179.369 327.04C180.191 327.04 180.895 326.555 181.481 325.584V319.568H182.953V328ZM192.282 316.176V328H190.986L190.842 326.832C190.564 327.259 190.218 327.595 189.802 327.84C189.386 328.075 188.922 328.192 188.41 328.192C187.407 328.192 186.623 327.797 186.058 327.008C185.503 326.219 185.226 325.157 185.226 323.824C185.226 322.96 185.359 322.192 185.626 321.52C185.892 320.848 186.276 320.325 186.778 319.952C187.279 319.568 187.866 319.376 188.538 319.376C189.402 319.376 190.159 319.723 190.81 320.416V316L192.282 316.176ZM188.73 327.024C189.178 327.024 189.562 326.923 189.882 326.72C190.202 326.507 190.511 326.192 190.81 325.776V321.648C190.532 321.285 190.234 321.013 189.914 320.832C189.604 320.64 189.252 320.544 188.858 320.544C188.207 320.544 187.7 320.816 187.338 321.36C186.986 321.904 186.81 322.715 186.81 323.792C186.81 324.88 186.975 325.691 187.306 326.224C187.636 326.757 188.111 327.024 188.73 327.024ZM198.452 328.048C198.122 329.029 197.658 329.803 197.06 330.368C196.474 330.944 195.631 331.291 194.532 331.408L194.372 330.256C194.927 330.16 195.37 330.021 195.7 329.84C196.031 329.659 196.292 329.424 196.484 329.136C196.687 328.859 196.874 328.48 197.044 328H196.548L193.716 319.568H195.284L197.54 326.928L199.748 319.568H201.268L198.452 328.048ZM203.158 325.968C203.478 325.968 203.744 326.075 203.958 326.288C204.171 326.501 204.278 326.763 204.278 327.072C204.278 327.381 204.171 327.648 203.958 327.872C203.744 328.085 203.478 328.192 203.158 328.192C202.848 328.192 202.587 328.085 202.374 327.872C202.16 327.648 202.054 327.381 202.054 327.072C202.054 326.763 202.16 326.501 202.374 326.288C202.587 326.075 202.848 325.968 203.158 325.968ZM203.158 320.08C203.478 320.08 203.744 320.187 203.958 320.4C204.171 320.613 204.278 320.875 204.278 321.184C204.278 321.493 204.171 321.76 203.958 321.984C203.744 322.197 203.478 322.304 203.158 322.304C202.848 322.304 202.587 322.197 202.374 321.984C202.16 321.76 202.054 321.493 202.054 321.184C202.054 320.875 202.16 320.613 202.374 320.4C202.587 320.187 202.848 320.08 203.158 320.08Z" fill="#0EE6B7"/>
<path d="M15 0.5H847C855.008 0.5 861.5 6.99187 861.5 15V499.5H0.5V15C0.5 6.99186 6.99187 0.5 15 0.5Z" stroke="#4A4A4A"/>
</svg>
