<svg width="862" height="500" viewBox="0 0 862 500" fill="none" xmlns="http://www.w3.org/2000/svg">
<path d="M15 0.5H847C855.008 0.5 861.5 6.99187 861.5 15V499.5H0.5V15C0.5 6.99186 6.99187 0.5 15 0.5Z" fill="#171A1B"/>
<circle cx="28" cy="15" r="4" fill="#FF5F56"/>
<circle cx="44" cy="15" r="4" fill="#FFBD2E"/>
<circle cx="60" cy="15" r="4" fill="#27C93F"/>
<rect opacity="0.9" x="248" y="8" width="300" height="14" rx="5" fill="#202226"/>
<path d="M378.24 12.61C378.673 12.61 379.02 12.7567 379.28 13.05C379.54 13.3367 379.67 13.7267 379.67 14.22V18H378.75V14.35C378.75 13.67 378.503 13.33 378.01 13.33C377.75 13.33 377.53 13.4067 377.35 13.56C377.17 13.7067 376.977 13.94 376.77 14.26V18H375.85V14.35C375.85 13.67 375.603 13.33 375.11 13.33C374.843 13.33 374.62 13.4067 374.44 13.56C374.26 13.7133 374.07 13.9467 373.87 14.26V18H372.95V12.73H373.74L373.82 13.5C374.213 12.9067 374.72 12.61 375.34 12.61C375.667 12.61 375.943 12.6933 376.17 12.86C376.403 13.0267 376.57 13.26 376.67 13.56C376.877 13.2533 377.103 13.02 377.35 12.86C377.603 12.6933 377.9 12.61 378.24 12.61ZM385.294 18H384.504L384.434 17.18C384.234 17.5067 384.004 17.7467 383.744 17.9C383.484 18.0467 383.168 18.12 382.794 18.12C382.334 18.12 381.974 17.98 381.714 17.7C381.454 17.42 381.324 17.0233 381.324 16.51V12.73H382.244V16.41C382.244 16.77 382.308 17.0267 382.434 17.18C382.561 17.3267 382.768 17.4 383.054 17.4C383.568 17.4 384.008 17.0967 384.374 16.49V12.73H385.294V18ZM388.475 12.61C388.835 12.61 389.158 12.66 389.445 12.76C389.731 12.86 390.005 13.01 390.265 13.21L389.875 13.79C389.635 13.6367 389.405 13.5233 389.185 13.45C388.971 13.3767 388.745 13.34 388.505 13.34C388.205 13.34 387.968 13.4033 387.795 13.53C387.621 13.65 387.535 13.8167 387.535 14.03C387.535 14.2433 387.615 14.41 387.775 14.53C387.941 14.65 388.238 14.7667 388.665 14.88C389.251 15.0267 389.688 15.2267 389.975 15.48C390.268 15.7333 390.415 16.08 390.415 16.52C390.415 17.04 390.211 17.4367 389.805 17.71C389.405 17.9833 388.915 18.12 388.335 18.12C387.535 18.12 386.871 17.89 386.345 17.43L386.835 16.87C387.281 17.21 387.775 17.38 388.315 17.38C388.661 17.38 388.935 17.31 389.135 17.17C389.341 17.0233 389.445 16.8267 389.445 16.58C389.445 16.4 389.408 16.2567 389.335 16.15C389.261 16.0367 389.135 15.94 388.955 15.86C388.775 15.7733 388.511 15.6833 388.165 15.59C387.605 15.4433 387.198 15.2467 386.945 15C386.698 14.7533 386.575 14.44 386.575 14.06C386.575 13.7867 386.655 13.54 386.815 13.32C386.981 13.0933 387.208 12.92 387.495 12.8C387.788 12.6733 388.115 12.61 388.475 12.61ZM392.612 18.12C392.272 18.12 392.002 18.02 391.802 17.82C391.609 17.6133 391.512 17.3267 391.512 16.96V10.61L392.432 10.5V16.94C392.432 17.0867 392.456 17.1933 392.502 17.26C392.556 17.3267 392.642 17.36 392.762 17.36C392.889 17.36 393.002 17.34 393.102 17.3L393.342 17.94C393.122 18.06 392.879 18.12 392.612 18.12ZM395.262 12.73V18H394.342V12.73H395.262ZM394.792 10.2C394.986 10.2 395.142 10.26 395.262 10.38C395.382 10.5 395.442 10.65 395.442 10.83C395.442 11.01 395.382 11.16 395.262 11.28C395.142 11.3933 394.986 11.45 394.792 11.45C394.606 11.45 394.452 11.3933 394.332 11.28C394.212 11.16 394.152 11.01 394.152 10.83C394.152 10.65 394.212 10.5 394.332 10.38C394.452 10.26 394.606 10.2 394.792 10.2ZM399.494 12.61C399.974 12.61 400.348 12.7533 400.614 13.04C400.888 13.3267 401.024 13.72 401.024 14.22V18H400.104V14.35C400.104 13.9767 400.031 13.7133 399.884 13.56C399.744 13.4067 399.538 13.33 399.264 13.33C398.991 13.33 398.748 13.41 398.534 13.57C398.321 13.73 398.121 13.9567 397.934 14.25V18H397.014V10.62L397.934 10.52V13.46C398.348 12.8933 398.868 12.61 399.494 12.61ZM403.644 12.73V18H402.724V12.73H403.644ZM403.174 10.2C403.367 10.2 403.524 10.26 403.644 10.38C403.764 10.5 403.824 10.65 403.824 10.83C403.824 11.01 403.764 11.16 403.644 11.28C403.524 11.3933 403.367 11.45 403.174 11.45C402.987 11.45 402.834 11.3933 402.714 11.28C402.594 11.16 402.534 11.01 402.534 10.83C402.534 10.65 402.594 10.5 402.714 10.38C402.834 10.26 402.987 10.2 403.174 10.2ZM409.476 10.61V18H408.666L408.576 17.27C408.403 17.5367 408.186 17.7467 407.926 17.9C407.666 18.0467 407.376 18.12 407.056 18.12C406.429 18.12 405.939 17.8733 405.586 17.38C405.239 16.8867 405.066 16.2233 405.066 15.39C405.066 14.85 405.149 14.37 405.316 13.95C405.483 13.53 405.723 13.2033 406.036 12.97C406.349 12.73 406.716 12.61 407.136 12.61C407.676 12.61 408.149 12.8267 408.556 13.26V10.5L409.476 10.61ZM407.256 17.39C407.536 17.39 407.776 17.3267 407.976 17.2C408.176 17.0667 408.369 16.87 408.556 16.61V14.03C408.383 13.8033 408.196 13.6333 407.996 13.52C407.803 13.4 407.583 13.34 407.336 13.34C406.929 13.34 406.613 13.51 406.386 13.85C406.166 14.19 406.056 14.6967 406.056 15.37C406.056 16.05 406.159 16.5567 406.366 16.89C406.573 17.2233 406.869 17.39 407.256 17.39ZM415.303 10.61V18H414.493L414.403 17.27C414.229 17.5367 414.013 17.7467 413.753 17.9C413.493 18.0467 413.203 18.12 412.883 18.12C412.256 18.12 411.766 17.8733 411.413 17.38C411.066 16.8867 410.893 16.2233 410.893 15.39C410.893 14.85 410.976 14.37 411.143 13.95C411.309 13.53 411.549 13.2033 411.863 12.97C412.176 12.73 412.543 12.61 412.963 12.61C413.503 12.61 413.976 12.8267 414.383 13.26V10.5L415.303 10.61ZM413.083 17.39C413.363 17.39 413.603 17.3267 413.803 17.2C414.003 17.0667 414.196 16.87 414.383 16.61V14.03C414.209 13.8033 414.023 13.6333 413.823 13.52C413.629 13.4 413.409 13.34 413.163 13.34C412.756 13.34 412.439 13.51 412.213 13.85C411.993 14.19 411.883 14.6967 411.883 15.37C411.883 16.05 411.986 16.5567 412.193 16.89C412.399 17.2233 412.696 17.39 413.083 17.39ZM417.969 12.73V18H417.049V12.73H417.969ZM417.499 10.2C417.693 10.2 417.849 10.26 417.969 10.38C418.089 10.5 418.149 10.65 418.149 10.83C418.149 11.01 418.089 11.16 417.969 11.28C417.849 11.3933 417.693 11.45 417.499 11.45C417.313 11.45 417.159 11.3933 417.039 11.28C416.919 11.16 416.859 11.01 416.859 10.83C416.859 10.65 416.919 10.5 417.039 10.38C417.159 10.26 417.313 10.2 417.499 10.2ZM422.201 12.61C422.681 12.61 423.055 12.7533 423.321 13.04C423.595 13.3267 423.731 13.72 423.731 14.22V18H422.811V14.35C422.811 13.9767 422.741 13.7133 422.601 13.56C422.461 13.4067 422.255 13.33 421.981 13.33C421.701 13.33 421.455 13.41 421.241 13.57C421.028 13.73 420.828 13.96 420.641 14.26V18H419.721V12.73H420.511L420.591 13.51C420.778 13.23 421.008 13.01 421.281 12.85C421.561 12.69 421.868 12.61 422.201 12.61ZM425.671 16.73C425.871 16.73 426.038 16.7967 426.171 16.93C426.304 17.0633 426.371 17.2267 426.371 17.42C426.371 17.6133 426.304 17.78 426.171 17.92C426.038 18.0533 425.871 18.12 425.671 18.12C425.478 18.12 425.314 18.0533 425.181 17.92C425.048 17.78 424.981 17.6133 424.981 17.42C424.981 17.2267 425.048 17.0633 425.181 16.93C425.314 16.7967 425.478 16.73 425.671 16.73ZM429.506 12.61C429.819 12.61 430.106 12.6567 430.366 12.75C430.626 12.8367 430.876 12.98 431.116 13.18L430.676 13.76C430.489 13.6267 430.306 13.53 430.126 13.47C429.952 13.4033 429.759 13.37 429.546 13.37C429.119 13.37 428.786 13.54 428.546 13.88C428.312 14.22 428.196 14.7233 428.196 15.39C428.196 16.0567 428.312 16.55 428.546 16.87C428.779 17.1833 429.112 17.34 429.546 17.34C429.752 17.34 429.942 17.31 430.116 17.25C430.289 17.1833 430.482 17.08 430.696 16.94L431.116 17.54C430.636 17.9267 430.099 18.12 429.506 18.12C428.792 18.12 428.229 17.88 427.816 17.4C427.409 16.92 427.206 16.2567 427.206 15.41C427.206 14.85 427.299 14.36 427.486 13.94C427.672 13.52 427.936 13.1933 428.276 12.96C428.622 12.7267 429.032 12.61 429.506 12.61ZM433.996 12.61C434.736 12.61 435.309 12.8567 435.716 13.35C436.129 13.8433 436.336 14.5133 436.336 15.36C436.336 15.9067 436.242 16.39 436.056 16.81C435.869 17.2233 435.599 17.5467 435.246 17.78C434.892 18.0067 434.472 18.12 433.986 18.12C433.246 18.12 432.669 17.8733 432.256 17.38C431.842 16.8867 431.636 16.2167 431.636 15.37C431.636 14.8233 431.729 14.3433 431.916 13.93C432.102 13.51 432.372 13.1867 432.726 12.96C433.079 12.7267 433.502 12.61 433.996 12.61ZM433.996 13.35C433.082 13.35 432.626 14.0233 432.626 15.37C432.626 16.71 433.079 17.38 433.986 17.38C434.892 17.38 435.346 16.7067 435.346 15.36C435.346 14.02 434.896 13.35 433.996 13.35ZM442.995 12.61C443.429 12.61 443.775 12.7567 444.035 13.05C444.295 13.3367 444.425 13.7267 444.425 14.22V18H443.505V14.35C443.505 13.67 443.259 13.33 442.765 13.33C442.505 13.33 442.285 13.4067 442.105 13.56C441.925 13.7067 441.732 13.94 441.525 14.26V18H440.605V14.35C440.605 13.67 440.359 13.33 439.865 13.33C439.599 13.33 439.375 13.4067 439.195 13.56C439.015 13.7133 438.825 13.9467 438.625 14.26V18H437.705V12.73H438.495L438.575 13.5C438.969 12.9067 439.475 12.61 440.095 12.61C440.422 12.61 440.699 12.6933 440.925 12.86C441.159 13.0267 441.325 13.26 441.425 13.56C441.632 13.2533 441.859 13.02 442.105 12.86C442.359 12.6933 442.655 12.61 442.995 12.61Z" fill="white"/>
<path d="M107.904 141.968C108.224 141.968 108.491 142.075 108.704 142.288C108.917 142.501 109.024 142.763 109.024 143.072C109.024 143.381 108.917 143.648 108.704 143.872C108.491 144.085 108.224 144.192 107.904 144.192C107.595 144.192 107.333 144.085 107.12 143.872C106.907 143.648 106.8 143.381 106.8 143.072C106.8 142.763 106.907 142.501 107.12 142.288C107.333 142.075 107.595 141.968 107.904 141.968ZM117.138 144L116.306 141.232H112.13L111.298 144H109.762L113.298 132.976H115.218L118.738 144H117.138ZM112.498 140H115.938L114.226 134.24L112.498 140ZM123.974 135.376C124.934 135.376 125.697 135.765 126.262 136.544C126.827 137.312 127.11 138.389 127.11 139.776C127.11 140.651 126.977 141.424 126.71 142.096C126.443 142.757 126.059 143.275 125.558 143.648C125.057 144.011 124.47 144.192 123.798 144.192C122.913 144.192 122.166 143.819 121.558 143.072L121.414 144H120.118V132.176L121.59 132V136.624C122.198 135.792 122.993 135.376 123.974 135.376ZM123.446 143.024C124.097 143.024 124.603 142.763 124.966 142.24C125.339 141.707 125.526 140.885 125.526 139.776C125.526 138.635 125.355 137.813 125.014 137.312C124.673 136.8 124.187 136.544 123.558 136.544C122.811 136.544 122.155 136.981 121.59 137.856V141.888C121.814 142.24 122.086 142.517 122.406 142.72C122.737 142.923 123.083 143.024 123.446 143.024ZM132.546 135.376C133.73 135.376 134.647 135.771 135.298 136.56C135.959 137.349 136.29 138.421 136.29 139.776C136.29 140.651 136.141 141.424 135.842 142.096C135.543 142.757 135.111 143.275 134.546 143.648C133.981 144.011 133.309 144.192 132.53 144.192C131.346 144.192 130.423 143.797 129.762 143.008C129.101 142.219 128.77 141.147 128.77 139.792C128.77 138.917 128.919 138.149 129.218 137.488C129.517 136.816 129.949 136.299 130.514 135.936C131.079 135.563 131.757 135.376 132.546 135.376ZM132.546 136.56C131.085 136.56 130.354 137.637 130.354 139.792C130.354 141.936 131.079 143.008 132.53 143.008C133.981 143.008 134.706 141.931 134.706 139.776C134.706 137.632 133.986 136.56 132.546 136.56ZM144.754 144H143.49L143.378 142.688C143.058 143.211 142.69 143.595 142.274 143.84C141.858 144.075 141.351 144.192 140.754 144.192C140.018 144.192 139.442 143.968 139.026 143.52C138.61 143.072 138.402 142.437 138.402 141.616V135.568H139.874V141.456C139.874 142.032 139.975 142.443 140.178 142.688C140.381 142.923 140.711 143.04 141.17 143.04C141.991 143.04 142.695 142.555 143.282 141.584V135.568H144.754V144ZM151.81 143.616C151.256 144 150.626 144.192 149.922 144.192C149.208 144.192 148.648 143.989 148.242 143.584C147.848 143.168 147.65 142.571 147.65 141.792V136.704H146.178V135.568H147.65V133.664L149.122 133.488V135.568H151.122L150.962 136.704H149.122V141.728C149.122 142.165 149.197 142.485 149.346 142.688C149.506 142.88 149.768 142.976 150.13 142.976C150.461 142.976 150.834 142.864 151.25 142.64L151.81 143.616ZM163.032 144H161.56L161.176 139.024C161.016 137.072 160.925 135.573 160.904 134.528L158.52 142.752H157.096L154.584 134.512C154.584 135.845 154.514 137.387 154.376 139.136L154.008 144H152.568L153.48 132.976H155.528L157.848 140.992L160.056 132.976H162.12L163.032 144ZM171.677 139.536C171.677 139.781 171.666 140.032 171.645 140.288H166.269C166.333 141.216 166.567 141.899 166.973 142.336C167.378 142.773 167.901 142.992 168.541 142.992C168.946 142.992 169.319 142.933 169.661 142.816C170.002 142.699 170.359 142.512 170.733 142.256L171.373 143.136C170.477 143.84 169.495 144.192 168.429 144.192C167.255 144.192 166.338 143.808 165.677 143.04C165.026 142.272 164.701 141.216 164.701 139.872C164.701 138.997 164.839 138.224 165.117 137.552C165.405 136.869 165.81 136.336 166.333 135.952C166.866 135.568 167.49 135.376 168.205 135.376C169.325 135.376 170.183 135.744 170.781 136.48C171.378 137.216 171.677 138.235 171.677 139.536ZM170.221 139.104C170.221 138.272 170.055 137.637 169.725 137.2C169.394 136.763 168.898 136.544 168.237 136.544C167.031 136.544 166.375 137.429 166.269 139.2H170.221V139.104Z" fill="#7000FF"/>
<path d="M180.694 131.76C180.15 131.76 179.761 131.845 179.526 132.016C179.291 132.176 179.174 132.453 179.174 132.848V136.672C179.174 137.216 179.078 137.611 178.886 137.856C178.694 138.091 178.39 138.277 177.974 138.416C178.401 138.565 178.705 138.752 178.886 138.976C179.078 139.2 179.174 139.584 179.174 140.128V143.952C179.174 144.347 179.291 144.624 179.526 144.784C179.761 144.955 180.15 145.04 180.694 145.04V146.176C179.627 146.176 178.875 145.989 178.438 145.616C178.001 145.253 177.782 144.645 177.782 143.792V140.24C177.782 139.792 177.697 139.477 177.526 139.296C177.366 139.115 177.078 139.024 176.662 139.024V137.808C177.078 137.808 177.366 137.712 177.526 137.52C177.697 137.328 177.782 137.008 177.782 136.56V133.008C177.782 132.155 178.001 131.547 178.438 131.184C178.875 130.811 179.627 130.624 180.694 130.624V131.76ZM212.718 180V168.976H218.574L218.398 170.192H214.238V173.952H217.838V175.152H214.238V180H212.718ZM223.358 171.376C223.657 171.376 223.934 171.408 224.19 171.472L223.918 172.912C223.662 172.848 223.417 172.816 223.182 172.816C222.66 172.816 222.238 173.008 221.918 173.392C221.598 173.776 221.348 174.373 221.166 175.184V180H219.694V171.568H220.958L221.102 173.28C221.326 172.651 221.63 172.176 222.014 171.856C222.398 171.536 222.846 171.376 223.358 171.376ZM228.31 171.376C229.494 171.376 230.411 171.771 231.062 172.56C231.723 173.349 232.054 174.421 232.054 175.776C232.054 176.651 231.905 177.424 231.606 178.096C231.307 178.757 230.875 179.275 230.31 179.648C229.745 180.011 229.073 180.192 228.294 180.192C227.11 180.192 226.187 179.797 225.526 179.008C224.865 178.219 224.534 177.147 224.534 175.792C224.534 174.917 224.683 174.149 224.982 173.488C225.281 172.816 225.713 172.299 226.278 171.936C226.843 171.563 227.521 171.376 228.31 171.376ZM228.31 172.56C226.849 172.56 226.118 173.637 226.118 175.792C226.118 177.936 226.843 179.008 228.294 179.008C229.745 179.008 230.47 177.931 230.47 175.776C230.47 173.632 229.75 172.56 228.31 172.56ZM238.214 171.376C238.982 171.376 239.579 171.605 240.006 172.064C240.443 172.523 240.662 173.152 240.662 173.952V180H239.19V174.16C239.19 173.563 239.078 173.141 238.854 172.896C238.63 172.651 238.299 172.528 237.862 172.528C237.414 172.528 237.019 172.656 236.678 172.912C236.336 173.168 236.016 173.536 235.718 174.016V180H234.246V171.568H235.51L235.638 172.816C235.936 172.368 236.304 172.016 236.742 171.76C237.19 171.504 237.68 171.376 238.214 171.376ZM247.637 179.616C247.082 180 246.453 180.192 245.749 180.192C245.034 180.192 244.474 179.989 244.069 179.584C243.674 179.168 243.477 178.571 243.477 177.792V172.704H242.005V171.568H243.477V169.664L244.949 169.488V171.568H246.949L246.789 172.704H244.949V177.728C244.949 178.165 245.023 178.485 245.173 178.688C245.333 178.88 245.594 178.976 245.957 178.976C246.287 178.976 246.661 178.864 247.077 178.64L247.637 179.616ZM247.721 175.616V174.368H252.249V175.616H247.721ZM260.862 175.536C260.862 175.781 260.852 176.032 260.83 176.288H255.454C255.518 177.216 255.753 177.899 256.158 178.336C256.564 178.773 257.086 178.992 257.726 178.992C258.132 178.992 258.505 178.933 258.846 178.816C259.188 178.699 259.545 178.512 259.918 178.256L260.558 179.136C259.662 179.84 258.681 180.192 257.614 180.192C256.441 180.192 255.524 179.808 254.862 179.04C254.212 178.272 253.886 177.216 253.886 175.872C253.886 174.997 254.025 174.224 254.302 173.552C254.59 172.869 254.996 172.336 255.518 171.952C256.052 171.568 256.676 171.376 257.39 171.376C258.51 171.376 259.369 171.744 259.966 172.48C260.564 173.216 260.862 174.235 260.862 175.536ZM259.406 175.104C259.406 174.272 259.241 173.637 258.91 173.2C258.58 172.763 258.084 172.544 257.422 172.544C256.217 172.544 255.561 173.429 255.454 175.2H259.406V175.104ZM266.941 171.376C267.709 171.376 268.306 171.605 268.733 172.064C269.17 172.523 269.389 173.152 269.389 173.952V180H267.917V174.16C267.917 173.563 267.805 173.141 267.581 172.896C267.357 172.651 267.026 172.528 266.589 172.528C266.141 172.528 265.746 172.656 265.405 172.912C265.064 173.168 264.744 173.536 264.445 174.016V180H262.973V171.568H264.237L264.365 172.816C264.664 172.368 265.032 172.016 265.469 171.76C265.917 171.504 266.408 171.376 266.941 171.376ZM278.636 168.176V180H277.34L277.196 178.832C276.919 179.259 276.572 179.595 276.156 179.84C275.74 180.075 275.276 180.192 274.764 180.192C273.761 180.192 272.977 179.797 272.412 179.008C271.857 178.219 271.58 177.157 271.58 175.824C271.58 174.96 271.713 174.192 271.98 173.52C272.247 172.848 272.631 172.325 273.132 171.952C273.633 171.568 274.22 171.376 274.892 171.376C275.756 171.376 276.513 171.723 277.164 172.416V168L278.636 168.176ZM275.084 179.024C275.532 179.024 275.916 178.923 276.236 178.72C276.556 178.507 276.865 178.192 277.164 177.776V173.648C276.887 173.285 276.588 173.013 276.268 172.832C275.959 172.64 275.607 172.544 275.212 172.544C274.561 172.544 274.055 172.816 273.692 173.36C273.34 173.904 273.164 174.715 273.164 175.792C273.164 176.88 273.329 177.691 273.66 178.224C273.991 178.757 274.465 179.024 275.084 179.024ZM281.815 177.968C282.135 177.968 282.401 178.075 282.615 178.288C282.828 178.501 282.935 178.763 282.935 179.072C282.935 179.403 282.839 179.781 282.647 180.208L281.575 182.656H280.519L281.159 180C281.02 179.893 280.908 179.76 280.823 179.6C280.748 179.44 280.711 179.264 280.711 179.072C280.711 178.763 280.817 178.501 281.031 178.288C281.244 178.075 281.505 177.968 281.815 177.968ZM281.815 172.08C282.135 172.08 282.401 172.187 282.615 172.4C282.828 172.613 282.935 172.875 282.935 173.184C282.935 173.493 282.828 173.76 282.615 173.984C282.401 174.197 282.135 174.304 281.815 174.304C281.505 174.304 281.244 174.197 281.031 173.984C280.817 173.76 280.711 173.493 280.711 173.184C280.711 172.875 280.817 172.613 281.031 172.4C281.244 172.187 281.505 172.08 281.815 172.08ZM199.669 186.976L196.149 198H194.517L190.965 186.976H192.597L195.365 196.352L198.133 186.976H199.669ZM206.999 198H205.735L205.623 196.688C205.303 197.211 204.935 197.595 204.519 197.84C204.103 198.075 203.596 198.192 202.999 198.192C202.263 198.192 201.687 197.968 201.271 197.52C200.855 197.072 200.647 196.437 200.647 195.616V189.568H202.119V195.456C202.119 196.032 202.22 196.443 202.423 196.688C202.626 196.923 202.956 197.04 203.415 197.04C204.236 197.04 204.94 196.555 205.527 195.584V189.568H206.999V198ZM216.167 193.536C216.167 193.781 216.157 194.032 216.135 194.288H210.759C210.823 195.216 211.058 195.899 211.463 196.336C211.869 196.773 212.391 196.992 213.031 196.992C213.437 196.992 213.81 196.933 214.151 196.816C214.493 196.699 214.85 196.512 215.223 196.256L215.863 197.136C214.967 197.84 213.986 198.192 212.919 198.192C211.746 198.192 210.829 197.808 210.167 197.04C209.517 196.272 209.191 195.216 209.191 193.872C209.191 192.997 209.33 192.224 209.607 191.552C209.895 190.869 210.301 190.336 210.823 189.952C211.357 189.568 211.981 189.376 212.695 189.376C213.815 189.376 214.674 189.744 215.271 190.48C215.869 191.216 216.167 192.235 216.167 193.536ZM214.711 193.104C214.711 192.272 214.546 191.637 214.215 191.2C213.885 190.763 213.389 190.544 212.727 190.544C211.522 190.544 210.866 191.429 210.759 193.2H214.711V193.104ZM225.345 189.376C225.846 189.376 226.305 189.451 226.721 189.6C227.137 189.739 227.537 189.968 227.921 190.288L227.217 191.216C226.918 191.003 226.625 190.848 226.337 190.752C226.059 190.645 225.75 190.592 225.409 190.592C224.726 190.592 224.193 190.864 223.809 191.408C223.435 191.952 223.249 192.757 223.249 193.824C223.249 194.891 223.435 195.68 223.809 196.192C224.182 196.693 224.715 196.944 225.409 196.944C225.739 196.944 226.043 196.896 226.321 196.8C226.598 196.693 226.907 196.528 227.249 196.304L227.921 197.264C227.153 197.883 226.294 198.192 225.345 198.192C224.203 198.192 223.302 197.808 222.641 197.04C221.99 196.272 221.665 195.211 221.665 193.856C221.665 192.96 221.814 192.176 222.113 191.504C222.411 190.832 222.833 190.309 223.377 189.936C223.931 189.563 224.587 189.376 225.345 189.376ZM232.529 189.376C233.713 189.376 234.63 189.771 235.281 190.56C235.942 191.349 236.273 192.421 236.273 193.776C236.273 194.651 236.123 195.424 235.825 196.096C235.526 196.757 235.094 197.275 234.529 197.648C233.963 198.011 233.291 198.192 232.513 198.192C231.329 198.192 230.406 197.797 229.745 197.008C229.083 196.219 228.753 195.147 228.753 193.792C228.753 192.917 228.902 192.149 229.201 191.488C229.499 190.816 229.931 190.299 230.497 189.936C231.062 189.563 231.739 189.376 232.529 189.376ZM232.529 190.56C231.067 190.56 230.337 191.637 230.337 193.792C230.337 195.936 231.062 197.008 232.513 197.008C233.963 197.008 234.689 195.931 234.689 193.776C234.689 191.632 233.969 190.56 232.529 190.56ZM246.928 189.376C247.622 189.376 248.176 189.611 248.592 190.08C249.008 190.539 249.216 191.163 249.216 191.952V198H247.744V192.16C247.744 191.072 247.35 190.528 246.56 190.528C246.144 190.528 245.792 190.651 245.504 190.896C245.216 191.131 244.907 191.504 244.576 192.016V198H243.104V192.16C243.104 191.072 242.71 190.528 241.92 190.528C241.494 190.528 241.136 190.651 240.848 190.896C240.56 191.141 240.256 191.515 239.936 192.016V198H238.464V189.568H239.728L239.856 190.8C240.486 189.851 241.296 189.376 242.288 189.376C242.811 189.376 243.254 189.509 243.616 189.776C243.99 190.043 244.256 190.416 244.416 190.896C244.747 190.405 245.11 190.032 245.504 189.776C245.91 189.509 246.384 189.376 246.928 189.376ZM260.407 189.376C261.1 189.376 261.655 189.611 262.071 190.08C262.487 190.539 262.695 191.163 262.695 191.952V198H261.223V192.16C261.223 191.072 260.828 190.528 260.039 190.528C259.623 190.528 259.271 190.651 258.983 190.896C258.695 191.131 258.386 191.504 258.055 192.016V198H256.583V192.16C256.583 191.072 256.188 190.528 255.399 190.528C254.972 190.528 254.615 190.651 254.327 190.896C254.039 191.141 253.735 191.515 253.415 192.016V198H251.943V189.568H253.207L253.335 190.8C253.964 189.851 254.775 189.376 255.767 189.376C256.29 189.376 256.732 189.509 257.095 189.776C257.468 190.043 257.735 190.416 257.895 190.896C258.226 190.405 258.588 190.032 258.983 189.776C259.388 189.509 259.863 189.376 260.407 189.376ZM271.694 198H270.43L270.318 196.688C269.998 197.211 269.63 197.595 269.214 197.84C268.798 198.075 268.291 198.192 267.694 198.192C266.958 198.192 266.382 197.968 265.966 197.52C265.55 197.072 265.342 196.437 265.342 195.616V189.568H266.814V195.456C266.814 196.032 266.915 196.443 267.118 196.688C267.321 196.923 267.651 197.04 268.11 197.04C268.931 197.04 269.635 196.555 270.222 195.584V189.568H271.694V198ZM278.462 189.376C279.23 189.376 279.828 189.605 280.254 190.064C280.692 190.523 280.91 191.152 280.91 191.952V198H279.438V192.16C279.438 191.563 279.326 191.141 279.102 190.896C278.878 190.651 278.548 190.528 278.11 190.528C277.662 190.528 277.268 190.656 276.926 190.912C276.585 191.168 276.265 191.536 275.966 192.016V198H274.494V189.568H275.758L275.886 190.816C276.185 190.368 276.553 190.016 276.99 189.76C277.438 189.504 277.929 189.376 278.462 189.376ZM285.101 189.568V198H283.629V189.568H285.101ZM284.349 185.52C284.659 185.52 284.909 185.616 285.101 185.808C285.293 186 285.389 186.24 285.389 186.528C285.389 186.816 285.293 187.056 285.101 187.248C284.909 187.429 284.659 187.52 284.349 187.52C284.051 187.52 283.805 187.429 283.613 187.248C283.421 187.056 283.325 186.816 283.325 186.528C283.325 186.24 283.421 186 283.613 185.808C283.805 185.616 284.051 185.52 284.349 185.52ZM292.161 197.616C291.606 198 290.977 198.192 290.273 198.192C289.558 198.192 288.998 197.989 288.593 197.584C288.198 197.168 288.001 196.571 288.001 195.792V190.704H286.529V189.568H288.001V187.664L289.473 187.488V189.568H291.473L291.313 190.704H289.473V195.728C289.473 196.165 289.548 196.485 289.697 196.688C289.857 196.88 290.118 196.976 290.481 196.976C290.812 196.976 291.185 196.864 291.601 196.64L292.161 197.616ZM296.744 198.048C296.413 199.029 295.949 199.803 295.352 200.368C294.765 200.944 293.923 201.291 292.824 201.408L292.664 200.256C293.219 200.16 293.661 200.021 293.992 199.84C294.323 199.659 294.584 199.424 294.776 199.136C294.979 198.859 295.165 198.48 295.336 198H294.84L292.008 189.568H293.576L295.832 196.928L298.04 189.568H299.56L296.744 198.048ZM301.45 195.968C301.77 195.968 302.036 196.075 302.25 196.288C302.463 196.501 302.57 196.763 302.57 197.072C302.57 197.403 302.474 197.781 302.282 198.208L301.21 200.656H300.154L300.794 198C300.655 197.893 300.543 197.76 300.458 197.6C300.383 197.44 300.346 197.264 300.346 197.072C300.346 196.763 300.452 196.501 300.666 196.288C300.879 196.075 301.14 195.968 301.45 195.968ZM301.45 190.08C301.77 190.08 302.036 190.187 302.25 190.4C302.463 190.613 302.57 190.875 302.57 191.184C302.57 191.493 302.463 191.76 302.25 191.984C302.036 192.197 301.77 192.304 301.45 192.304C301.14 192.304 300.879 192.197 300.666 191.984C300.452 191.76 300.346 191.493 300.346 191.184C300.346 190.875 300.452 190.613 300.666 190.4C300.879 190.187 301.14 190.08 301.45 190.08ZM106.72 220.624C107.787 220.624 108.539 220.811 108.976 221.184C109.413 221.547 109.632 222.155 109.632 223.008V226.56C109.632 227.008 109.712 227.328 109.872 227.52C110.043 227.712 110.336 227.808 110.752 227.808V229.024C110.336 229.024 110.043 229.115 109.872 229.296C109.712 229.477 109.632 229.792 109.632 230.24V233.792C109.632 234.645 109.413 235.253 108.976 235.616C108.539 235.989 107.787 236.176 106.72 236.176V235.04C107.264 235.04 107.653 234.955 107.888 234.784C108.123 234.624 108.24 234.347 108.24 233.952V230.128C108.24 229.584 108.331 229.2 108.512 228.976C108.704 228.752 109.013 228.565 109.44 228.416C109.024 228.277 108.72 228.091 108.528 227.856C108.336 227.611 108.24 227.216 108.24 226.672V222.848C108.24 222.453 108.123 222.176 107.888 222.016C107.653 221.845 107.264 221.76 106.72 221.76V220.624Z" fill="white"/>
<path d="M134.462 168.976C135.828 168.976 136.884 169.264 137.63 169.84C138.377 170.405 138.75 171.253 138.75 172.384C138.75 173.589 138.361 174.485 137.582 175.072C136.804 175.659 135.769 175.952 134.478 175.952H133.086V180H131.566V168.976H134.462ZM134.414 174.752C135.3 174.752 135.972 174.581 136.43 174.24C136.9 173.899 137.134 173.285 137.134 172.4C137.134 171.611 136.9 171.04 136.43 170.688C135.972 170.336 135.31 170.16 134.446 170.16H133.086V174.752H134.414ZM143.895 171.376C144.193 171.376 144.471 171.408 144.727 171.472L144.455 172.912C144.199 172.848 143.953 172.816 143.719 172.816C143.196 172.816 142.775 173.008 142.455 173.392C142.135 173.776 141.884 174.373 141.703 175.184V180H140.231V171.568H141.495L141.639 173.28C141.863 172.651 142.167 172.176 142.551 171.856C142.935 171.536 143.383 171.376 143.895 171.376ZM148.846 171.376C150.03 171.376 150.947 171.771 151.598 172.56C152.259 173.349 152.59 174.421 152.59 175.776C152.59 176.651 152.441 177.424 152.142 178.096C151.843 178.757 151.411 179.275 150.846 179.648C150.281 180.011 149.609 180.192 148.83 180.192C147.646 180.192 146.723 179.797 146.062 179.008C145.401 178.219 145.07 177.147 145.07 175.792C145.07 174.917 145.219 174.149 145.518 173.488C145.817 172.816 146.249 172.299 146.814 171.936C147.379 171.563 148.057 171.376 148.846 171.376ZM148.846 172.56C147.385 172.56 146.654 173.637 146.654 175.792C146.654 177.936 147.379 179.008 148.83 179.008C150.281 179.008 151.006 177.931 151.006 175.776C151.006 173.632 150.286 172.56 148.846 172.56ZM157.646 169.184C157.198 169.184 156.878 169.285 156.686 169.488C156.494 169.68 156.398 169.984 156.398 170.4V171.568H158.446L158.286 172.704H156.398V180H154.926V172.704H153.422V171.568H154.926V170.416C154.926 169.691 155.155 169.109 155.614 168.672C156.083 168.224 156.734 168 157.566 168C157.95 168 158.291 168.037 158.59 168.112C158.899 168.176 159.23 168.283 159.582 168.432L159.118 169.504C158.638 169.291 158.147 169.184 157.646 169.184ZM166.113 175.536C166.113 175.781 166.102 176.032 166.081 176.288H160.705C160.769 177.216 161.004 177.899 161.409 178.336C161.814 178.773 162.337 178.992 162.977 178.992C163.382 178.992 163.756 178.933 164.097 178.816C164.438 178.699 164.796 178.512 165.169 178.256L165.809 179.136C164.913 179.84 163.932 180.192 162.865 180.192C161.692 180.192 160.774 179.808 160.113 179.04C159.462 178.272 159.137 177.216 159.137 175.872C159.137 174.997 159.276 174.224 159.553 173.552C159.841 172.869 160.246 172.336 160.769 171.952C161.302 171.568 161.926 171.376 162.641 171.376C163.761 171.376 164.62 171.744 165.217 172.48C165.814 173.216 166.113 174.235 166.113 175.536ZM164.657 175.104C164.657 174.272 164.492 173.637 164.161 173.2C163.83 172.763 163.334 172.544 162.673 172.544C161.468 172.544 160.812 173.429 160.705 175.2H164.657V175.104ZM170.512 171.376C171.088 171.376 171.605 171.456 172.064 171.616C172.522 171.776 172.96 172.016 173.376 172.336L172.752 173.264C172.368 173.019 172 172.837 171.648 172.72C171.306 172.603 170.944 172.544 170.56 172.544C170.08 172.544 169.701 172.645 169.424 172.848C169.146 173.04 169.008 173.307 169.008 173.648C169.008 173.989 169.136 174.256 169.392 174.448C169.658 174.64 170.133 174.827 170.816 175.008C171.754 175.243 172.453 175.563 172.912 175.968C173.381 176.373 173.616 176.928 173.616 177.632C173.616 178.464 173.29 179.099 172.64 179.536C172 179.973 171.216 180.192 170.288 180.192C169.008 180.192 167.946 179.824 167.104 179.088L167.888 178.192C168.602 178.736 169.392 179.008 170.256 179.008C170.81 179.008 171.248 178.896 171.568 178.672C171.898 178.437 172.064 178.123 172.064 177.728C172.064 177.44 172.005 177.211 171.888 177.04C171.77 176.859 171.568 176.704 171.28 176.576C170.992 176.437 170.57 176.293 170.016 176.144C169.12 175.909 168.469 175.595 168.064 175.2C167.669 174.805 167.472 174.304 167.472 173.696C167.472 173.259 167.6 172.864 167.856 172.512C168.122 172.149 168.485 171.872 168.944 171.68C169.413 171.477 169.936 171.376 170.512 171.376ZM177.584 171.376C178.16 171.376 178.678 171.456 179.136 171.616C179.595 171.776 180.032 172.016 180.448 172.336L179.824 173.264C179.44 173.019 179.072 172.837 178.72 172.72C178.379 172.603 178.016 172.544 177.632 172.544C177.152 172.544 176.774 172.645 176.496 172.848C176.219 173.04 176.08 173.307 176.08 173.648C176.08 173.989 176.208 174.256 176.464 174.448C176.731 174.64 177.206 174.827 177.888 175.008C178.827 175.243 179.526 175.563 179.984 175.968C180.454 176.373 180.688 176.928 180.688 177.632C180.688 178.464 180.363 179.099 179.712 179.536C179.072 179.973 178.288 180.192 177.36 180.192C176.08 180.192 175.019 179.824 174.176 179.088L174.96 178.192C175.675 178.736 176.464 179.008 177.328 179.008C177.883 179.008 178.32 178.896 178.64 178.672C178.971 178.437 179.136 178.123 179.136 177.728C179.136 177.44 179.078 177.211 178.96 177.04C178.843 176.859 178.64 176.704 178.352 176.576C178.064 176.437 177.643 176.293 177.088 176.144C176.192 175.909 175.542 175.595 175.136 175.2C174.742 174.805 174.544 174.304 174.544 173.696C174.544 173.259 174.672 172.864 174.928 172.512C175.195 172.149 175.558 171.872 176.016 171.68C176.486 171.477 177.008 171.376 177.584 171.376ZM183.997 171.568V180H182.525V171.568H183.997ZM183.245 167.52C183.554 167.52 183.805 167.616 183.997 167.808C184.189 168 184.285 168.24 184.285 168.528C184.285 168.816 184.189 169.056 183.997 169.248C183.805 169.429 183.554 169.52 183.245 169.52C182.946 169.52 182.701 169.429 182.509 169.248C182.317 169.056 182.221 168.816 182.221 168.528C182.221 168.24 182.317 168 182.509 167.808C182.701 167.616 182.946 167.52 183.245 167.52ZM189.969 171.376C191.153 171.376 192.07 171.771 192.721 172.56C193.382 173.349 193.713 174.421 193.713 175.776C193.713 176.651 193.563 177.424 193.265 178.096C192.966 178.757 192.534 179.275 191.969 179.648C191.403 180.011 190.731 180.192 189.953 180.192C188.769 180.192 187.846 179.797 187.185 179.008C186.523 178.219 186.193 177.147 186.193 175.792C186.193 174.917 186.342 174.149 186.641 173.488C186.939 172.816 187.371 172.299 187.937 171.936C188.502 171.563 189.179 171.376 189.969 171.376ZM189.969 172.56C188.507 172.56 187.777 173.637 187.777 175.792C187.777 177.936 188.502 179.008 189.953 179.008C191.403 179.008 192.129 177.931 192.129 175.776C192.129 173.632 191.409 172.56 189.969 172.56ZM199.872 171.376C200.64 171.376 201.238 171.605 201.664 172.064C202.102 172.523 202.32 173.152 202.32 173.952V180H200.848V174.16C200.848 173.563 200.736 173.141 200.512 172.896C200.288 172.651 199.958 172.528 199.52 172.528C199.072 172.528 198.678 172.656 198.336 172.912C197.995 173.168 197.675 173.536 197.376 174.016V180H195.904V171.568H197.168L197.296 172.816C197.595 172.368 197.963 172.016 198.4 171.76C198.848 171.504 199.339 171.376 199.872 171.376ZM205.423 177.968C205.743 177.968 206.01 178.075 206.223 178.288C206.437 178.501 206.543 178.763 206.543 179.072C206.543 179.381 206.437 179.648 206.223 179.872C206.01 180.085 205.743 180.192 205.423 180.192C205.114 180.192 204.853 180.085 204.639 179.872C204.426 179.648 204.319 179.381 204.319 179.072C204.319 178.763 204.426 178.501 204.639 178.288C204.853 178.075 205.114 177.968 205.423 177.968ZM205.423 172.08C205.743 172.08 206.01 172.187 206.223 172.4C206.437 172.613 206.543 172.875 206.543 173.184C206.543 173.493 206.437 173.76 206.223 173.984C206.01 174.197 205.743 174.304 205.423 174.304C205.114 174.304 204.853 174.197 204.639 173.984C204.426 173.76 204.319 173.493 204.319 173.184C204.319 172.875 204.426 172.613 204.639 172.4C204.853 172.187 205.114 172.08 205.423 172.08ZM134.462 186.976C135.828 186.976 136.884 187.264 137.63 187.84C138.377 188.405 138.75 189.253 138.75 190.384C138.75 191.589 138.361 192.485 137.582 193.072C136.804 193.659 135.769 193.952 134.478 193.952H133.086V198H131.566V186.976H134.462ZM134.414 192.752C135.3 192.752 135.972 192.581 136.43 192.24C136.9 191.899 137.134 191.285 137.134 190.4C137.134 189.611 136.9 189.04 136.43 188.688C135.972 188.336 135.31 188.16 134.446 188.16H133.086V192.752H134.414ZM145.348 196.032C145.348 196.373 145.407 196.629 145.524 196.8C145.641 196.96 145.817 197.083 146.052 197.168L145.716 198.192C145.279 198.139 144.927 198.016 144.66 197.824C144.393 197.632 144.196 197.333 144.068 196.928C143.503 197.771 142.665 198.192 141.556 198.192C140.724 198.192 140.068 197.957 139.588 197.488C139.108 197.019 138.868 196.405 138.868 195.648C138.868 194.752 139.188 194.064 139.828 193.584C140.479 193.104 141.396 192.864 142.58 192.864H143.876V192.24C143.876 191.643 143.732 191.216 143.444 190.96C143.156 190.704 142.713 190.576 142.116 190.576C141.497 190.576 140.74 190.725 139.844 191.024L139.476 189.952C140.521 189.568 141.492 189.376 142.388 189.376C143.38 189.376 144.121 189.621 144.612 190.112C145.103 190.592 145.348 191.28 145.348 192.176V196.032ZM141.892 197.088C142.735 197.088 143.396 196.651 143.876 195.776V193.84H142.772C141.215 193.84 140.436 194.416 140.436 195.568C140.436 196.069 140.559 196.448 140.804 196.704C141.049 196.96 141.412 197.088 141.892 197.088ZM150.263 189.376C150.839 189.376 151.356 189.456 151.815 189.616C152.274 189.776 152.711 190.016 153.127 190.336L152.503 191.264C152.119 191.019 151.751 190.837 151.399 190.72C151.058 190.603 150.695 190.544 150.311 190.544C149.831 190.544 149.452 190.645 149.175 190.848C148.898 191.04 148.759 191.307 148.759 191.648C148.759 191.989 148.887 192.256 149.143 192.448C149.41 192.64 149.884 192.827 150.567 193.008C151.506 193.243 152.204 193.563 152.663 193.968C153.132 194.373 153.367 194.928 153.367 195.632C153.367 196.464 153.042 197.099 152.391 197.536C151.751 197.973 150.967 198.192 150.039 198.192C148.759 198.192 147.698 197.824 146.855 197.088L147.639 196.192C148.354 196.736 149.143 197.008 150.007 197.008C150.562 197.008 150.999 196.896 151.319 196.672C151.65 196.437 151.815 196.123 151.815 195.728C151.815 195.44 151.756 195.211 151.639 195.04C151.522 194.859 151.319 194.704 151.031 194.576C150.743 194.437 150.322 194.293 149.767 194.144C148.871 193.909 148.22 193.595 147.815 193.2C147.42 192.805 147.223 192.304 147.223 191.696C147.223 191.259 147.351 190.864 147.607 190.512C147.874 190.149 148.236 189.872 148.695 189.68C149.164 189.477 149.687 189.376 150.263 189.376ZM157.336 189.376C157.912 189.376 158.429 189.456 158.888 189.616C159.346 189.776 159.784 190.016 160.2 190.336L159.576 191.264C159.192 191.019 158.824 190.837 158.472 190.72C158.13 190.603 157.768 190.544 157.384 190.544C156.904 190.544 156.525 190.645 156.248 190.848C155.97 191.04 155.832 191.307 155.832 191.648C155.832 191.989 155.96 192.256 156.216 192.448C156.482 192.64 156.957 192.827 157.64 193.008C158.578 193.243 159.277 193.563 159.736 193.968C160.205 194.373 160.44 194.928 160.44 195.632C160.44 196.464 160.114 197.099 159.464 197.536C158.824 197.973 158.04 198.192 157.112 198.192C155.832 198.192 154.77 197.824 153.928 197.088L154.712 196.192C155.426 196.736 156.216 197.008 157.08 197.008C157.634 197.008 158.072 196.896 158.392 196.672C158.722 196.437 158.888 196.123 158.888 195.728C158.888 195.44 158.829 195.211 158.712 195.04C158.594 194.859 158.392 194.704 158.104 194.576C157.816 194.437 157.394 194.293 156.84 194.144C155.944 193.909 155.293 193.595 154.888 193.2C154.493 192.805 154.296 192.304 154.296 191.696C154.296 191.259 154.424 190.864 154.68 190.512C154.946 190.149 155.309 189.872 155.768 189.68C156.237 189.477 156.76 189.376 157.336 189.376ZM163.748 189.568V198H162.276V189.568H163.748ZM162.996 185.52C163.306 185.52 163.556 185.616 163.748 185.808C163.94 186 164.036 186.24 164.036 186.528C164.036 186.816 163.94 187.056 163.748 187.248C163.556 187.429 163.306 187.52 162.996 187.52C162.698 187.52 162.452 187.429 162.26 187.248C162.068 187.056 161.972 186.816 161.972 186.528C161.972 186.24 162.068 186 162.26 185.808C162.452 185.616 162.698 185.52 162.996 185.52ZM169.72 189.376C170.904 189.376 171.821 189.771 172.472 190.56C173.133 191.349 173.464 192.421 173.464 193.776C173.464 194.651 173.315 195.424 173.016 196.096C172.717 196.757 172.285 197.275 171.72 197.648C171.155 198.011 170.483 198.192 169.704 198.192C168.52 198.192 167.597 197.797 166.936 197.008C166.275 196.219 165.944 195.147 165.944 193.792C165.944 192.917 166.093 192.149 166.392 191.488C166.691 190.816 167.123 190.299 167.688 189.936C168.253 189.563 168.931 189.376 169.72 189.376ZM169.72 190.56C168.259 190.56 167.528 191.637 167.528 193.792C167.528 195.936 168.253 197.008 169.704 197.008C171.155 197.008 171.88 195.931 171.88 193.776C171.88 191.632 171.16 190.56 169.72 190.56ZM179.624 189.376C180.392 189.376 180.989 189.605 181.416 190.064C181.853 190.523 182.072 191.152 182.072 191.952V198H180.6V192.16C180.6 191.563 180.488 191.141 180.264 190.896C180.04 190.651 179.709 190.528 179.272 190.528C178.824 190.528 178.429 190.656 178.088 190.912C177.746 191.168 177.426 191.536 177.128 192.016V198H175.656V189.568H176.92L177.048 190.816C177.346 190.368 177.714 190.016 178.152 189.76C178.6 189.504 179.09 189.376 179.624 189.376ZM185.175 195.968C185.495 195.968 185.761 196.075 185.975 196.288C186.188 196.501 186.295 196.763 186.295 197.072C186.295 197.381 186.188 197.648 185.975 197.872C185.761 198.085 185.495 198.192 185.175 198.192C184.865 198.192 184.604 198.085 184.391 197.872C184.177 197.648 184.071 197.381 184.071 197.072C184.071 196.763 184.177 196.501 184.391 196.288C184.604 196.075 184.865 195.968 185.175 195.968ZM185.175 190.08C185.495 190.08 185.761 190.187 185.975 190.4C186.188 190.613 186.295 190.875 186.295 191.184C186.295 191.493 186.188 191.76 185.975 191.984C185.761 192.197 185.495 192.304 185.175 192.304C184.865 192.304 184.604 192.197 184.391 191.984C184.177 191.76 184.071 191.493 184.071 191.184C184.071 190.875 184.177 190.613 184.391 190.4C184.604 190.187 184.865 190.08 185.175 190.08Z" fill="#0EE6B7"/>
<path d="M107.904 271.968C108.224 271.968 108.491 272.075 108.704 272.288C108.917 272.501 109.024 272.763 109.024 273.072C109.024 273.381 108.917 273.648 108.704 273.872C108.491 274.085 108.224 274.192 107.904 274.192C107.595 274.192 107.333 274.085 107.12 273.872C106.907 273.648 106.8 273.381 106.8 273.072C106.8 272.763 106.907 272.501 107.12 272.288C107.333 272.075 107.595 271.968 107.904 271.968ZM117.172 262.976L116.996 264.192H112.724V267.792H116.436V269.008H112.724V272.784H117.3V274H111.204V262.976H117.172ZM125.662 262.176V274H124.366L124.222 272.832C123.944 273.259 123.598 273.595 123.182 273.84C122.766 274.075 122.302 274.192 121.79 274.192C120.787 274.192 120.003 273.797 119.438 273.008C118.883 272.219 118.606 271.157 118.606 269.824C118.606 268.96 118.739 268.192 119.006 267.52C119.272 266.848 119.656 266.325 120.158 265.952C120.659 265.568 121.246 265.376 121.918 265.376C122.782 265.376 123.539 265.723 124.19 266.416V262L125.662 262.176ZM122.11 273.024C122.558 273.024 122.942 272.923 123.262 272.72C123.582 272.507 123.891 272.192 124.19 271.776V267.648C123.912 267.285 123.614 267.013 123.294 266.832C122.984 266.64 122.632 266.544 122.238 266.544C121.587 266.544 121.08 266.816 120.718 267.36C120.366 267.904 120.19 268.715 120.19 269.792C120.19 270.88 120.355 271.691 120.686 272.224C121.016 272.757 121.491 273.024 122.11 273.024ZM134.728 274H133.464L133.352 272.688C133.032 273.211 132.664 273.595 132.248 273.84C131.832 274.075 131.326 274.192 130.728 274.192C129.992 274.192 129.416 273.968 129 273.52C128.584 273.072 128.376 272.437 128.376 271.616V265.568H129.848V271.456C129.848 272.032 129.95 272.443 130.152 272.688C130.355 272.923 130.686 273.04 131.144 273.04C131.966 273.04 132.67 272.555 133.256 271.584V265.568H134.728V274ZM140.601 265.376C141.102 265.376 141.561 265.451 141.977 265.6C142.393 265.739 142.793 265.968 143.177 266.288L142.473 267.216C142.174 267.003 141.881 266.848 141.593 266.752C141.315 266.645 141.006 266.592 140.665 266.592C139.982 266.592 139.449 266.864 139.065 267.408C138.691 267.952 138.505 268.757 138.505 269.824C138.505 270.891 138.691 271.68 139.065 272.192C139.438 272.693 139.971 272.944 140.665 272.944C140.995 272.944 141.299 272.896 141.577 272.8C141.854 272.693 142.163 272.528 142.505 272.304L143.177 273.264C142.409 273.883 141.55 274.192 140.601 274.192C139.459 274.192 138.558 273.808 137.897 273.04C137.246 272.272 136.921 271.211 136.921 269.856C136.921 268.96 137.07 268.176 137.369 267.504C137.667 266.832 138.089 266.309 138.633 265.936C139.187 265.563 139.843 265.376 140.601 265.376ZM150.453 272.032C150.453 272.373 150.512 272.629 150.629 272.8C150.746 272.96 150.922 273.083 151.157 273.168L150.821 274.192C150.384 274.139 150.032 274.016 149.765 273.824C149.498 273.632 149.301 273.333 149.173 272.928C148.608 273.771 147.77 274.192 146.661 274.192C145.829 274.192 145.173 273.957 144.693 273.488C144.213 273.019 143.973 272.405 143.973 271.648C143.973 270.752 144.293 270.064 144.933 269.584C145.584 269.104 146.501 268.864 147.685 268.864H148.981V268.24C148.981 267.643 148.837 267.216 148.549 266.96C148.261 266.704 147.818 266.576 147.221 266.576C146.602 266.576 145.845 266.725 144.949 267.024L144.581 265.952C145.626 265.568 146.597 265.376 147.493 265.376C148.485 265.376 149.226 265.621 149.717 266.112C150.208 266.592 150.453 267.28 150.453 268.176V272.032ZM146.997 273.088C147.84 273.088 148.501 272.651 148.981 271.776V269.84H147.877C146.32 269.84 145.541 270.416 145.541 271.568C145.541 272.069 145.664 272.448 145.909 272.704C146.154 272.96 146.517 273.088 146.997 273.088ZM157.492 273.616C156.938 274 156.308 274.192 155.604 274.192C154.89 274.192 154.33 273.989 153.924 273.584C153.53 273.168 153.332 272.571 153.332 271.792V266.704H151.86V265.568H153.332V263.664L154.804 263.488V265.568H156.804L156.644 266.704H154.804V271.728C154.804 272.165 154.879 272.485 155.028 272.688C155.188 272.88 155.45 272.976 155.812 272.976C156.143 272.976 156.516 272.864 156.932 272.64L157.492 273.616ZM160.249 265.568V274H158.777V265.568H160.249ZM159.497 261.52C159.807 261.52 160.057 261.616 160.249 261.808C160.441 262 160.537 262.24 160.537 262.528C160.537 262.816 160.441 263.056 160.249 263.248C160.057 263.429 159.807 263.52 159.497 263.52C159.199 263.52 158.953 263.429 158.761 263.248C158.569 263.056 158.473 262.816 158.473 262.528C158.473 262.24 158.569 262 158.761 261.808C158.953 261.616 159.199 261.52 159.497 261.52ZM166.221 265.376C167.405 265.376 168.322 265.771 168.973 266.56C169.634 267.349 169.965 268.421 169.965 269.776C169.965 270.651 169.816 271.424 169.517 272.096C169.218 272.757 168.786 273.275 168.221 273.648C167.656 274.011 166.984 274.192 166.205 274.192C165.021 274.192 164.098 273.797 163.437 273.008C162.776 272.219 162.445 271.147 162.445 269.792C162.445 268.917 162.594 268.149 162.893 267.488C163.192 266.816 163.624 266.299 164.189 265.936C164.754 265.563 165.432 265.376 166.221 265.376ZM166.221 266.56C164.76 266.56 164.029 267.637 164.029 269.792C164.029 271.936 164.754 273.008 166.205 273.008C167.656 273.008 168.381 271.931 168.381 269.776C168.381 267.632 167.661 266.56 166.221 266.56ZM176.125 265.376C176.893 265.376 177.49 265.605 177.917 266.064C178.354 266.523 178.573 267.152 178.573 267.952V274H177.101V268.16C177.101 267.563 176.989 267.141 176.765 266.896C176.541 266.651 176.21 266.528 175.773 266.528C175.325 266.528 174.93 266.656 174.589 266.912C174.248 267.168 173.928 267.536 173.629 268.016V274H172.157V265.568H173.421L173.549 266.816C173.848 266.368 174.216 266.016 174.653 265.76C175.101 265.504 175.592 265.376 176.125 265.376Z" fill="#7000FF"/>
<path d="M188.198 261.76C187.654 261.76 187.265 261.845 187.03 262.016C186.796 262.176 186.678 262.453 186.678 262.848V266.672C186.678 267.216 186.582 267.611 186.39 267.856C186.198 268.091 185.894 268.277 185.478 268.416C185.905 268.565 186.209 268.752 186.39 268.976C186.582 269.2 186.678 269.584 186.678 270.128V273.952C186.678 274.347 186.796 274.624 187.03 274.784C187.265 274.955 187.654 275.04 188.198 275.04V276.176C187.132 276.176 186.38 275.989 185.942 275.616C185.505 275.253 185.286 274.645 185.286 273.792V270.24C185.286 269.792 185.201 269.477 185.03 269.296C184.87 269.115 184.582 269.024 184.166 269.024V267.808C184.582 267.808 184.87 267.712 185.03 267.52C185.201 267.328 185.286 267.008 185.286 266.56V263.008C185.286 262.155 185.505 261.547 185.942 261.184C186.38 260.811 187.132 260.624 188.198 260.624V261.76ZM237.386 296.944V298.176H235.466V310.64H237.386V311.856H234.074V296.944H237.386ZM245.304 308.464C245.304 309.552 245.064 310.368 244.584 310.912C244.115 311.456 243.395 311.883 242.424 312.192L242.024 311.088C242.515 310.896 242.883 310.688 243.128 310.464C243.374 310.24 243.544 309.968 243.64 309.648C243.736 309.328 243.784 308.912 243.784 308.4V298.976H245.304V308.464ZM250.899 298.784C251.635 298.784 252.265 298.891 252.787 299.104C253.31 299.307 253.817 299.627 254.307 300.064L253.475 300.992C253.059 300.661 252.649 300.421 252.243 300.272C251.849 300.112 251.422 300.032 250.963 300.032C250.387 300.032 249.913 300.165 249.539 300.432C249.166 300.699 248.979 301.088 248.979 301.6C248.979 301.92 249.043 302.192 249.171 302.416C249.299 302.629 249.534 302.827 249.875 303.008C250.227 303.189 250.734 303.381 251.395 303.584C252.089 303.797 252.665 304.027 253.123 304.272C253.582 304.517 253.95 304.859 254.227 305.296C254.515 305.723 254.659 306.267 254.659 306.928C254.659 307.568 254.499 308.133 254.179 308.624C253.87 309.115 253.417 309.499 252.819 309.776C252.233 310.053 251.534 310.192 250.723 310.192C249.198 310.192 247.95 309.717 246.979 308.768L247.811 307.84C248.259 308.203 248.713 308.48 249.171 308.672C249.63 308.853 250.142 308.944 250.707 308.944C251.39 308.944 251.955 308.779 252.403 308.448C252.851 308.107 253.075 307.616 253.075 306.976C253.075 306.613 253.006 306.315 252.867 306.08C252.729 305.835 252.489 305.616 252.147 305.424C251.817 305.232 251.331 305.04 250.691 304.848C249.561 304.507 248.734 304.096 248.211 303.616C247.689 303.136 247.427 302.485 247.427 301.664C247.427 301.109 247.571 300.613 247.859 300.176C248.158 299.739 248.569 299.397 249.091 299.152C249.625 298.907 250.227 298.784 250.899 298.784ZM264.509 298.784C265.17 298.784 265.725 298.869 266.173 299.04C266.631 299.211 267.095 299.488 267.565 299.872L266.733 300.848C266.061 300.304 265.351 300.032 264.605 300.032C263.687 300.032 262.946 300.384 262.381 301.088C261.826 301.792 261.549 302.923 261.549 304.48C261.549 305.995 261.826 307.115 262.381 307.84C262.935 308.555 263.671 308.912 264.589 308.912C265.058 308.912 265.469 308.832 265.821 308.672C266.173 308.512 266.546 308.288 266.941 308L267.693 308.96C267.351 309.312 266.914 309.605 266.381 309.84C265.847 310.075 265.234 310.192 264.541 310.192C263.645 310.192 262.845 309.973 262.141 309.536C261.447 309.088 260.903 308.437 260.509 307.584C260.125 306.72 259.933 305.685 259.933 304.48C259.933 303.275 260.135 302.245 260.541 301.392C260.946 300.528 261.495 299.877 262.189 299.44C262.882 299.003 263.655 298.784 264.509 298.784ZM272.141 301.376C273.325 301.376 274.242 301.771 274.893 302.56C275.554 303.349 275.885 304.421 275.885 305.776C275.885 306.651 275.736 307.424 275.437 308.096C275.138 308.757 274.706 309.275 274.141 309.648C273.576 310.011 272.904 310.192 272.125 310.192C270.941 310.192 270.018 309.797 269.357 309.008C268.696 308.219 268.365 307.147 268.365 305.792C268.365 304.917 268.514 304.149 268.813 303.488C269.112 302.816 269.544 302.299 270.109 301.936C270.674 301.563 271.352 301.376 272.141 301.376ZM272.141 302.56C270.68 302.56 269.949 303.637 269.949 305.792C269.949 307.936 270.674 309.008 272.125 309.008C273.576 309.008 274.301 307.931 274.301 305.776C274.301 303.632 273.581 302.56 272.141 302.56ZM284.349 310H283.085L282.973 308.688C282.653 309.211 282.285 309.595 281.869 309.84C281.453 310.075 280.946 310.192 280.349 310.192C279.613 310.192 279.037 309.968 278.621 309.52C278.205 309.072 277.997 308.437 277.997 307.616V301.568H279.469V307.456C279.469 308.032 279.57 308.443 279.773 308.688C279.976 308.923 280.306 309.04 280.765 309.04C281.586 309.04 282.29 308.555 282.877 307.584V301.568H284.349V310ZM290.813 301.376C291.112 301.376 291.389 301.408 291.645 301.472L291.373 302.912C291.117 302.848 290.872 302.816 290.637 302.816C290.115 302.816 289.693 303.008 289.373 303.392C289.053 303.776 288.803 304.373 288.621 305.184V310H287.149V301.568H288.413L288.557 303.28C288.781 302.651 289.085 302.176 289.469 301.856C289.853 301.536 290.301 301.376 290.813 301.376ZM295.135 301.376C295.711 301.376 296.228 301.456 296.687 301.616C297.146 301.776 297.583 302.016 297.999 302.336L297.375 303.264C296.991 303.019 296.623 302.837 296.271 302.72C295.93 302.603 295.567 302.544 295.183 302.544C294.703 302.544 294.324 302.645 294.047 302.848C293.77 303.04 293.631 303.307 293.631 303.648C293.631 303.989 293.759 304.256 294.015 304.448C294.282 304.64 294.756 304.827 295.439 305.008C296.378 305.243 297.076 305.563 297.535 305.968C298.004 306.373 298.239 306.928 298.239 307.632C298.239 308.464 297.914 309.099 297.263 309.536C296.623 309.973 295.839 310.192 294.911 310.192C293.631 310.192 292.57 309.824 291.727 309.088L292.511 308.192C293.226 308.736 294.015 309.008 294.879 309.008C295.434 309.008 295.871 308.896 296.191 308.672C296.522 308.437 296.687 308.123 296.687 307.728C296.687 307.44 296.628 307.211 296.511 307.04C296.394 306.859 296.191 306.704 295.903 306.576C295.615 306.437 295.194 306.293 294.639 306.144C293.743 305.909 293.092 305.595 292.687 305.2C292.292 304.805 292.095 304.304 292.095 303.696C292.095 303.259 292.223 302.864 292.479 302.512C292.746 302.149 293.108 301.872 293.567 301.68C294.036 301.477 294.559 301.376 295.135 301.376ZM306.444 305.536C306.444 305.781 306.433 306.032 306.412 306.288H301.036C301.1 307.216 301.334 307.899 301.74 308.336C302.145 308.773 302.668 308.992 303.308 308.992C303.713 308.992 304.086 308.933 304.428 308.816C304.769 308.699 305.126 308.512 305.5 308.256L306.14 309.136C305.244 309.84 304.262 310.192 303.196 310.192C302.022 310.192 301.105 309.808 300.444 309.04C299.793 308.272 299.468 307.216 299.468 305.872C299.468 304.997 299.606 304.224 299.884 303.552C300.172 302.869 300.577 302.336 301.1 301.952C301.633 301.568 302.257 301.376 302.972 301.376C304.092 301.376 304.95 301.744 305.548 302.48C306.145 303.216 306.444 304.235 306.444 305.536ZM304.988 305.104C304.988 304.272 304.822 303.637 304.492 303.2C304.161 302.763 303.665 302.544 303.004 302.544C301.798 302.544 301.142 303.429 301.036 305.2H304.988V305.104ZM308.782 307.968C309.102 307.968 309.369 308.075 309.582 308.288C309.795 308.501 309.902 308.763 309.902 309.072C309.902 309.403 309.806 309.781 309.614 310.208L308.542 312.656H307.486L308.126 310C307.987 309.893 307.875 309.76 307.79 309.6C307.715 309.44 307.678 309.264 307.678 309.072C307.678 308.763 307.785 308.501 307.998 308.288C308.211 308.075 308.473 307.968 308.782 307.968ZM323.276 298.976L319.756 310H318.124L314.572 298.976H316.204L318.972 308.352L321.74 298.976H323.276ZM330.606 310H329.342L329.23 308.688C328.91 309.211 328.542 309.595 328.126 309.84C327.71 310.075 327.204 310.192 326.606 310.192C325.87 310.192 325.294 309.968 324.878 309.52C324.462 309.072 324.254 308.437 324.254 307.616V301.568H325.726V307.456C325.726 308.032 325.828 308.443 326.03 308.688C326.233 308.923 326.564 309.04 327.022 309.04C327.844 309.04 328.548 308.555 329.134 307.584V301.568H330.606V310ZM339.775 305.536C339.775 305.781 339.764 306.032 339.743 306.288H334.367C334.431 307.216 334.666 307.899 335.071 308.336C335.476 308.773 335.999 308.992 336.639 308.992C337.044 308.992 337.418 308.933 337.759 308.816C338.1 308.699 338.458 308.512 338.831 308.256L339.471 309.136C338.575 309.84 337.594 310.192 336.527 310.192C335.354 310.192 334.436 309.808 333.775 309.04C333.124 308.272 332.799 307.216 332.799 305.872C332.799 304.997 332.938 304.224 333.215 303.552C333.503 302.869 333.908 302.336 334.431 301.952C334.964 301.568 335.588 301.376 336.303 301.376C337.423 301.376 338.282 301.744 338.879 302.48C339.476 303.216 339.775 304.235 339.775 305.536ZM338.319 305.104C338.319 304.272 338.154 303.637 337.823 303.2C337.492 302.763 336.996 302.544 336.335 302.544C335.13 302.544 334.474 303.429 334.367 305.2H338.319V305.104ZM348.472 296.944V311.856H345.16V310.64H347.08V298.176H345.16V296.944H348.472ZM351.18 307.968C351.5 307.968 351.767 308.075 351.98 308.288C352.194 308.501 352.3 308.763 352.3 309.072C352.3 309.403 352.204 309.781 352.012 310.208L350.94 312.656H349.884L350.524 310C350.386 309.893 350.274 309.76 350.188 309.6C350.114 309.44 350.076 309.264 350.076 309.072C350.076 308.763 350.183 308.501 350.396 308.288C350.61 308.075 350.871 307.968 351.18 307.968ZM351.18 302.08C351.5 302.08 351.767 302.187 351.98 302.4C352.194 302.613 352.3 302.875 352.3 303.184C352.3 303.493 352.194 303.76 351.98 303.984C351.767 304.197 351.5 304.304 351.18 304.304C350.871 304.304 350.61 304.197 350.396 303.984C350.183 303.76 350.076 303.493 350.076 303.184C350.076 302.875 350.183 302.613 350.396 302.4C350.61 302.187 350.871 302.08 351.18 302.08ZM213.204 314.944V316.176H211.284V328.64H213.204V329.856H209.892V314.944H213.204ZM225.522 328V322.832H220.882V328H219.362V316.976H220.882V321.584H225.522V316.976H227.042V328H225.522ZM236.509 316.976L236.349 318.272H233.293V328H231.773V318.272H228.637V316.976H236.509ZM247.567 328H246.095L245.711 323.024C245.551 321.072 245.46 319.573 245.439 318.528L243.055 326.752H241.631L239.119 318.512C239.119 319.845 239.049 321.387 238.911 323.136L238.543 328H237.103L238.015 316.976H240.063L242.383 324.992L244.591 316.976H246.655L247.567 328ZM251.444 316.976V326.672H255.972L255.796 328H249.924V316.976H251.444ZM261.132 315.088L262.38 315.376L258.684 329.664L257.42 329.36L261.132 315.088ZM268.956 316.784C269.617 316.784 270.172 316.869 270.62 317.04C271.079 317.211 271.543 317.488 272.012 317.872L271.18 318.848C270.508 318.304 269.799 318.032 269.052 318.032C268.135 318.032 267.393 318.384 266.828 319.088C266.273 319.792 265.996 320.923 265.996 322.48C265.996 323.995 266.273 325.115 266.828 325.84C267.383 326.555 268.119 326.912 269.036 326.912C269.505 326.912 269.916 326.832 270.268 326.672C270.62 326.512 270.993 326.288 271.388 326L272.14 326.96C271.799 327.312 271.361 327.605 270.828 327.84C270.295 328.075 269.681 328.192 268.988 328.192C268.092 328.192 267.292 327.973 266.588 327.536C265.895 327.088 265.351 326.437 264.956 325.584C264.572 324.72 264.38 323.685 264.38 322.48C264.38 321.275 264.583 320.245 264.988 319.392C265.393 318.528 265.943 317.877 266.636 317.44C267.329 317.003 268.103 316.784 268.956 316.784ZM276.377 316.784C277.113 316.784 277.742 316.891 278.265 317.104C278.788 317.307 279.294 317.627 279.785 318.064L278.953 318.992C278.537 318.661 278.126 318.421 277.721 318.272C277.326 318.112 276.9 318.032 276.441 318.032C275.865 318.032 275.39 318.165 275.017 318.432C274.644 318.699 274.457 319.088 274.457 319.6C274.457 319.92 274.521 320.192 274.649 320.416C274.777 320.629 275.012 320.827 275.353 321.008C275.705 321.189 276.212 321.381 276.873 321.584C277.566 321.797 278.142 322.027 278.601 322.272C279.06 322.517 279.428 322.859 279.705 323.296C279.993 323.723 280.137 324.267 280.137 324.928C280.137 325.568 279.977 326.133 279.657 326.624C279.348 327.115 278.894 327.499 278.297 327.776C277.71 328.053 277.012 328.192 276.201 328.192C274.676 328.192 273.428 327.717 272.457 326.768L273.289 325.84C273.737 326.203 274.19 326.48 274.649 326.672C275.108 326.853 275.62 326.944 276.185 326.944C276.868 326.944 277.433 326.779 277.881 326.448C278.329 326.107 278.553 325.616 278.553 324.976C278.553 324.613 278.484 324.315 278.345 324.08C278.206 323.835 277.966 323.616 277.625 323.424C277.294 323.232 276.809 323.04 276.169 322.848C275.038 322.507 274.212 322.096 273.689 321.616C273.166 321.136 272.905 320.485 272.905 319.664C272.905 319.109 273.049 318.613 273.337 318.176C273.636 317.739 274.046 317.397 274.569 317.152C275.102 316.907 275.705 316.784 276.377 316.784ZM284.668 316.784C285.404 316.784 286.033 316.891 286.556 317.104C287.079 317.307 287.585 317.627 288.076 318.064L287.244 318.992C286.828 318.661 286.417 318.421 286.012 318.272C285.617 318.112 285.191 318.032 284.732 318.032C284.156 318.032 283.681 318.165 283.308 318.432C282.935 318.699 282.748 319.088 282.748 319.6C282.748 319.92 282.812 320.192 282.94 320.416C283.068 320.629 283.303 320.827 283.644 321.008C283.996 321.189 284.503 321.381 285.164 321.584C285.857 321.797 286.433 322.027 286.892 322.272C287.351 322.517 287.719 322.859 287.996 323.296C288.284 323.723 288.428 324.267 288.428 324.928C288.428 325.568 288.268 326.133 287.948 326.624C287.639 327.115 287.185 327.499 286.588 327.776C286.001 328.053 285.303 328.192 284.492 328.192C282.967 328.192 281.719 327.717 280.748 326.768L281.58 325.84C282.028 326.203 282.481 326.48 282.94 326.672C283.399 326.853 283.911 326.944 284.476 326.944C285.159 326.944 285.724 326.779 286.172 326.448C286.62 326.107 286.844 325.616 286.844 324.976C286.844 324.613 286.775 324.315 286.636 324.08C286.497 323.835 286.257 323.616 285.916 323.424C285.585 323.232 285.1 323.04 284.46 322.848C283.329 322.507 282.503 322.096 281.98 321.616C281.457 321.136 281.196 320.485 281.196 319.664C281.196 319.109 281.34 318.613 281.628 318.176C281.927 317.739 282.337 317.397 282.86 317.152C283.393 316.907 283.996 316.784 284.668 316.784ZM298.277 316.784C298.939 316.784 299.493 316.869 299.941 317.04C300.4 317.211 300.864 317.488 301.333 317.872L300.501 318.848C299.829 318.304 299.12 318.032 298.373 318.032C297.456 318.032 296.715 318.384 296.149 319.088C295.595 319.792 295.317 320.923 295.317 322.48C295.317 323.995 295.595 325.115 296.149 325.84C296.704 326.555 297.44 326.912 298.357 326.912C298.827 326.912 299.237 326.832 299.589 326.672C299.941 326.512 300.315 326.288 300.709 326L301.461 326.96C301.12 327.312 300.683 327.605 300.149 327.84C299.616 328.075 299.003 328.192 298.309 328.192C297.413 328.192 296.613 327.973 295.909 327.536C295.216 327.088 294.672 326.437 294.277 325.584C293.893 324.72 293.701 323.685 293.701 322.48C293.701 321.275 293.904 320.245 294.309 319.392C294.715 318.528 295.264 317.877 295.957 317.44C296.651 317.003 297.424 316.784 298.277 316.784ZM305.91 319.376C307.094 319.376 308.011 319.771 308.662 320.56C309.323 321.349 309.654 322.421 309.654 323.776C309.654 324.651 309.505 325.424 309.206 326.096C308.907 326.757 308.475 327.275 307.91 327.648C307.345 328.011 306.673 328.192 305.894 328.192C304.71 328.192 303.787 327.797 303.126 327.008C302.465 326.219 302.134 325.147 302.134 323.792C302.134 322.917 302.283 322.149 302.582 321.488C302.881 320.816 303.313 320.299 303.878 319.936C304.443 319.563 305.121 319.376 305.91 319.376ZM305.91 320.56C304.449 320.56 303.718 321.637 303.718 323.792C303.718 325.936 304.443 327.008 305.894 327.008C307.345 327.008 308.07 325.931 308.07 323.776C308.07 321.632 307.35 320.56 305.91 320.56ZM318.118 328H316.854L316.742 326.688C316.422 327.211 316.054 327.595 315.638 327.84C315.222 328.075 314.715 328.192 314.118 328.192C313.382 328.192 312.806 327.968 312.39 327.52C311.974 327.072 311.766 326.437 311.766 325.616V319.568H313.238V325.456C313.238 326.032 313.339 326.443 313.542 326.688C313.744 326.923 314.075 327.04 314.534 327.04C315.355 327.04 316.059 326.555 316.646 325.584V319.568H318.118V328ZM324.582 319.376C324.881 319.376 325.158 319.408 325.414 319.472L325.142 320.912C324.886 320.848 324.641 320.816 324.406 320.816C323.883 320.816 323.462 321.008 323.142 321.392C322.822 321.776 322.571 322.373 322.39 323.184V328H320.918V319.568H322.182L322.326 321.28C322.55 320.651 322.854 320.176 323.238 319.856C323.622 319.536 324.07 319.376 324.582 319.376ZM328.904 319.376C329.48 319.376 329.997 319.456 330.456 319.616C330.914 319.776 331.352 320.016 331.768 320.336L331.144 321.264C330.76 321.019 330.392 320.837 330.04 320.72C329.698 320.603 329.336 320.544 328.952 320.544C328.472 320.544 328.093 320.645 327.816 320.848C327.538 321.04 327.4 321.307 327.4 321.648C327.4 321.989 327.528 322.256 327.784 322.448C328.05 322.64 328.525 322.827 329.208 323.008C330.146 323.243 330.845 323.563 331.304 323.968C331.773 324.373 332.008 324.928 332.008 325.632C332.008 326.464 331.682 327.099 331.032 327.536C330.392 327.973 329.608 328.192 328.68 328.192C327.4 328.192 326.338 327.824 325.496 327.088L326.28 326.192C326.994 326.736 327.784 327.008 328.648 327.008C329.202 327.008 329.64 326.896 329.96 326.672C330.29 326.437 330.456 326.123 330.456 325.728C330.456 325.44 330.397 325.211 330.28 325.04C330.162 324.859 329.96 324.704 329.672 324.576C329.384 324.437 328.962 324.293 328.408 324.144C327.512 323.909 326.861 323.595 326.456 323.2C326.061 322.805 325.864 322.304 325.864 321.696C325.864 321.259 325.992 320.864 326.248 320.512C326.514 320.149 326.877 319.872 327.336 319.68C327.805 319.477 328.328 319.376 328.904 319.376ZM340.212 323.536C340.212 323.781 340.202 324.032 340.18 324.288H334.804C334.868 325.216 335.103 325.899 335.508 326.336C335.914 326.773 336.436 326.992 337.076 326.992C337.482 326.992 337.855 326.933 338.196 326.816C338.538 326.699 338.895 326.512 339.268 326.256L339.908 327.136C339.012 327.84 338.031 328.192 336.964 328.192C335.791 328.192 334.874 327.808 334.212 327.04C333.562 326.272 333.236 325.216 333.236 323.872C333.236 322.997 333.375 322.224 333.652 321.552C333.94 320.869 334.346 320.336 334.868 319.952C335.402 319.568 336.026 319.376 336.74 319.376C337.86 319.376 338.719 319.744 339.316 320.48C339.914 321.216 340.212 322.235 340.212 323.536ZM338.756 323.104C338.756 322.272 338.591 321.637 338.26 321.2C337.93 320.763 337.434 320.544 336.772 320.544C335.567 320.544 334.911 321.429 334.804 323.2H338.756V323.104ZM344.611 319.376C345.187 319.376 345.704 319.456 346.163 319.616C346.622 319.776 347.059 320.016 347.475 320.336L346.851 321.264C346.467 321.019 346.099 320.837 345.747 320.72C345.406 320.603 345.043 320.544 344.659 320.544C344.179 320.544 343.8 320.645 343.523 320.848C343.246 321.04 343.107 321.307 343.107 321.648C343.107 321.989 343.235 322.256 343.491 322.448C343.758 322.64 344.232 322.827 344.915 323.008C345.854 323.243 346.552 323.563 347.011 323.968C347.48 324.373 347.715 324.928 347.715 325.632C347.715 326.464 347.39 327.099 346.739 327.536C346.099 327.973 345.315 328.192 344.387 328.192C343.107 328.192 342.046 327.824 341.203 327.088L341.987 326.192C342.702 326.736 343.491 327.008 344.355 327.008C344.91 327.008 345.347 326.896 345.667 326.672C345.998 326.437 346.163 326.123 346.163 325.728C346.163 325.44 346.104 325.211 345.987 325.04C345.87 324.859 345.667 324.704 345.379 324.576C345.091 324.437 344.67 324.293 344.115 324.144C343.219 323.909 342.568 323.595 342.163 323.2C341.768 322.805 341.571 322.304 341.571 321.696C341.571 321.259 341.699 320.864 341.955 320.512C342.222 320.149 342.584 319.872 343.043 319.68C343.512 319.477 344.035 319.376 344.611 319.376ZM356.138 314.944V329.856H352.826V328.64H354.746V316.176H352.826V314.944H356.138ZM358.847 325.968C359.167 325.968 359.433 326.075 359.647 326.288C359.86 326.501 359.967 326.763 359.967 327.072C359.967 327.403 359.871 327.781 359.679 328.208L358.607 330.656H357.551L358.191 328C358.052 327.893 357.94 327.76 357.855 327.6C357.78 327.44 357.743 327.264 357.743 327.072C357.743 326.763 357.849 326.501 358.063 326.288C358.276 326.075 358.537 325.968 358.847 325.968ZM358.847 320.08C359.167 320.08 359.433 320.187 359.647 320.4C359.86 320.613 359.967 320.875 359.967 321.184C359.967 321.493 359.86 321.76 359.647 321.984C359.433 322.197 359.167 322.304 358.847 322.304C358.537 322.304 358.276 322.197 358.063 321.984C357.849 321.76 357.743 321.493 357.743 321.184C357.743 320.875 357.849 320.613 358.063 320.4C358.276 320.187 358.537 320.08 358.847 320.08ZM106.72 350.624C107.787 350.624 108.539 350.811 108.976 351.184C109.413 351.547 109.632 352.155 109.632 353.008V356.56C109.632 357.008 109.712 357.328 109.872 357.52C110.043 357.712 110.336 357.808 110.752 357.808V359.024C110.336 359.024 110.043 359.115 109.872 359.296C109.712 359.477 109.632 359.792 109.632 360.24V363.792C109.632 364.645 109.413 365.253 108.976 365.616C108.539 365.989 107.787 366.176 106.72 366.176V365.04C107.264 365.04 107.653 364.955 107.888 364.784C108.123 364.624 108.24 364.347 108.24 363.952V360.128C108.24 359.584 108.331 359.2 108.512 358.976C108.704 358.752 109.013 358.565 109.44 358.416C109.024 358.277 108.72 358.091 108.528 357.856C108.336 357.611 108.24 357.216 108.24 356.672V352.848C108.24 352.453 108.123 352.176 107.888 352.016C107.653 351.845 107.264 351.76 106.72 351.76V350.624Z" fill="white"/>
<path d="M137.598 298.976V300.208L132.142 308.704H137.598L137.422 310H130.446V308.784L135.95 300.256H131.022V298.976H137.598ZM146.12 298.976L145.959 300.272H142.904V310H141.383V300.272H138.247V298.976H146.12ZM157.177 310H155.705L155.321 305.024C155.161 303.072 155.07 301.573 155.049 300.528L152.665 308.752H151.241L148.729 300.512C148.729 301.845 148.659 303.387 148.521 305.136L148.153 310H146.713L147.625 298.976H149.673L151.993 306.992L154.201 298.976H156.265L157.177 310ZM169.4 310L168.568 307.232H164.392L163.56 310H162.024L165.56 298.976H167.48L171 310H169.4ZM164.76 306H168.2L166.488 300.24L164.76 306ZM175.452 301.376C175.953 301.376 176.412 301.451 176.828 301.6C177.244 301.739 177.644 301.968 178.028 302.288L177.324 303.216C177.025 303.003 176.732 302.848 176.444 302.752C176.167 302.645 175.857 302.592 175.516 302.592C174.833 302.592 174.3 302.864 173.916 303.408C173.543 303.952 173.356 304.757 173.356 305.824C173.356 306.891 173.543 307.68 173.916 308.192C174.289 308.693 174.823 308.944 175.516 308.944C175.847 308.944 176.151 308.896 176.428 308.8C176.705 308.693 177.015 308.528 177.356 308.304L178.028 309.264C177.26 309.883 176.401 310.192 175.452 310.192C174.311 310.192 173.409 309.808 172.748 309.04C172.097 308.272 171.772 307.211 171.772 305.856C171.772 304.96 171.921 304.176 172.22 303.504C172.519 302.832 172.94 302.309 173.484 301.936C174.039 301.563 174.695 301.376 175.452 301.376ZM185.304 308.032C185.304 308.373 185.363 308.629 185.48 308.8C185.598 308.96 185.774 309.083 186.008 309.168L185.672 310.192C185.235 310.139 184.883 310.016 184.616 309.824C184.35 309.632 184.152 309.333 184.024 308.928C183.459 309.771 182.622 310.192 181.512 310.192C180.68 310.192 180.024 309.957 179.544 309.488C179.064 309.019 178.824 308.405 178.824 307.648C178.824 306.752 179.144 306.064 179.784 305.584C180.435 305.104 181.352 304.864 182.536 304.864H183.832V304.24C183.832 303.643 183.688 303.216 183.4 302.96C183.112 302.704 182.67 302.576 182.072 302.576C181.454 302.576 180.696 302.725 179.8 303.024L179.432 301.952C180.478 301.568 181.448 301.376 182.344 301.376C183.336 301.376 184.078 301.621 184.568 302.112C185.059 302.592 185.304 303.28 185.304 304.176V308.032ZM181.848 309.088C182.691 309.088 183.352 308.651 183.832 307.776V305.84H182.728C181.171 305.84 180.392 306.416 180.392 307.568C180.392 308.069 180.515 308.448 180.76 308.704C181.006 308.96 181.368 309.088 181.848 309.088ZM194.615 298.176V310H193.319L193.175 308.832C192.898 309.259 192.551 309.595 192.135 309.84C191.719 310.075 191.255 310.192 190.743 310.192C189.741 310.192 188.957 309.797 188.391 309.008C187.837 308.219 187.559 307.157 187.559 305.824C187.559 304.96 187.693 304.192 187.959 303.52C188.226 302.848 188.61 302.325 189.111 301.952C189.613 301.568 190.199 301.376 190.871 301.376C191.735 301.376 192.493 301.723 193.143 302.416V298L194.615 298.176ZM191.063 309.024C191.511 309.024 191.895 308.923 192.215 308.72C192.535 308.507 192.845 308.192 193.143 307.776V303.648C192.866 303.285 192.567 303.013 192.247 302.832C191.938 302.64 191.586 302.544 191.191 302.544C190.541 302.544 190.034 302.816 189.671 303.36C189.319 303.904 189.143 304.715 189.143 305.792C189.143 306.88 189.309 307.691 189.639 308.224C189.97 308.757 190.445 309.024 191.063 309.024ZM203.778 305.536C203.778 305.781 203.767 306.032 203.746 306.288H198.37C198.434 307.216 198.669 307.899 199.074 308.336C199.479 308.773 200.002 308.992 200.642 308.992C201.047 308.992 201.421 308.933 201.762 308.816C202.103 308.699 202.461 308.512 202.834 308.256L203.474 309.136C202.578 309.84 201.597 310.192 200.53 310.192C199.357 310.192 198.439 309.808 197.778 309.04C197.127 308.272 196.802 307.216 196.802 305.872C196.802 304.997 196.941 304.224 197.218 303.552C197.506 302.869 197.911 302.336 198.434 301.952C198.967 301.568 199.591 301.376 200.306 301.376C201.426 301.376 202.285 301.744 202.882 302.48C203.479 303.216 203.778 304.235 203.778 305.536ZM202.322 305.104C202.322 304.272 202.157 303.637 201.826 303.2C201.495 302.763 200.999 302.544 200.338 302.544C199.133 302.544 198.477 303.429 198.37 305.2H202.322V305.104ZM214.353 301.376C215.046 301.376 215.601 301.611 216.017 302.08C216.433 302.539 216.641 303.163 216.641 303.952V310H215.169V304.16C215.169 303.072 214.774 302.528 213.985 302.528C213.569 302.528 213.217 302.651 212.929 302.896C212.641 303.131 212.331 303.504 212.001 304.016V310H210.529V304.16C210.529 303.072 210.134 302.528 209.345 302.528C208.918 302.528 208.561 302.651 208.273 302.896C207.985 303.141 207.681 303.515 207.361 304.016V310H205.889V301.568H207.153L207.281 302.8C207.91 301.851 208.721 301.376 209.713 301.376C210.235 301.376 210.678 301.509 211.041 301.776C211.414 302.043 211.681 302.416 211.841 302.896C212.171 302.405 212.534 302.032 212.929 301.776C213.334 301.509 213.809 301.376 214.353 301.376ZM222.634 310.048C222.303 311.029 221.839 311.803 221.242 312.368C220.655 312.944 219.813 313.291 218.714 313.408L218.554 312.256C219.109 312.16 219.551 312.021 219.882 311.84C220.213 311.659 220.474 311.424 220.666 311.136C220.869 310.859 221.055 310.48 221.226 310H220.73L217.898 301.568H219.466L221.722 308.928L223.93 301.568H225.45L222.634 310.048ZM227.34 307.968C227.66 307.968 227.926 308.075 228.14 308.288C228.353 308.501 228.46 308.763 228.46 309.072C228.46 309.381 228.353 309.648 228.14 309.872C227.926 310.085 227.66 310.192 227.34 310.192C227.03 310.192 226.769 310.085 226.556 309.872C226.342 309.648 226.236 309.381 226.236 309.072C226.236 308.763 226.342 308.501 226.556 308.288C226.769 308.075 227.03 307.968 227.34 307.968ZM227.34 302.08C227.66 302.08 227.926 302.187 228.14 302.4C228.353 302.613 228.46 302.875 228.46 303.184C228.46 303.493 228.353 303.76 228.14 303.984C227.926 304.197 227.66 304.304 227.34 304.304C227.03 304.304 226.769 304.197 226.556 303.984C226.342 303.76 226.236 303.493 226.236 303.184C226.236 302.875 226.342 302.613 226.556 302.4C226.769 302.187 227.03 302.08 227.34 302.08ZM134.286 316.784C135.022 316.784 135.652 316.891 136.174 317.104C136.697 317.307 137.204 317.627 137.694 318.064L136.862 318.992C136.446 318.661 136.036 318.421 135.63 318.272C135.236 318.112 134.809 318.032 134.35 318.032C133.774 318.032 133.3 318.165 132.926 318.432C132.553 318.699 132.366 319.088 132.366 319.6C132.366 319.92 132.43 320.192 132.558 320.416C132.686 320.629 132.921 320.827 133.262 321.008C133.614 321.189 134.121 321.381 134.782 321.584C135.476 321.797 136.052 322.027 136.51 322.272C136.969 322.517 137.337 322.859 137.614 323.296C137.902 323.723 138.046 324.267 138.046 324.928C138.046 325.568 137.886 326.133 137.566 326.624C137.257 327.115 136.804 327.499 136.206 327.776C135.62 328.053 134.921 328.192 134.11 328.192C132.585 328.192 131.337 327.717 130.366 326.768L131.198 325.84C131.646 326.203 132.1 326.48 132.558 326.672C133.017 326.853 133.529 326.944 134.094 326.944C134.777 326.944 135.342 326.779 135.79 326.448C136.238 326.107 136.462 325.616 136.462 324.976C136.462 324.613 136.393 324.315 136.254 324.08C136.116 323.835 135.876 323.616 135.534 323.424C135.204 323.232 134.718 323.04 134.078 322.848C132.948 322.507 132.121 322.096 131.598 321.616C131.076 321.136 130.814 320.485 130.814 319.664C130.814 319.109 130.958 318.613 131.246 318.176C131.545 317.739 131.956 317.397 132.478 317.152C133.012 316.907 133.614 316.784 134.286 316.784ZM146.333 323.536C146.333 323.781 146.322 324.032 146.301 324.288H140.925C140.989 325.216 141.224 325.899 141.629 326.336C142.034 326.773 142.557 326.992 143.197 326.992C143.602 326.992 143.976 326.933 144.317 326.816C144.658 326.699 145.016 326.512 145.389 326.256L146.029 327.136C145.133 327.84 144.152 328.192 143.085 328.192C141.912 328.192 140.994 327.808 140.333 327.04C139.682 326.272 139.357 325.216 139.357 323.872C139.357 322.997 139.496 322.224 139.773 321.552C140.061 320.869 140.466 320.336 140.989 319.952C141.522 319.568 142.146 319.376 142.861 319.376C143.981 319.376 144.84 319.744 145.437 320.48C146.034 321.216 146.333 322.235 146.333 323.536ZM144.877 323.104C144.877 322.272 144.712 321.637 144.381 321.2C144.05 320.763 143.554 320.544 142.893 320.544C141.688 320.544 141.032 321.429 140.925 323.2H144.877V323.104ZM150.124 328.192C149.58 328.192 149.148 328.032 148.828 327.712C148.518 327.381 148.364 326.923 148.364 326.336V316.176L149.836 316V326.304C149.836 326.539 149.873 326.709 149.948 326.816C150.033 326.923 150.172 326.976 150.364 326.976C150.566 326.976 150.748 326.944 150.908 326.88L151.292 327.904C150.94 328.096 150.55 328.192 150.124 328.192ZM155.755 317.184C155.307 317.184 154.987 317.285 154.795 317.488C154.603 317.68 154.507 317.984 154.507 318.4V319.568H156.555L156.395 320.704H154.507V328H153.035V320.704H151.531V319.568H153.035V318.416C153.035 317.691 153.265 317.109 153.723 316.672C154.193 316.224 154.843 316 155.675 316C156.059 316 156.401 316.037 156.699 316.112C157.009 316.176 157.339 316.283 157.691 316.432L157.227 317.504C156.747 317.291 156.257 317.184 155.755 317.184ZM157.138 323.616V322.368H161.666V323.616H157.138ZM166.199 319.376C166.775 319.376 167.293 319.456 167.751 319.616C168.21 319.776 168.647 320.016 169.063 320.336L168.439 321.264C168.055 321.019 167.687 320.837 167.335 320.72C166.994 320.603 166.631 320.544 166.247 320.544C165.767 320.544 165.389 320.645 165.111 320.848C164.834 321.04 164.695 321.307 164.695 321.648C164.695 321.989 164.823 322.256 165.079 322.448C165.346 322.64 165.821 322.827 166.503 323.008C167.442 323.243 168.141 323.563 168.599 323.968C169.069 324.373 169.303 324.928 169.303 325.632C169.303 326.464 168.978 327.099 168.327 327.536C167.687 327.973 166.903 328.192 165.975 328.192C164.695 328.192 163.634 327.824 162.791 327.088L163.575 326.192C164.29 326.736 165.079 327.008 165.943 327.008C166.498 327.008 166.935 326.896 167.255 326.672C167.586 326.437 167.751 326.123 167.751 325.728C167.751 325.44 167.693 325.211 167.575 325.04C167.458 324.859 167.255 324.704 166.967 324.576C166.679 324.437 166.258 324.293 165.703 324.144C164.807 323.909 164.157 323.595 163.751 323.2C163.357 322.805 163.159 322.304 163.159 321.696C163.159 321.259 163.287 320.864 163.543 320.512C163.81 320.149 164.173 319.872 164.631 319.68C165.101 319.477 165.623 319.376 166.199 319.376ZM175.396 327.616C174.841 328 174.212 328.192 173.508 328.192C172.793 328.192 172.233 327.989 171.828 327.584C171.433 327.168 171.236 326.571 171.236 325.792V320.704H169.764V319.568H171.236V317.664L172.708 317.488V319.568H174.708L174.548 320.704H172.708V325.728C172.708 326.165 172.783 326.485 172.932 326.688C173.092 326.88 173.353 326.976 173.716 326.976C174.047 326.976 174.42 326.864 174.836 326.64L175.396 327.616ZM182.953 328H181.689L181.577 326.688C181.257 327.211 180.889 327.595 180.473 327.84C180.057 328.075 179.551 328.192 178.953 328.192C178.217 328.192 177.641 327.968 177.225 327.52C176.809 327.072 176.601 326.437 176.601 325.616V319.568H178.073V325.456C178.073 326.032 178.175 326.443 178.377 326.688C178.58 326.923 178.911 327.04 179.369 327.04C180.191 327.04 180.895 326.555 181.481 325.584V319.568H182.953V328ZM192.282 316.176V328H190.986L190.842 326.832C190.564 327.259 190.218 327.595 189.802 327.84C189.386 328.075 188.922 328.192 188.41 328.192C187.407 328.192 186.623 327.797 186.058 327.008C185.503 326.219 185.226 325.157 185.226 323.824C185.226 322.96 185.359 322.192 185.626 321.52C185.892 320.848 186.276 320.325 186.778 319.952C187.279 319.568 187.866 319.376 188.538 319.376C189.402 319.376 190.159 319.723 190.81 320.416V316L192.282 316.176ZM188.73 327.024C189.178 327.024 189.562 326.923 189.882 326.72C190.202 326.507 190.511 326.192 190.81 325.776V321.648C190.532 321.285 190.234 321.013 189.914 320.832C189.604 320.64 189.252 320.544 188.858 320.544C188.207 320.544 187.7 320.816 187.338 321.36C186.986 321.904 186.81 322.715 186.81 323.792C186.81 324.88 186.975 325.691 187.306 326.224C187.636 326.757 188.111 327.024 188.73 327.024ZM198.452 328.048C198.122 329.029 197.658 329.803 197.06 330.368C196.474 330.944 195.631 331.291 194.532 331.408L194.372 330.256C194.927 330.16 195.37 330.021 195.7 329.84C196.031 329.659 196.292 329.424 196.484 329.136C196.687 328.859 196.874 328.48 197.044 328H196.548L193.716 319.568H195.284L197.54 326.928L199.748 319.568H201.268L198.452 328.048ZM203.158 325.968C203.478 325.968 203.744 326.075 203.958 326.288C204.171 326.501 204.278 326.763 204.278 327.072C204.278 327.381 204.171 327.648 203.958 327.872C203.744 328.085 203.478 328.192 203.158 328.192C202.848 328.192 202.587 328.085 202.374 327.872C202.16 327.648 202.054 327.381 202.054 327.072C202.054 326.763 202.16 326.501 202.374 326.288C202.587 326.075 202.848 325.968 203.158 325.968ZM203.158 320.08C203.478 320.08 203.744 320.187 203.958 320.4C204.171 320.613 204.278 320.875 204.278 321.184C204.278 321.493 204.171 321.76 203.958 321.984C203.744 322.197 203.478 322.304 203.158 322.304C202.848 322.304 202.587 322.197 202.374 321.984C202.16 321.76 202.054 321.493 202.054 321.184C202.054 320.875 202.16 320.613 202.374 320.4C202.587 320.187 202.848 320.08 203.158 320.08Z" fill="#0EE6B7"/>
<path d="M15 0.5H847C855.008 0.5 861.5 6.99187 861.5 15V499.5H0.5V15C0.5 6.99186 6.99187 0.5 15 0.5Z" stroke="#4A4A4A"/>
</svg>
